<svg width="50" height="51" viewBox="0 0 50 51" fill="none" xmlns="http://www.w3.org/2000/svg">
<circle cx="25" cy="26" r="25" fill="#246BFD" fill-opacity="0.08"/>
<path d="M12.0756 31.5774L16.7016 18.1674H19.8696L24.4956 31.5774H21.8316L20.8776 28.6974H15.6936L14.7216 31.5774H12.0756ZM16.3956 26.5374H20.1756L17.9436 19.8594H18.6276L16.3956 26.5374ZM30.1925 31.7934C29.2445 31.7934 28.3985 31.5714 27.6545 31.1274C26.9105 30.6714 26.3225 30.0534 25.8905 29.2734C25.4585 28.4934 25.2425 27.6294 25.2425 26.6814C25.2425 25.7214 25.4585 24.8574 25.8905 24.0894C26.3225 23.3214 26.9105 22.7094 27.6545 22.2534C28.4105 21.7974 29.2505 21.5694 30.1745 21.5694C30.9185 21.5694 31.5785 21.7194 32.1545 22.0194C32.7425 22.3074 33.2045 22.7154 33.5405 23.2434L33.1805 23.7294V17.9514H35.5385V31.5774H33.3065V29.6874L33.5585 30.1554C33.2225 30.6834 32.7545 31.0914 32.1545 31.3794C31.5545 31.6554 30.9005 31.7934 30.1925 31.7934ZM30.4445 29.6334C30.9845 29.6334 31.4585 29.5074 31.8665 29.2554C32.2745 29.0034 32.5925 28.6554 32.8205 28.2114C33.0605 27.7674 33.1805 27.2574 33.1805 26.6814C33.1805 26.1174 33.0605 25.6134 32.8205 25.1694C32.5925 24.7134 32.2745 24.3594 31.8665 24.1074C31.4585 23.8554 30.9845 23.7294 30.4445 23.7294C29.9165 23.7294 29.4425 23.8614 29.0225 24.1254C28.6025 24.3774 28.2725 24.7254 28.0325 25.1694C27.8045 25.6014 27.6905 26.1054 27.6905 26.6814C27.6905 27.2574 27.8045 27.7674 28.0325 28.2114C28.2725 28.6554 28.6025 29.0034 29.0225 29.2554C29.4425 29.5074 29.9165 29.6334 30.4445 29.6334Z" fill="url(#paint0_linear_1_3406)"/>
<defs>
<linearGradient id="paint0_linear_1_3406" x1="39.1369" y1="38.1488" x2="3.955" y2="27.5231" gradientUnits="userSpaceOnUse">
<stop stop-color="#246BFD"/>
<stop offset="1" stop-color="#5089FD"/>
</linearGradient>
</defs>
</svg>
