<svg width="44" height="44" viewBox="0 0 44 44" fill="none" xmlns="http://www.w3.org/2000/svg">
<rect width="44" height="44" rx="22" fill="#246BFD" fill-opacity="0.08"/>
<path fill-rule="evenodd" clip-rule="evenodd" d="M14.5399 12H17.9199C19.3299 12 20.4599 13.15 20.4599 14.561V17.97C20.4599 19.39 19.3299 20.53 17.9199 20.53H14.5399C13.1399 20.53 11.9999 19.39 11.9999 17.97V14.561C11.9999 13.15 13.1399 12 14.5399 12ZM14.5399 23.4697H17.9199C19.3299 23.4697 20.4599 24.6107 20.4599 26.0307V29.4397C20.4599 30.8497 19.3299 31.9997 17.9199 31.9997H14.5399C13.1399 31.9997 11.9999 30.8497 11.9999 29.4397V26.0307C11.9999 24.6107 13.1399 23.4697 14.5399 23.4697ZM29.46 12H26.08C24.67 12 23.54 13.15 23.54 14.561V17.97C23.54 19.39 24.67 20.53 26.08 20.53H29.46C30.86 20.53 32 19.39 32 17.97V14.561C32 13.15 30.86 12 29.46 12ZM26.08 23.4697H29.46C30.86 23.4697 32 24.6107 32 26.0307V29.4397C32 30.8497 30.86 31.9997 29.46 31.9997H26.08C24.67 31.9997 23.54 30.8497 23.54 29.4397V26.0307C23.54 24.6107 24.67 23.4697 26.08 23.4697Z" fill="url(#paint0_linear_1_3695)"/>
<defs>
<linearGradient id="paint0_linear_1_3695" x1="32" y1="31.9997" x2="8.20173" y2="25.0995" gradientUnits="userSpaceOnUse">
<stop stop-color="#246BFD"/>
<stop offset="1" stop-color="#5089FD"/>
</linearGradient>
</defs>
</svg>
