<svg width="10" height="10" viewBox="0 0 10 10" fill="none" xmlns="http://www.w3.org/2000/svg">
<path d="M5.00004 0.833344C2.70421 0.833344 0.833374 2.70418 0.833374 5.00001C0.833374 7.29584 2.70421 9.16668 5.00004 9.16668C7.29587 9.16668 9.16671 7.29584 9.16671 5.00001C9.16671 2.70418 7.29587 0.833344 5.00004 0.833344ZM6.99171 4.04168L4.62921 6.40418C4.57087 6.46251 4.49171 6.49584 4.40837 6.49584C4.32504 6.49584 4.24587 6.46251 4.18754 6.40418L3.00837 5.22501C2.88754 5.10418 2.88754 4.90418 3.00837 4.78334C3.12921 4.66251 3.32921 4.66251 3.45004 4.78334L4.40837 5.74168L6.55004 3.60001C6.67087 3.47918 6.87087 3.47918 6.99171 3.60001C7.11254 3.72084 7.11254 3.91668 6.99171 4.04168Z" fill="#1BC256"/>
</svg>
