<svg width="48" height="39" viewBox="0 0 48 39" fill="none" xmlns="http://www.w3.org/2000/svg">
<path fill-rule="evenodd" clip-rule="evenodd" d="M12.3673 1.451C20.1087 0.778052 27.8939 0.778052 35.6354 1.451L39.3475 1.7755C41.0733 1.92576 42.6982 2.65252 43.9607 3.83873C45.2232 5.02495 46.0497 6.60157 46.307 8.31467C47.4218 15.7299 47.4218 23.2702 46.307 30.6855C46.2087 31.3345 46.0317 31.9565 45.7858 32.5391C45.6236 32.925 45.1221 32.984 44.8369 32.6743L33.9686 20.717C33.7283 20.4526 33.4163 20.2638 33.0707 20.1735C32.725 20.0831 32.3606 20.0952 32.0216 20.2081L25.7996 22.2829L16.775 12.13C16.6081 11.9422 16.4046 11.7905 16.1769 11.6842C15.9492 11.5779 15.7022 11.5193 15.451 11.5119C15.1998 11.5045 14.9498 11.5486 14.7163 11.6413C14.4828 11.7341 14.2707 11.8736 14.093 12.0513L2.01276 24.1316C1.93069 24.2159 1.82579 24.2745 1.71092 24.3001C1.59606 24.3257 1.47621 24.3173 1.36608 24.2758C1.25595 24.2343 1.16032 24.1616 1.09091 24.0665C1.02151 23.9715 0.98134 23.8582 0.975339 23.7407C0.684639 18.5869 0.925185 13.4168 1.69317 8.31221C1.95052 6.59911 2.77699 5.02249 4.03946 3.83627C5.30193 2.65006 6.92692 1.9233 8.65271 1.77304L12.3648 1.45346L12.3673 1.451ZM28.9168 12.1251C28.9168 11.1471 29.3053 10.2092 29.9968 9.51763C30.6883 8.82609 31.6263 8.43758 32.6043 8.43758C33.5822 8.43758 34.5202 8.82609 35.2117 9.51763C35.9032 10.2092 36.2918 11.1471 36.2918 12.1251C36.2918 13.1031 35.9032 14.041 35.2117 14.7325C34.5202 15.4241 33.5822 15.8126 32.6043 15.8126C31.6263 15.8126 30.6883 15.4241 29.9968 14.7325C29.3053 14.041 28.9168 13.1031 28.9168 12.1251Z" fill="#F4F4F5"/>
<path d="M1.77905 29.5792C1.7125 29.6461 1.66234 29.7276 1.63249 29.8171C1.60263 29.9067 1.5939 30.0019 1.60697 30.0954L1.69301 30.6854C1.95036 32.3985 2.77682 33.9752 4.03929 35.1614C5.30177 36.3476 6.92676 37.0743 8.65255 37.2246L12.3646 37.5466C20.1084 38.2202 27.8915 38.2202 35.6352 37.5466L39.3473 37.2246C40.3654 37.1365 41.3557 36.8465 42.2604 36.3716C42.5972 36.197 42.6538 35.7521 42.3981 35.4718L32.3189 24.3847C32.2389 24.2957 32.1346 24.232 32.0189 24.2014C31.9032 24.1709 31.781 24.1748 31.6675 24.2126L25.8117 26.1646C25.4694 26.2789 25.101 26.2902 24.7523 26.1971C24.4035 26.104 24.0898 25.9106 23.85 25.6409L15.7498 16.5279C15.694 16.4653 15.626 16.4147 15.55 16.3794C15.4739 16.344 15.3915 16.3246 15.3077 16.3223C15.2238 16.32 15.1404 16.3348 15.0626 16.366C14.9847 16.3971 14.914 16.4438 14.8549 16.5033L1.77905 29.5792Z" fill="#F4F4F5"/>
</svg>
