<svg width="44" height="44" viewBox="0 0 44 44" fill="none" xmlns="http://www.w3.org/2000/svg">
<rect width="44" height="44" rx="22" fill="#1BAC4B" fill-opacity="0.08"/>
<path d="M13.91 27.18C13.72 27.18 13.53 27.11 13.38 26.96C12.01 25.58 11.25 23.76 11.25 21.83C11.25 17.82 14.5 14.56 18.5 14.56L24.57 14.58L23.48 13.54C23.18 13.25 23.17 12.78 23.46 12.48C23.75 12.18 24.22 12.17 24.52 12.46L26.96 14.8C27.18 15.01 27.25 15.34 27.14 15.62C27.03 15.9 26.75 16.09 26.44 16.09L18.5 16.07C15.33 16.07 12.75 18.66 12.75 21.84C12.75 23.37 13.35 24.82 14.44 25.91C14.73 26.2 14.73 26.68 14.44 26.97C14.29 27.11 14.1 27.18 13.91 27.18Z" fill="url(#paint0_linear_1_3473)"/>
<path d="M19.9999 31.75C19.8099 31.75 19.6299 31.68 19.4799 31.54L17.0399 29.2C16.8199 28.99 16.7499 28.66 16.8599 28.38C16.9699 28.1 17.2499 27.91 17.5599 27.91L25.5099 27.93C28.6799 27.93 31.2599 25.34 31.2599 22.16C31.2599 20.63 30.6599 19.18 29.5699 18.09C29.2799 17.8 29.2799 17.32 29.5699 17.03C29.8599 16.74 30.3399 16.74 30.6299 17.03C31.9999 18.41 32.7599 20.23 32.7599 22.16C32.7599 26.17 29.5099 29.43 25.5099 29.43L19.4399 29.41L20.5299 30.45C20.8299 30.74 20.8399 31.21 20.5499 31.51C20.3899 31.67 20.1999 31.75 19.9999 31.75Z" fill="url(#paint1_linear_1_3473)"/>
<path d="M19 25.5H25C26.92 25.5 28.5 23.93 28.5 22C28.5 20.08 26.93 18.5 25 18.5H19C17.08 18.5 15.5 20.07 15.5 22C15.5 23.93 17.07 25.5 19 25.5Z" fill="url(#paint2_linear_1_3473)"/>
<defs>
<linearGradient id="paint0_linear_1_3473" x1="27.1913" y1="27.18" x2="8.42609" y2="21.3712" gradientUnits="userSpaceOnUse">
<stop stop-color="#1BAC4B"/>
<stop offset="1" stop-color="#46D375"/>
</linearGradient>
<linearGradient id="paint1_linear_1_3473" x1="32.7599" y1="31.75" x2="13.9836" y2="25.9365" gradientUnits="userSpaceOnUse">
<stop stop-color="#1BAC4B"/>
<stop offset="1" stop-color="#46D375"/>
</linearGradient>
<linearGradient id="paint2_linear_1_3473" x1="28.5" y1="25.5" x2="15.5" y2="18.5" gradientUnits="userSpaceOnUse">
<stop stop-color="#1BAC4B"/>
<stop offset="1" stop-color="#46D375"/>
</linearGradient>
</defs>
</svg>
