<svg width="44" height="44" viewBox="0 0 44 44" fill="none" xmlns="http://www.w3.org/2000/svg">
<rect width="44" height="44" rx="22" fill="#FF5A5F" fill-opacity="0.08"/>
<path fill-rule="evenodd" clip-rule="evenodd" d="M17.6698 11.9992H26.3398C29.7298 11.9992 31.9998 14.3792 31.9998 17.9192V26.0902C31.9998 29.6202 29.7298 31.9992 26.3398 31.9992H17.6698C14.2798 31.9992 11.9998 29.6202 11.9998 26.0902V17.9192C11.9998 14.3792 14.2798 11.9992 17.6698 11.9992ZM25.0098 24.9992C25.3498 24.6602 25.3498 24.1102 25.0098 23.7702L23.2298 21.9902L25.0098 20.2092C25.3498 19.8702 25.3498 19.3102 25.0098 18.9702C24.6698 18.6292 24.1198 18.6292 23.7698 18.9702L21.9998 20.7492L20.2198 18.9702C19.8698 18.6292 19.3198 18.6292 18.9798 18.9702C18.6398 19.3102 18.6398 19.8702 18.9798 20.2092L20.7598 21.9902L18.9798 23.7602C18.6398 24.1102 18.6398 24.6602 18.9798 24.9992C19.1498 25.1692 19.3798 25.2602 19.5998 25.2602C19.8298 25.2602 20.0498 25.1692 20.2198 24.9992L21.9998 23.2302L23.7798 24.9992C23.9498 25.1802 24.1698 25.2602 24.3898 25.2602C24.6198 25.2602 24.8398 25.1692 25.0098 24.9992Z" fill="url(#paint0_linear_1_3702)"/>
<defs>
<linearGradient id="paint0_linear_1_3702" x1="31.9998" y1="31.9992" x2="8.20155" y2="25.0991" gradientUnits="userSpaceOnUse">
<stop stop-color="#FF5A5F"/>
<stop offset="1" stop-color="#FF8A9B"/>
</linearGradient>
</defs>
</svg>
