<svg width="20" height="20" viewBox="0 0 20 20" fill="none" xmlns="http://www.w3.org/2000/svg">
<path d="M17.5 17.8333H2.5C2.46985 17.8333 2.43857 17.8211 2.41293 17.7954C2.38728 17.7698 2.375 17.7385 2.375 17.7083C2.375 17.6782 2.38728 17.6469 2.41293 17.6213C2.43857 17.5956 2.46985 17.5833 2.5 17.5833H17.5C17.5301 17.5833 17.5614 17.5956 17.5871 17.6213C17.6127 17.6469 17.625 17.6782 17.625 17.7083C17.625 17.7385 17.6127 17.7698 17.5871 17.7954C17.5614 17.8211 17.5301 17.8333 17.5 17.8333Z" fill="white" stroke="white"/>
<path d="M15.4964 3.25354L15.4964 3.25355L15.4982 3.25531C16.2765 4.02581 16.5815 4.70369 16.575 5.34494L16.575 5.34494V5.34999C16.575 5.96745 16.2701 6.63893 15.4982 7.40298L15.4982 7.40296L15.495 7.40624L14.5638 8.34512C12.589 7.74825 11.0055 6.16617 10.4067 4.19209L11.3452 3.25354C12.1217 2.47702 12.8112 2.16783 13.4332 2.17185C14.0569 2.17589 14.7384 2.49554 15.4964 3.25354Z" fill="white" stroke="white"/>
<path d="M13.0083 9.60832C12.7666 9.49166 12.5333 9.37499 12.3083 9.24166C12.125 9.13332 11.95 9.01666 11.775 8.89166C11.6333 8.79999 11.4666 8.66666 11.3083 8.53332C11.2916 8.52499 11.2333 8.47499 11.1666 8.40832C10.8916 8.17499 10.5833 7.87499 10.3083 7.54166C10.2833 7.52499 10.2416 7.46666 10.1833 7.39166C10.1 7.29166 9.95831 7.12499 9.83331 6.93332C9.73331 6.80832 9.61665 6.62499 9.50831 6.44166C9.37498 6.21666 9.25831 5.99166 9.14165 5.75832C8.98868 5.43054 8.55847 5.33317 8.3027 5.58894L3.61665 10.275C3.50831 10.3833 3.40831 10.5917 3.38331 10.7333L2.93331 13.925C2.84998 14.4917 3.00831 15.025 3.35831 15.3833C3.65831 15.675 4.07498 15.8333 4.52498 15.8333C4.62498 15.8333 4.72498 15.825 4.82498 15.8083L8.02498 15.3583C8.17498 15.3333 8.38331 15.2333 8.48331 15.125L13.1771 10.4312C13.4278 10.1805 13.3336 9.74927 13.0083 9.60832Z" fill="white"/>
</svg>
