<svg width="44" height="44" viewBox="0 0 44 44" fill="none" xmlns="http://www.w3.org/2000/svg">
<rect width="44" height="44" rx="22" fill="#FF9800" fill-opacity="0.08"/>
<path fill-rule="evenodd" clip-rule="evenodd" d="M18.0976 22C18.0976 24.1333 19.8439 25.8691 22 25.8691C24.1463 25.8691 25.8927 24.1333 25.8927 22C25.8927 19.857 24.1463 18.1212 22 18.1212C19.8439 18.1212 18.0976 19.857 18.0976 22ZM27.7366 16.0461C29.4439 17.3648 30.8976 19.2945 31.9415 21.7091C32.0195 21.8933 32.0195 22.1067 31.9415 22.2812C29.8537 27.1103 26.1366 30 22 30H21.9902C17.8634 30 14.1463 27.1103 12.0585 22.2812C11.9805 22.1067 11.9805 21.8933 12.0585 21.7091C14.1463 16.88 17.8634 14 21.9902 14H22C24.0683 14 26.0293 14.7176 27.7366 16.0461ZM22.0012 24.4124C23.3378 24.4124 24.4304 23.3264 24.4304 21.9979C24.4304 20.6597 23.3378 19.5736 22.0012 19.5736C21.8841 19.5736 21.767 19.5833 21.6597 19.6027C21.6207 20.6694 20.7426 21.5227 19.6597 21.5227H19.6109C19.5817 21.6779 19.5621 21.833 19.5621 21.9979C19.5621 23.3264 20.6548 24.4124 22.0012 24.4124Z" fill="url(#paint0_linear_1_3445)"/>
<defs>
<linearGradient id="paint0_linear_1_3445" x1="32" y1="30" x2="9.19649" y2="21.7354" gradientUnits="userSpaceOnUse">
<stop stop-color="#FB9400"/>
<stop offset="1" stop-color="#FFAB38"/>
</linearGradient>
</defs>
</svg>
