<svg width="24" height="25" viewBox="0 0 24 25" fill="none" xmlns="http://www.w3.org/2000/svg">
<path d="M8.16 7.1499H15.83C16.47 7.1499 16.99 7.6699 16.99 8.3099V9.5899C16.99 10.0599 16.7 10.6399 16.41 10.9299L13.91 13.1399C13.56 13.4299 13.33 14.0099 13.33 14.4799V16.9799C13.33 17.3299 13.1 17.7899 12.81 17.9699L12 18.4799C11.24 18.9499 10.2 18.4199 10.2 17.4899V14.4099C10.2 13.9999 9.97 13.4799 9.73 13.1899L7.52 10.8599C7.23 10.5799 7 10.0499 7 9.6999V8.3699C7 7.6699 7.52 7.1499 8.16 7.1499Z" stroke="#0F0F11" stroke-width="1.5" stroke-miterlimit="10" stroke-linecap="round" stroke-linejoin="round"/>
<path d="M9 22.5H15C20 22.5 22 20.5 22 15.5V9.5C22 4.5 20 2.5 15 2.5H9C4 2.5 2 4.5 2 9.5V15.5C2 20.5 4 22.5 9 22.5Z" stroke="#0F0F11" stroke-width="1.5" stroke-linecap="round" stroke-linejoin="round"/>
</svg>
