<svg width="28" height="29" viewBox="0 0 28 29" fill="none" xmlns="http://www.w3.org/2000/svg">
<path d="M14 11.5356V14.7906L15.6333 16.424" stroke="white" stroke-width="2" stroke-linecap="round" stroke-linejoin="round"/>
<path d="M6.41666 14.2656C6.41666 10.0773 9.81166 6.68225 14 6.68225C18.1883 6.68225 21.5833 10.0773 21.5833 14.2656C21.5833 16.6923 20.44 18.8623 18.6667 20.2506H18.655C17.3717 21.2539 15.7617 21.8489 14 21.8489C12.2617 21.8489 10.6633 21.2656 9.38 20.2739H9.36833C7.57166 18.8856 6.41666 16.7156 6.41666 14.2656Z" stroke="white" stroke-width="2" stroke-linecap="round" stroke-linejoin="round"/>
<path d="M9.36833 20.2739H9.38C10.6633 21.2656 12.2617 21.8489 14 21.8489C15.7617 21.8489 17.3717 21.2539 18.655 20.2506H18.6667L18.0717 23.1323C17.5 25.3489 16.2167 25.9323 14.6417 25.9323H13.37C11.795 25.9323 10.5 25.3489 9.94 23.1206L9.36833 20.2739Z" stroke="white" stroke-width="2" stroke-linecap="round" stroke-linejoin="round"/>
<path d="M9.36833 8.25733H9.38C10.6633 7.26567 12.2617 6.68233 14 6.68233C15.7617 6.68233 17.3717 7.27733 18.655 8.28067H18.6667L18.0717 5.399C17.5 3.18233 16.2167 2.599 14.6417 2.599H13.37C11.795 2.599 10.5 3.18233 9.94 5.41067L9.36833 8.25733Z" stroke="white" stroke-width="2" stroke-linecap="round" stroke-linejoin="round"/>
</svg>
