<svg width="10" height="10" viewBox="0 0 10 10" fill="none" xmlns="http://www.w3.org/2000/svg">
    <path
        d="M4.0575 8.85915C4.00917 8.81206 3.8025 8.63428 3.6325 8.46866C2.56333 7.49773 0.813333 4.96485 0.279167 3.63915C0.193333 3.43781 0.0116667 2.9288 0 2.65684C0 2.39625 0.06 2.14783 0.181667 1.91078C0.351667 1.61528 0.619167 1.37823 0.935 1.24834C1.15417 1.16472 1.81 1.03483 1.82167 1.03483C2.53917 0.904936 3.705 0.833496 4.99333 0.833496C6.22083 0.833496 7.33917 0.904936 8.0675 1.01128C8.07917 1.02346 8.89417 1.15335 9.17333 1.29542C9.68333 1.55602 10 2.06503 10 2.60976V2.65684C9.9875 3.01161 9.67083 3.75767 9.65917 3.75767C9.12417 5.01193 7.46 7.48636 6.35417 8.48084C6.35417 8.48084 6.07 8.76092 5.8925 8.88269C5.6375 9.07266 5.32167 9.16683 5.00583 9.16683C4.65333 9.16683 4.325 9.06048 4.0575 8.85915Z"
        fill="#212121" />
</svg>
