<svg width="12" height="12" viewBox="0 0 12 12" fill="none" xmlns="http://www.w3.org/2000/svg">
<path fill-rule="evenodd" clip-rule="evenodd" d="M9.09846 0.506995C9.65514 0.452352 10.207 0.696821 10.7553 1.24504C11.3035 1.79325 11.5479 2.34516 11.4933 2.90184C11.4406 3.43884 11.1167 3.8839 10.7553 4.24537L6.81092 8.18971C6.69832 8.29868 6.55114 8.39388 6.40913 8.46526C6.26795 8.53622 6.10166 8.59878 5.94313 8.62143L4.43622 8.83671C4.06518 8.88777 3.71017 8.78647 3.4611 8.5384C3.21149 8.28981 3.10939 7.93467 3.16396 7.56149L3.16407 7.56074L3.3787 6.05838L3.37879 6.05771C3.40131 5.89709 3.46357 5.72961 3.53504 5.58742C3.60666 5.44492 3.70309 5.29688 3.81493 5.18504L7.18178 1.81819C7.18713 1.81249 7.19268 1.80694 7.1984 1.80157L7.75493 1.24504C8.1164 0.883572 8.56146 0.559707 9.09846 0.506995ZM7.30601 2.75462L4.34526 5.71537C4.3071 5.75352 4.25354 5.82798 4.20516 5.92423C4.15672 6.02059 4.12906 6.10785 4.1215 6.16202L4.12133 6.16323L3.90633 7.66823L3.90612 7.66966C3.88094 7.84121 3.93137 7.94826 3.99035 8.007C4.04993 8.06634 4.15964 8.11747 4.33308 8.09382L4.33397 8.0937L5.83706 7.87897C5.88853 7.87162 5.97474 7.84418 6.07232 7.79514C6.16769 7.74721 6.24471 7.69331 6.2875 7.65247L9.24646 4.6935C8.38799 4.29908 7.69891 3.61089 7.30601 2.75462ZM9.82136 4.11861C8.91373 3.79458 8.20153 3.08202 7.88118 2.17944L8.28526 1.77537C8.6038 1.45683 8.89374 1.2807 9.17173 1.25341C9.43006 1.22805 9.77315 1.32358 10.2249 1.77537C10.6767 2.22715 10.7722 2.57024 10.7469 2.82857C10.7196 3.10656 10.5435 3.3965 10.2249 3.71504L9.82136 4.11861ZM1.54733 1.54754C2.21457 0.880303 3.21301 0.625202 4.5 0.625202H5.5C5.70711 0.625202 5.875 0.793095 5.875 1.0002C5.875 1.20731 5.70711 1.3752 5.5 1.3752H4.5C3.28699 1.3752 2.53543 1.6201 2.07767 2.07787C1.6199 2.53563 1.375 3.28719 1.375 4.5002V7.5002C1.375 8.71322 1.6199 9.46477 2.07767 9.92254C2.53543 10.3803 3.28699 10.6252 4.5 10.6252H7.5C8.71301 10.6252 9.46457 10.3803 9.92233 9.92254C10.3801 9.46477 10.625 8.71322 10.625 7.5002V6.5002C10.625 6.2931 10.7929 6.1252 11 6.1252C11.2071 6.1252 11.375 6.2931 11.375 6.5002V7.5002C11.375 8.78719 11.1199 9.78563 10.4527 10.4529C9.78543 11.1201 8.78699 11.3752 7.5 11.3752H4.5C3.21301 11.3752 2.21457 11.1201 1.54733 10.4529C0.880101 9.78563 0.625 8.78719 0.625 7.5002V4.5002C0.625 3.21322 0.880101 2.21477 1.54733 1.54754Z" fill="#A862EA"/>
</svg>
