<svg width="24" height="25" viewBox="0 0 24 25" fill="none" xmlns="http://www.w3.org/2000/svg">
<path d="M12 15.6139C11.09 15.6139 10.35 14.8739 10.35 13.9639V11.4939C10.35 10.5839 11.09 9.84387 12 9.84387C12.91 9.84387 13.65 10.5839 13.65 11.4939V13.9639C13.65 14.8739 12.91 15.6139 12 15.6139Z" stroke="url(#paint0_linear_246_1566)" stroke-width="1.3" stroke-linecap="round"/>
<path d="M16.98 14.2038C16.78 16.7838 14.62 18.8038 12 18.8038C9.24 18.8038 7 16.5638 7 13.8038V11.6638C7 8.90382 9.24 6.66382 12 6.66382C14.59 6.66382 16.72 8.63381 16.97 11.1538" stroke="url(#paint1_linear_246_1566)" stroke-width="1.3" stroke-linecap="round"/>
<path d="M15 2.73389H17C20 2.73389 22 4.73389 22 7.73389V9.73389" stroke="url(#paint2_linear_246_1566)" stroke-width="1.3" stroke-miterlimit="10" stroke-linecap="round" stroke-linejoin="round"/>
<path d="M2 9.73389V7.73389C2 4.73389 4 2.73389 7 2.73389H9" stroke="url(#paint3_linear_246_1566)" stroke-width="1.3" stroke-miterlimit="10" stroke-linecap="round" stroke-linejoin="round"/>
<path d="M15 22.7339H17C20 22.7339 22 20.7339 22 17.7339V15.7339" stroke="url(#paint4_linear_246_1566)" stroke-width="1.3" stroke-miterlimit="10" stroke-linecap="round" stroke-linejoin="round"/>
<path d="M2 15.7339V17.7339C2 20.7339 4 22.7339 7 22.7339H9" stroke="url(#paint5_linear_246_1566)" stroke-width="1.3" stroke-miterlimit="10" stroke-linecap="round" stroke-linejoin="round"/>
<defs>
<linearGradient id="paint0_linear_246_1566" x1="13.65" y1="15.6139" x2="9.50709" y2="14.9269" gradientUnits="userSpaceOnUse">
<stop stop-color="#246BFD"/>
<stop offset="1" stop-color="#5089FD"/>
</linearGradient>
<linearGradient id="paint1_linear_246_1566" x1="16.98" y1="18.8038" x2="4.79845" y2="15.9003" gradientUnits="userSpaceOnUse">
<stop stop-color="#246BFD"/>
<stop offset="1" stop-color="#5089FD"/>
</linearGradient>
<linearGradient id="paint2_linear_246_1566" x1="22" y1="9.73389" x2="13.6706" y2="7.31886" gradientUnits="userSpaceOnUse">
<stop stop-color="#246BFD"/>
<stop offset="1" stop-color="#5089FD"/>
</linearGradient>
<linearGradient id="paint3_linear_246_1566" x1="9" y1="9.73389" x2="0.670628" y2="7.31886" gradientUnits="userSpaceOnUse">
<stop stop-color="#246BFD"/>
<stop offset="1" stop-color="#5089FD"/>
</linearGradient>
<linearGradient id="paint4_linear_246_1566" x1="22" y1="22.7339" x2="13.6706" y2="20.3189" gradientUnits="userSpaceOnUse">
<stop stop-color="#246BFD"/>
<stop offset="1" stop-color="#5089FD"/>
</linearGradient>
<linearGradient id="paint5_linear_246_1566" x1="9" y1="22.7339" x2="0.670628" y2="20.3189" gradientUnits="userSpaceOnUse">
<stop stop-color="#246BFD"/>
<stop offset="1" stop-color="#5089FD"/>
</linearGradient>
</defs>
</svg>
