<svg width="19" height="24" viewBox="0 0 19 24" fill="none" xmlns="http://www.w3.org/2000/svg">
<path d="M5.99999 4.099H3.66666C3.04782 4.099 2.45433 4.34483 2.01675 4.78242C1.57916 5.22 1.33333 5.81349 1.33333 6.43233V20.4323C1.33333 21.0512 1.57916 21.6447 2.01675 22.0822C2.45433 22.5198 3.04782 22.7657 3.66666 22.7657H15.3333C15.9522 22.7657 16.5457 22.5198 16.9832 22.0822C17.4208 21.6447 17.6667 21.0512 17.6667 20.4323V6.43233C17.6667 5.81349 17.4208 5.22 16.9832 4.78242C16.5457 4.34483 15.9522 4.099 15.3333 4.099H13" stroke="white" stroke-width="2" stroke-linecap="round" stroke-linejoin="round"/>
<path d="M10.6667 1.76562H8.33333C7.04467 1.76562 6 2.81029 6 4.09896C6 5.38762 7.04467 6.43229 8.33333 6.43229H10.6667C11.9553 6.43229 13 5.38762 13 4.09896C13 2.81029 11.9553 1.76562 10.6667 1.76562Z" stroke="white" stroke-width="2" stroke-linecap="round" stroke-linejoin="round"/>
<path d="M11.8333 11.0989H8.91666C8.45253 11.0989 8.00741 11.2833 7.67922 11.6115C7.35103 11.9397 7.16666 12.3848 7.16666 12.8489C7.16666 13.313 7.35103 13.7582 7.67922 14.0864C8.00741 14.4145 8.45253 14.5989 8.91666 14.5989H10.0833C10.5475 14.5989 10.9926 14.7833 11.3208 15.1115C11.6489 15.4397 11.8333 15.8848 11.8333 16.3489C11.8333 16.813 11.6489 17.2582 11.3208 17.5864C10.9926 17.9145 10.5475 18.0989 10.0833 18.0989H7.16666M9.49999 18.0989V19.2656M9.49999 9.93225V11.0989" stroke="white" stroke-width="2" stroke-linecap="round" stroke-linejoin="round"/>
</svg>
