<svg width="20" height="22" viewBox="0 0 20 22" fill="none" xmlns="http://www.w3.org/2000/svg">
<path d="M6.14286 3.22241H3.57143C2.88944 3.22241 2.23539 3.45654 1.75315 3.87328C1.27092 4.29003 1 4.85525 1 5.44462V18.7778C1 19.3672 1.27092 19.9324 1.75315 20.3492C2.23539 20.7659 2.88944 21.0001 3.57143 21.0001H16.4286C17.1106 21.0001 17.7646 20.7659 18.2468 20.3492C18.7291 19.9324 19 19.3672 19 18.7778V5.44462C19 4.85525 18.7291 4.29003 18.2468 3.87328C17.7646 3.45654 17.1106 3.22241 16.4286 3.22241H13.8571" stroke="#161F1C" stroke-width="1.5" stroke-linecap="round" stroke-linejoin="round"/>
<path d="M11.2862 1H8.71474C7.29458 1 6.14331 1.99492 6.14331 3.22221C6.14331 4.4495 7.29458 5.44441 8.71474 5.44441H11.2862C12.7063 5.44441 13.8576 4.4495 13.8576 3.22221C13.8576 1.99492 12.7063 1 11.2862 1Z" stroke="#161F1C" stroke-width="1.5" stroke-linecap="round" stroke-linejoin="round"/>
<path d="M12.5711 9.88869H9.35679C8.84531 9.88869 8.35477 10.0643 7.99309 10.3768C7.63141 10.6894 7.42822 11.1133 7.42822 11.5553C7.42822 11.9974 7.63141 12.4213 7.99309 12.7338C8.35477 13.0464 8.84531 13.222 9.35679 13.222H10.6425C11.154 13.222 11.6445 13.3976 12.0062 13.7101C12.3679 14.0227 12.5711 14.4466 12.5711 14.8887C12.5711 15.3307 12.3679 15.7546 12.0062 16.0672C11.6445 16.3797 11.154 16.5553 10.6425 16.5553H7.42822M9.99965 16.5553V17.6664M9.99965 8.77759V9.88869" stroke="#161F1C" stroke-width="1.5" stroke-linecap="round" stroke-linejoin="round"/>
</svg>
