<svg width="29" height="29" viewBox="0 0 29 29" fill="none" xmlns="http://www.w3.org/2000/svg">
<path d="M21.6633 25.489C20.6367 25.7923 19.4233 25.9323 18 25.9323H11C9.57667 25.9323 8.36333 25.7923 7.33667 25.489C7.59333 22.4557 10.7083 20.064 14.5 20.064C18.2917 20.064 21.4067 22.4557 21.6633 25.489Z" stroke="white" stroke-width="2" stroke-linecap="round" stroke-linejoin="round"/>
<path d="M18 2.599H11C5.16667 2.599 2.83333 4.93233 2.83333 10.7657V17.7657C2.83333 22.1757 4.16333 24.5907 7.33667 25.489C7.59333 22.4557 10.7083 20.064 14.5 20.064C18.2917 20.064 21.4067 22.4557 21.6633 25.489C24.8367 24.5907 26.1667 22.1757 26.1667 17.7657V10.7657C26.1667 4.93233 23.8333 2.599 18 2.599ZM14.5 16.7973C12.19 16.7973 10.3233 14.919 10.3233 12.609C10.3233 10.299 12.19 8.43233 14.5 8.43233C16.81 8.43233 18.6767 10.299 18.6767 12.609C18.6767 14.919 16.81 16.7973 14.5 16.7973Z" stroke="white" stroke-width="2" stroke-linecap="round" stroke-linejoin="round"/>
<path d="M18.6767 12.6089C18.6767 14.9189 16.81 16.7972 14.5 16.7972C12.19 16.7972 10.3233 14.9189 10.3233 12.6089C10.3233 10.2989 12.19 8.43225 14.5 8.43225C16.81 8.43225 18.6767 10.2989 18.6767 12.6089Z" stroke="white" stroke-width="2" stroke-linecap="round" stroke-linejoin="round"/>
</svg>
