<svg width="28" height="29" viewBox="0 0 28 29" fill="none" xmlns="http://www.w3.org/2000/svg">
<path d="M14 25.9323H19.8333C23.3333 25.9323 25.6667 23.5989 25.6667 20.0989V14.2656C25.6667 11.1156 23.6833 8.78225 20.7667 8.43225C20.5333 8.43225 20.1833 8.43225 19.8333 8.43225H8.16667C7.81667 8.43225 7.58333 8.43222 7.23333 8.54889C4.2 8.89889 2.33334 11.1156 2.33334 14.2656C2.33334 14.6156 2.33334 15.0823 2.33334 15.4323" stroke="white" stroke-width="2" stroke-linecap="round" stroke-linejoin="round"/>
<path d="M20.7667 8.43232C20.5333 8.43232 20.1833 8.43232 19.8333 8.43232H8.16667C7.81667 8.43232 7.58333 8.43229 7.23333 8.54895C7.35 8.19895 7.58334 7.96564 7.93334 7.61564L11.6667 3.76565C13.3 2.13232 15.8667 2.13232 17.5 3.76565L19.6 5.86564C20.3 6.56564 20.65 7.49898 20.7667 8.43232Z" stroke="white" stroke-width="2" stroke-linecap="round" stroke-linejoin="round"/>
<path d="M25.6667 14.849H22.1667C20.8833 14.849 19.8333 15.899 19.8333 17.1823C19.8333 18.4657 20.8833 19.5157 22.1667 19.5157H25.6667" stroke="white" stroke-width="2" stroke-linecap="round" stroke-linejoin="round"/>
<path d="M6.76849 25.2323C8.83349 25.2323 10.5018 23.564 10.5018 21.499C10.5018 19.434 8.83349 17.7656 6.76849 17.7656C4.70349 17.7656 3.03516 19.434 3.03516 21.499C3.03516 23.564 4.70349 25.2323 6.76849 25.2323Z" stroke="white" stroke-width="2" stroke-linecap="round" stroke-linejoin="round"/>
<path d="M2.33334 25.9323L3.5 24.7656" stroke="white" stroke-width="2" stroke-linecap="round" stroke-linejoin="round"/>
</svg>
