<svg width="150" height="110" viewBox="0 0 150 110" fill="none" xmlns="http://www.w3.org/2000/svg">
<g clip-path="url(#clip0_7_4135)">
<path d="M107.786 43.4557C108.044 43.8517 108.449 43.7571 108.819 43.7571C118.083 43.7571 127.348 43.7571 136.603 43.7571C139.447 43.8084 142.183 44.8532 144.338 46.7104C146.492 48.5675 147.929 51.12 148.398 53.9252C148.678 55.7742 148.528 57.6627 147.959 59.4441C147.138 62.1231 145.385 64.4197 143.017 65.9187C141.154 67.1832 138.95 67.8527 136.698 67.8387H132.479C130.2 67.8644 127.977 68.5524 126.082 69.8189C124.798 70.6286 123.699 71.6995 122.857 72.9619C122.014 74.2242 121.447 75.6498 121.192 77.1459C120.684 79.7247 121.203 82.3998 122.638 84.6019C123.674 86.3276 125.153 87.7447 126.921 88.706C128.689 89.6674 130.683 90.1381 132.694 90.0692C134.202 90.0453 135.695 90.3711 137.056 91.0209C138.417 91.6707 139.608 92.6268 140.538 93.8144C141.758 95.3305 142.445 97.2067 142.492 99.1525C142.602 100.733 142.305 102.316 141.631 103.75C140.727 105.774 139.109 107.392 137.085 108.296C135.539 108.955 133.875 109.292 132.195 109.286C92.2626 109.286 52.3303 109.286 12.398 109.286C10.2372 109.367 8.11285 108.712 6.37218 107.429C4.63151 106.146 3.37735 104.311 2.81465 102.223C2.25195 100.135 2.41397 97.918 3.2742 95.9341C4.13443 93.9502 5.64204 92.3167 7.55072 91.3004C9.06466 90.459 10.7789 90.0453 12.51 90.1036C14.288 90.1585 16.0534 89.7888 17.66 89.0252C19.2667 88.2615 20.6681 87.126 21.7483 85.7126C22.6694 84.5866 23.3445 83.2801 23.7301 81.8773C24.1157 80.4744 24.2031 79.0064 23.9868 77.5677C23.6351 75.0449 22.4177 72.7227 20.5429 70.9984C18.7989 69.3808 16.6036 68.3327 14.2491 67.9936C13.3411 67.8805 12.4262 67.8316 11.5112 67.8473C9.50224 67.756 7.54805 67.1636 5.82661 66.1239C4.10516 65.0842 2.6712 63.6304 1.65534 61.8948C0.639481 60.1592 0.0739825 58.197 0.0104181 56.1869C-0.0531463 54.1769 0.387211 52.1829 1.29138 50.3866C2.12867 48.7313 3.33367 47.2896 4.81407 46.1718C6.29448 45.0541 8.01106 44.2899 9.83234 43.9378C10.5301 43.804 11.2399 43.7434 11.9503 43.7571H29.7554C29.9879 44.0842 29.807 44.4028 29.7554 44.7127C28.6469 48.8725 28.2223 53.1849 28.4984 57.481C28.7818 62.8371 30.1651 68.0773 32.5622 72.8754C35.2718 78.3833 39.2008 83.2015 44.0507 86.9641C48.9007 90.7268 54.5443 93.3349 60.5528 94.5905C66.5614 95.8462 72.7771 95.7164 78.728 94.2109C84.6789 92.7054 90.2085 89.8639 94.8971 85.902C95.6376 85.2735 95.8443 85.3252 96.2748 86.1517C96.7091 86.8724 96.8823 87.7205 96.7655 88.5538C96.7232 88.8617 96.7458 89.175 96.8317 89.4737C96.9176 89.7723 97.0651 90.0497 97.2645 90.288C97.4639 90.5264 97.711 90.7204 97.9898 90.8577C98.2686 90.995 98.573 91.0724 98.8835 91.0851C99.1975 91.1254 99.5001 91.2294 99.7725 91.3908C100.045 91.5522 100.282 91.7675 100.468 92.0236C102.777 94.8904 105.243 97.6267 107.855 100.22C109.482 101.839 111.178 103.406 112.961 104.861C113.572 105.454 114.348 105.847 115.188 105.988C116.027 106.13 116.89 106.013 117.662 105.653C118.124 105.437 118.538 105.131 118.881 104.754C119.224 104.376 119.488 103.934 119.658 103.453C119.827 102.972 119.9 102.462 119.871 101.953C119.841 101.444 119.711 100.945 119.487 100.487C118.97 99.5429 118.327 98.6738 117.575 97.9041C114.713 94.6658 111.626 91.6334 108.337 88.8294C107.364 87.9684 106.409 87.159 105.418 86.3411C105.259 86.2186 105.129 86.0626 105.036 85.884C104.944 85.7055 104.892 85.5088 104.885 85.3079C104.903 84.9517 104.836 84.5962 104.689 84.2712C104.542 83.9462 104.319 83.6613 104.039 83.4403C103.759 83.2193 103.43 83.0687 103.08 83.0012C102.73 82.9337 102.368 82.9511 102.026 83.0522C100.958 83.2416 100.304 82.6475 99.5035 82.1912C99.0644 81.9071 99.3915 81.5455 99.6068 81.2785C100.382 80.3229 101.148 79.3672 101.863 78.3684C105.302 73.4931 107.617 67.9157 108.641 62.0379C109.666 56.1601 109.374 50.1283 107.786 44.3769C107.743 44.0326 107.519 43.7398 107.786 43.4557Z" fill="#F3F3F3"/>
<path d="M37.3148 29.3098C37.0737 29.0342 36.7466 29.1548 36.4538 29.1548H21.8689C19.428 29.116 17.0927 28.153 15.334 26.4599C13.6419 24.9907 12.5354 22.9612 12.2173 20.743C11.7848 18.1861 12.3464 15.5607 13.7871 13.4045C15.2278 11.2483 17.4384 9.72462 19.9661 9.14561C20.6608 8.98522 21.3711 8.90146 22.0841 8.89589C43.4709 8.89589 64.8548 8.89589 86.2358 8.89589C86.7593 8.79789 87.2964 8.79789 87.8199 8.89589C87.9663 9.20584 87.7597 9.43833 87.6133 9.67079C86.2637 11.8502 85.4057 14.2977 85.0992 16.8428C84.9959 17.7038 84.7548 17.8587 83.9197 17.5229C80.4272 16.121 76.7552 15.2167 73.0111 14.8367C70.6735 14.6027 68.32 14.571 65.9769 14.742C61.5806 15.0393 57.2636 16.0604 53.2 17.764C49.063 19.4906 45.2492 21.907 41.9211 24.9102C40.509 26.1658 39.1856 27.5179 37.9605 28.9568C37.7797 29.172 37.6334 29.4045 37.3148 29.3098Z" fill="#F3F3F3"/>
<path d="M118.686 8.92188C125.824 8.92188 132.961 8.92188 140.099 8.92188C142.515 8.92618 144.839 9.84964 146.599 11.5048C147.827 12.5803 148.768 13.9443 149.337 15.4739C150.145 17.5031 150.218 19.7506 149.544 21.828C149.047 23.5757 148.089 25.1577 146.771 26.4084C144.98 28.1107 142.613 29.0759 140.142 29.1119C133.088 29.1119 126.03 29.1119 118.97 29.1119C118.781 28.7761 119.031 28.5264 119.168 28.2509C120.733 25.4974 121.561 22.3875 121.575 19.2207C121.588 16.054 120.786 12.9371 119.246 10.1703C119.005 9.86035 118.557 9.50734 118.686 8.92188Z" fill="#F3F3F3"/>
<path d="M118.686 8.92182C119.889 10.7849 120.763 12.841 121.269 15.0003C122.384 19.7168 121.601 24.6823 119.091 28.8277C119.035 28.9393 118.986 29.0543 118.944 29.1721C118.213 30.0331 117.601 31.0318 116.809 31.8669C114.027 34.8704 110.315 36.8506 106.271 37.4891C105.685 37.5839 105.496 37.7733 105.815 38.3501C106.568 39.9982 107.218 41.6919 107.76 43.4213C108.156 45.1433 108.621 46.7619 108.862 48.4839C109.824 54.4633 109.453 60.5812 107.778 66.4009C106.793 69.866 105.326 73.1757 103.421 76.2333C102.326 78.0476 101.07 79.7593 99.6671 81.3475C99.2969 81.7608 99.4002 81.9157 99.8565 82.1654C100.6 82.6347 101.48 82.8381 102.353 82.7423C102.716 82.6846 103.088 82.7122 103.438 82.8228C103.788 82.9335 104.108 83.1241 104.372 83.3797C104.636 83.6353 104.837 83.9489 104.959 84.2955C105.081 84.6421 105.12 85.0123 105.074 85.3769C105.059 85.4971 105.08 85.619 105.133 85.7276C105.187 85.8363 105.271 85.9269 105.375 85.9882C108.574 88.6088 111.637 91.3905 114.554 94.3225C116.086 95.8981 117.584 97.5081 118.953 99.2214C121.011 101.804 120.064 105.248 117.05 106.109C116.281 106.315 115.47 106.314 114.701 106.107C113.932 105.9 113.231 105.494 112.668 104.93C108.089 101.011 103.889 96.6697 100.123 91.9634C99.9878 91.7656 99.8069 91.603 99.5958 91.4892C99.3846 91.3754 99.1493 91.3136 98.9095 91.309C98.5305 91.3031 98.1581 91.2104 97.8206 91.0381C97.4831 90.8657 97.1895 90.6183 96.9626 90.3149C96.7356 90.0114 96.5812 89.66 96.5113 89.2875C96.4413 88.9151 96.4576 88.5316 96.559 88.1664C96.8001 87.1246 96.0682 86.5134 95.7582 85.7213C95.6377 85.4199 95.3622 85.7213 95.2158 85.8676C93.9672 86.9565 92.647 87.9604 91.2639 88.8724C86.2954 92.1837 80.6511 94.3456 74.7418 95.2007C72.1795 95.6009 69.5835 95.7422 66.993 95.6226C59.9408 95.3067 53.0933 93.1547 47.1284 89.3794C41.1635 85.6041 36.2878 80.3366 32.9842 74.098C30.759 69.9518 29.2814 65.446 28.619 60.7873C28.2114 57.803 28.1306 54.7832 28.378 51.7814C28.6023 49.0662 29.0749 46.3774 29.79 43.7485C30.4384 41.693 31.2147 39.6801 32.1146 37.7216C33.3927 35.0536 34.9452 32.5259 36.7467 30.1794C36.9447 29.9125 37.1341 29.6456 37.3235 29.3701C38.1845 28.4316 39.0455 27.4587 39.9064 26.5547C45.1507 21.2319 51.7664 17.4652 59.0203 15.6719C61.2829 15.1253 63.5866 14.7654 65.9081 14.5957C71.4512 14.1736 77.0215 14.9065 82.2667 16.7481C82.8744 16.9374 83.4696 17.1646 84.0489 17.4283C84.6861 17.7469 84.8496 17.4886 84.9099 16.9117C85.1291 14.7769 85.7576 12.7043 86.761 10.8074C87.0796 10.1702 87.467 9.56753 87.82 8.94763C89.1963 6.97716 90.9137 5.26854 92.8912 3.90229C96.0293 1.81239 99.7254 0.718861 103.495 0.764949C107.265 0.811037 110.934 1.99458 114.02 4.16058C115.835 5.46997 117.413 7.08029 118.686 8.92182Z" fill="#B4B4B4"/>
<path d="M93.5197 79.3844C92.7534 80.0043 92.1507 80.7878 91.3931 81.4336C87.3438 84.9014 82.5507 87.3907 77.3849 88.7089C74.0982 89.5756 70.6979 89.9328 67.3028 89.7678C60.1332 89.4709 53.2373 86.9324 47.5864 82.5098C46.3828 81.6065 45.2567 80.6043 44.2199 79.5136C44.1294 79.1431 44.1294 78.7562 44.2199 78.3857C44.5445 77.9422 44.7041 77.3993 44.6711 76.8507C44.6381 76.3021 44.4146 75.7823 44.0391 75.3809C44.1252 74.8729 44.1425 74.3477 44.2716 73.8397C44.5406 73.3442 44.6815 72.7892 44.6815 72.2254C44.6815 71.6615 44.5406 71.1066 44.2716 70.611C44.157 70.1174 44.1279 69.6078 44.1855 69.1043C44.5094 68.6524 44.6835 68.1105 44.6835 67.5546C44.6835 66.9986 44.5094 66.4567 44.1855 66.0048C44.1278 65.5013 44.1569 64.9917 44.2716 64.4981C44.5429 64.0002 44.685 63.4422 44.685 62.8751C44.685 62.3081 44.5429 61.7501 44.2716 61.2522C44.1499 60.7597 44.1178 60.2493 44.1769 59.7455C44.502 59.2941 44.6769 58.7519 44.6769 58.1957C44.6769 57.6395 44.502 57.0973 44.1769 56.6459C44.1191 56.1425 44.1482 55.6328 44.263 55.1392C44.5343 54.646 44.6766 54.0922 44.6766 53.5292C44.6766 52.9663 44.5343 52.4124 44.263 51.9192C44.1252 51.4026 44.1252 50.8774 44.0305 50.3608C44.2333 50.1613 44.3944 49.9234 44.5043 49.661C44.6142 49.3987 44.6709 49.117 44.6709 48.8325C44.6709 48.5481 44.6142 48.2665 44.5043 48.0041C44.3944 47.7417 44.2333 47.5038 44.0305 47.3043C44.0994 46.7877 44.1338 46.2625 44.2458 45.7545C44.5103 45.2653 44.6487 44.7179 44.6487 44.1617C44.6487 43.6056 44.5103 43.0582 44.2458 42.5689C44.0908 42.0782 44.151 41.553 43.9874 41.0622C44.702 40.2615 45.4339 39.4866 46.1485 38.6945C46.6995 38.772 47.2592 38.7892 47.8016 38.8925C48.7915 39.2376 49.8719 39.2192 50.8495 38.8409C51.4191 38.7408 52.0019 38.7408 52.5715 38.8409C53.0308 39.0608 53.537 39.1647 54.0458 39.1437C54.5546 39.1227 55.0506 38.9773 55.4902 38.7203C56.0691 38.7179 56.6465 38.7786 57.2122 38.9012C58.2064 39.1984 59.2658 39.1984 60.26 38.9012C60.8282 38.9012 61.362 38.4707 61.9819 38.6945C62.4243 38.9853 62.9421 39.1402 63.4714 39.1402C64.0008 39.1402 64.5186 38.9853 64.961 38.6945C65.4776 38.772 65.9941 38.815 66.5107 38.8839C67.5144 39.2666 68.6238 39.2666 69.6274 38.8839C70.1961 38.7731 70.7808 38.7731 71.3494 38.8839C71.8173 39.1083 72.3345 39.2102 72.8526 39.18C73.3706 39.1499 73.8725 38.9888 74.3112 38.7117C74.8364 38.7892 75.353 38.8323 75.8782 38.9012C76.8883 39.2972 78.0107 39.2972 79.0208 38.9012C79.5312 38.8711 80.0429 38.8711 80.5533 38.9012C80.818 39.1015 81.1349 39.2211 81.4659 39.2455C81.6445 39.2405 81.8219 39.2749 81.9856 39.3464C82.1494 39.4178 82.2952 39.5245 82.413 39.6588C82.6615 39.9192 82.9938 40.0838 83.3515 40.1237C83.7733 40.401 84.1581 40.7308 84.4966 41.1053C84.605 41.6679 84.8794 42.1851 85.2845 42.5903C85.6897 42.9954 86.207 43.2699 86.7696 43.3783C87.1308 43.7195 87.4621 44.0911 87.7597 44.4889C87.9246 45.0145 88.2132 45.4929 88.6012 45.8839C88.9892 46.2749 89.4653 46.5671 89.9897 46.7361C90.446 47.003 90.7731 47.4421 91.238 47.7003C91.1855 47.9182 91.1947 48.1465 91.2646 48.3594C91.3346 48.5723 91.4626 48.7615 91.6342 48.9057C92.1426 49.4778 92.7843 49.9155 93.5024 50.18C93.6224 50.6226 93.6224 51.0891 93.5024 51.5317C93.2356 52.0311 93.0961 52.5885 93.0961 53.1547C93.0961 53.7208 93.2356 54.2783 93.5024 54.7776C93.6427 55.2669 93.6808 55.7798 93.6143 56.2844C93.3008 56.7265 93.1273 57.2527 93.1166 57.7947C93.1058 58.3367 93.2583 58.8693 93.5541 59.3236C93.6377 59.8649 93.6172 60.4172 93.4938 60.9508C93.2292 61.4292 93.0904 61.9669 93.0904 62.5135C93.0904 63.0602 93.2292 63.5979 93.4938 64.0762C93.6026 64.3276 93.6587 64.5987 93.6587 64.8726C93.6587 65.1466 93.6026 65.4176 93.4938 65.669C92.9083 66.4525 93.1667 67.3393 93.2097 68.2003C93.2097 68.45 93.4939 68.5275 93.6661 68.6653C93.6661 69.2335 93.5025 69.7673 93.4767 70.3269C93.2214 70.8096 93.0944 71.3497 93.108 71.8955C93.1215 72.4412 93.2752 72.9744 93.5541 73.4437C93.6477 73.9935 93.6063 74.5578 93.4336 75.0881C93.1978 75.5544 93.0866 76.0738 93.1107 76.5957C93.1348 77.1177 93.2935 77.6246 93.5714 78.0671C93.6084 78.5067 93.591 78.9491 93.5197 79.3844Z" fill="#F3F3F3"/>
<path d="M52.4939 38.8495C52.2539 38.9499 51.9963 39.0016 51.7362 39.0016C51.4761 39.0016 51.2185 38.9499 50.9785 38.8495C49.9108 38.6471 48.8104 38.7002 47.7671 39.0044C47.2247 39.0044 46.6565 39.1077 46.1915 38.7031C45.6334 38.7809 45.119 39.0485 44.7348 39.4608C44.3507 39.8732 44.1203 40.4052 44.0822 40.9675C44.5471 41.4152 44.3232 42.0006 44.3749 42.5258C44.0003 43.5695 44.0003 44.7109 44.3749 45.7545C44.3146 46.2797 44.5643 46.8652 44.0736 47.3129C44.1769 48.3176 44.1769 49.3302 44.0736 50.3349C44.5643 50.7826 44.3146 51.3595 44.3749 51.8847C44.0004 52.9313 44.0004 54.0754 44.3749 55.122C44.3232 55.6213 44.504 56.1465 44.2199 56.6287C44.0907 57.6636 44.0907 58.7105 44.2199 59.7454C44.504 60.219 44.3232 60.7442 44.3749 61.2436C44.0004 62.2902 44.0004 63.4342 44.3749 64.4808C44.3232 64.9888 44.504 65.514 44.2199 65.9962C44.0907 67.0282 44.0907 68.0723 44.2199 69.1043C44.504 69.5778 44.3232 70.1031 44.3749 70.6024C44.0004 71.649 44.0004 72.7931 44.3749 73.8397C44.3146 74.3649 44.5729 74.9504 44.0736 75.3895C44.2285 76.4054 44.0735 77.4472 44.2199 78.4632C44.3358 78.6137 44.3986 78.7984 44.3986 78.9884C44.3986 79.1784 44.3358 79.363 44.2199 79.5136C42.1695 77.5189 40.3972 75.2571 38.9507 72.7893C36.8226 69.2328 35.3636 65.3169 34.6458 61.235C34.0344 57.7899 33.9387 54.2731 34.3617 50.7999C34.8616 46.556 36.1616 42.4454 38.193 38.6859C41.2849 32.8738 45.9714 28.0648 51.7018 24.8241C55.476 22.6537 59.6326 21.2302 63.945 20.6311C70.5572 19.6895 77.3007 20.673 83.3686 23.4638C84.0404 23.7288 84.6468 24.1361 85.1462 24.6578C85.6455 25.1795 86.0261 25.8031 86.2616 26.4858C87.5333 29.7253 89.7654 32.4984 92.6586 34.4326C92.8653 34.5704 93.0633 34.7254 93.3216 34.9062C92.43 35.6041 91.4625 36.1991 90.4373 36.6798C90.2996 36.7401 90.1446 36.7831 90.0068 36.852C89.8691 36.9209 89.5161 37.0845 89.585 37.403C89.6538 37.7216 89.938 37.7819 90.2393 37.7819C92.2885 37.7819 94.3376 37.7819 96.3781 37.7819C97.2391 37.7819 98.2551 37.4719 98.9611 37.9024C99.6671 38.3329 99.8822 39.3919 100.27 40.1926C102.294 44.4791 103.421 49.1343 103.581 53.8722C103.741 58.6102 102.931 63.3307 101.2 67.744C99.5232 72.129 96.9146 76.0977 93.5541 79.3758C93.4298 79.166 93.3643 78.9266 93.3643 78.6827C93.3643 78.4388 93.4298 78.1995 93.5541 77.9896C93.3905 76.9564 93.554 75.9147 93.3991 74.8901C93.2961 74.3731 93.347 73.8373 93.5455 73.349C93.3905 72.2986 93.5971 71.2309 93.3818 70.1891C93.3011 69.9161 93.2863 69.6278 93.3387 69.3479C93.3911 69.068 93.5092 68.8045 93.6832 68.5791C93.4902 68.278 93.4193 67.9147 93.4851 67.5632C93.4851 66.883 93.4851 66.2028 93.3991 65.5226C93.2871 65.0233 93.5971 64.5239 93.3991 64.0245C93.5454 62.9619 93.5454 61.8843 93.3991 60.8217C93.5454 60.3137 93.1753 59.7454 93.5713 59.2633C93.4551 58.2449 93.4551 57.2166 93.5713 56.1982C93.4113 55.7012 93.3613 55.1753 93.4249 54.6571C93.5713 53.6002 93.5713 52.5283 93.4249 51.4714V49.8873C92.8136 49.0263 91.9785 48.3977 91.2983 47.6056C90.6526 47.6056 90.4373 47.0804 90.0584 46.6758C89.5082 45.7254 88.7187 44.9358 87.7683 44.3856C87.3723 44.0756 86.9072 43.8087 86.8125 43.2749C86.1516 42.4346 85.3945 41.6747 84.5568 41.0105C84.0144 40.89 83.7475 40.4509 83.4462 40.0634C83.3493 39.7976 83.1995 39.5542 83.0059 39.348C82.8123 39.1417 82.5789 38.9769 82.3197 38.8634C82.0606 38.7499 81.781 38.6902 81.4981 38.6878C81.2153 38.6854 80.9349 38.7404 80.6738 38.8495C80.4369 38.9664 80.1761 39.0272 79.9119 39.0272C79.6476 39.0272 79.3869 38.9664 79.1499 38.8495C78.0822 38.6471 76.9817 38.7002 75.9384 39.0044C75.4219 38.927 74.8278 39.2197 74.3973 38.6945C73.3727 38.8581 72.3309 38.6945 71.3064 38.8495C70.8198 39.0431 70.2776 39.0431 69.791 38.8495C68.7233 38.6471 67.6228 38.7002 66.5795 39.0044C66.0543 38.927 65.4603 39.2197 65.0298 38.6945C64.0169 38.8064 62.9948 38.8064 61.9819 38.6945C61.5013 38.9309 60.9664 39.0349 60.4322 38.9958C59.393 38.613 58.2514 38.613 57.2121 38.9958C56.6955 38.8839 56.1014 39.1766 55.6623 38.6859C54.5603 38.8667 53.5012 38.6687 52.4939 38.8495Z" fill="white"/>
<path d="M92.0904 36.8693C92.8481 36.3183 93.4767 35.8963 94.0707 35.4314C94.6648 34.9665 94.682 34.7082 94.0707 34.2949C91.9924 33.0293 90.2008 31.3444 88.8103 29.3475C87.4197 27.3507 86.4608 25.0858 85.9947 22.6975C85.0774 18.5423 85.7729 14.1937 87.9406 10.5319C89.2553 8.21795 91.0766 6.23148 93.268 4.72125C95.4593 3.21101 97.9639 2.21617 100.594 1.81118C103.225 1.40619 105.913 1.60154 108.457 2.38266C111.001 3.16378 113.335 4.5104 115.285 6.32166C118.374 9.07331 120.344 12.8634 120.821 16.972C121.153 19.3303 120.989 21.7318 120.342 24.0235C119.694 26.3152 118.576 28.4469 117.059 30.2828C114.399 33.6417 110.596 35.9036 106.374 36.6368C105.571 36.7879 104.755 36.8657 103.938 36.8693H92.1335H92.0904Z" fill="white"/>
<path d="M85.1079 23.3691C83.2134 22.375 81.2266 21.5677 79.1757 20.9584C76.2921 20.1022 73.3133 19.6077 70.3077 19.4861C65.9795 19.2795 61.6499 19.863 57.5308 21.2081C54.5732 22.1976 51.7614 23.5788 49.1706 25.3149C46.9758 26.7547 44.9536 28.4418 43.1437 30.3431C38.2354 35.4275 34.9713 41.8717 33.7763 48.8369C33.3397 51.1697 33.1463 53.5415 33.1994 55.9142C33.3907 62.1407 35.2007 68.21 38.4511 73.5243C41.7015 78.8385 46.2803 83.2143 51.7363 86.2207C55.5948 88.3799 59.8337 89.7744 64.2205 90.3276C66.9513 90.6792 69.714 90.7081 72.4515 90.4136C81.519 89.5094 89.8872 85.1388 95.8099 78.2136C98.9752 74.5831 101.358 70.3391 102.81 65.7466C103.568 63.3687 104.062 60.9144 104.282 58.4282C104.729 53.8506 104.293 49.2297 102.999 44.8162C102.364 42.6105 101.498 40.4779 100.416 38.4535C100.123 37.9111 100.115 37.6959 100.829 37.7217C101.897 37.7217 102.973 37.7217 104.049 37.7217C104.232 37.6994 104.417 37.7401 104.574 37.8372C104.73 37.9342 104.849 38.0818 104.91 38.2555C106.429 41.6017 107.5 45.1334 108.096 48.7595C108.504 51.3209 108.657 53.9166 108.552 56.5083C108.412 59.9231 107.833 63.3057 106.83 66.5731C105.501 70.9559 103.411 75.0709 100.657 78.7302C94.3491 87.1785 84.9496 92.7822 74.5179 94.3139C66.6592 95.4331 58.6451 94.1893 51.4953 90.7408C43.5348 86.8563 37.0858 80.4436 33.1564 72.5053C31.273 68.6791 30.0199 64.5739 29.4455 60.3482C29.1626 58.459 29.0331 56.55 29.0581 54.6399C29.1167 49.1716 30.2885 43.7726 32.502 38.7721C34.2656 34.8865 36.6275 31.3014 39.5018 28.1476C42.5092 24.8708 46.0417 22.1181 49.9541 20.0027C53.9966 17.8116 58.3953 16.3541 62.9463 15.6978C69.9002 14.7311 76.9857 15.5549 83.5323 18.0913C84.6947 18.539 84.7291 18.5218 84.7033 19.8132C84.6774 21.1047 85.0218 22.1121 85.1079 23.3691Z" fill="#E6E6E5"/>
<path d="M119.254 101.951C119.275 102.558 119.13 103.16 118.836 103.692C118.542 104.224 118.11 104.667 117.584 104.973C117.067 105.302 116.464 105.471 115.852 105.459C115.239 105.447 114.644 105.254 114.14 104.904C113.05 104.15 112.022 103.309 111.066 102.39C107.382 99.0126 103.962 95.357 100.838 91.4554C100.33 90.8183 99.8565 90.1553 98.7975 90.3792C98.1259 90.517 97.7213 89.9315 97.4372 89.3374C97.2902 89.058 97.2392 88.7381 97.2921 88.4269C97.345 88.1157 97.4989 87.8305 97.7299 87.6154C98.9267 86.3498 100.149 85.1186 101.424 83.9305C101.691 83.706 102.022 83.571 102.371 83.5446C102.719 83.5182 103.067 83.6015 103.365 83.7831C103.663 83.9646 103.897 84.2351 104.034 84.5565C104.171 84.8779 104.203 85.2341 104.127 85.5749C103.955 86.169 104.385 86.3756 104.695 86.6167C107.115 88.5367 109.431 90.5772 111.652 92.7125C114.145 95.014 116.449 97.5133 118.54 100.186C118.893 100.721 119.135 101.321 119.254 101.951Z" fill="#E6E6E5"/>
<path d="M100.451 83.6722L100.227 83.9218C99.3658 84.7828 98.5651 85.5663 97.7472 86.4101C97.4458 86.72 97.2478 86.7028 97.067 86.3239C96.8862 85.9451 96.6967 85.463 96.4987 85.0756C96.3868 84.8345 96.4988 84.6967 96.6882 84.5503L97.7644 83.4741C97.9051 83.2645 98.0935 83.0914 98.3142 82.969C98.5349 82.8466 98.7816 82.7783 99.0338 82.7699C99.2861 82.7615 99.5367 82.8132 99.7651 82.9206C99.9935 83.0281 100.193 83.1883 100.347 83.388C100.39 83.4569 100.485 83.5 100.451 83.6722Z" fill="#E6E6E5"/>
<path d="M68.844 62.9569C68.5426 63.0086 68.4135 63.2238 68.2585 63.3788C66.3357 65.2902 64.4185 67.2073 62.5072 69.1301L62.18 69.4487C61.9475 69.6553 61.6979 69.9394 61.3879 69.6553C61.078 69.3712 61.3449 69.0526 61.5859 68.7943C63.5748 66.8055 65.5464 64.7994 67.5611 62.8364C68.0346 62.3714 68.1207 62.1132 67.5611 61.6052C65.5895 59.7024 63.6781 57.748 61.7409 55.8108C61.6089 55.6901 61.4853 55.5607 61.3707 55.4233C61.2763 55.3361 61.2191 55.2158 61.2111 55.0876C61.203 54.9593 61.2448 54.8329 61.3276 54.7346C61.5601 54.5021 61.8012 54.6484 61.9992 54.8465L63.7212 56.5684C65.1848 58.0321 66.6743 59.4786 68.1035 60.9767C68.5771 61.4588 68.844 61.5277 69.352 60.9767C71.272 58.9964 73.2522 57.0592 75.198 55.1048L75.5855 54.7346C75.6548 54.6577 75.751 54.6103 75.8542 54.6022C75.9574 54.5941 76.0598 54.6258 76.1403 54.6909C76.2208 54.756 76.2733 54.8494 76.287 54.952C76.3007 55.0546 76.2746 55.1586 76.214 55.2425C76.0893 55.4346 75.9419 55.611 75.7749 55.7677C73.8032 57.7394 71.8402 59.7196 69.8513 61.6741C69.4553 62.0615 69.4122 62.2681 69.8513 62.6814C71.8488 64.6272 73.8119 66.6161 75.7749 68.5877C75.945 68.7431 76.098 68.9163 76.2312 69.1043C76.279 69.1807 76.2993 69.2711 76.2887 69.3606C76.2782 69.4501 76.2374 69.5333 76.1732 69.5965C76.109 69.6597 76.0251 69.6991 75.9355 69.7082C75.8458 69.7174 75.7558 69.6957 75.6802 69.6467C75.478 69.4921 75.2853 69.3253 75.1033 69.1474C73.169 67.213 71.2346 65.2787 69.3003 63.3444C69.1625 63.2324 68.9989 63.0947 68.844 62.9569Z" fill="#B4B4B4"/>
<path d="M44.375 45.7546C44.1598 45.6512 43.9531 45.5135 43.9445 45.2638C43.9445 44.5062 43.9445 43.7399 43.9445 42.9822C43.941 42.9243 43.9493 42.8662 43.9688 42.8115C43.9883 42.7569 44.0187 42.7067 44.0581 42.6641C44.0975 42.6215 44.1451 42.5873 44.1981 42.5635C44.2511 42.5398 44.3083 42.5269 44.3664 42.5259C44.5816 42.6378 44.7883 42.7842 44.7883 43.0339C44.7883 43.7743 44.7883 44.5148 44.7883 45.2552C44.7969 45.4963 44.5902 45.6685 44.375 45.7546Z" fill="#B9B9B9"/>
<path d="M44.3749 64.4809C44.3266 64.4906 44.2768 64.4906 44.2285 64.4809C43.7033 63.9471 43.8067 61.7688 44.3749 61.2781C44.4928 61.3241 44.5958 61.4012 44.6732 61.5013C44.7505 61.6014 44.7993 61.7207 44.814 61.8463C44.814 62.5437 44.814 63.2497 44.814 63.9471C44.7961 64.0675 44.7457 64.1808 44.6684 64.2748C44.591 64.3689 44.4896 64.4401 44.3749 64.4809Z" fill="#B9B9B9"/>
<path d="M44.0736 50.335C43.8326 49.342 43.8326 48.3059 44.0736 47.3129C44.573 47.201 44.7968 47.4421 44.814 47.907C44.814 48.5154 44.814 49.1267 44.814 49.7409C44.8054 50.2058 44.573 50.4469 44.0736 50.335Z" fill="#B9B9B9"/>
<path d="M44.3749 55.1393C44.1424 55.0187 43.9358 54.8638 43.9358 54.571C43.9358 53.8737 43.9358 53.1676 43.9358 52.4616C43.9358 52.1775 44.1424 52.0225 44.3749 51.902C44.4951 51.9493 44.5998 52.0291 44.6774 52.1325C44.7549 52.2359 44.8022 52.3587 44.814 52.4874C44.814 53.1762 44.814 53.865 44.814 54.5538C44.8042 54.6831 44.7577 54.8069 44.6799 54.9106C44.6021 55.0144 44.4963 55.0937 44.3749 55.1393Z" fill="#B9B9B9"/>
<path d="M44.2199 59.7454C44.065 59.6421 43.91 59.513 43.9359 59.3236C44.0736 58.4626 43.5914 57.4725 44.2199 56.6287C44.2971 56.618 44.3757 56.6248 44.4498 56.6488C44.5239 56.6727 44.5917 56.7131 44.648 56.767C44.7043 56.8208 44.7477 56.8866 44.775 56.9596C44.8022 57.0326 44.8127 57.1108 44.8055 57.1884C44.8055 57.8513 44.8055 58.5143 44.8055 59.1772C44.8124 59.2551 44.8019 59.3335 44.7747 59.4068C44.7474 59.4801 44.7042 59.5464 44.6481 59.6009C44.592 59.6553 44.5245 59.6966 44.4504 59.7216C44.3764 59.7466 44.2976 59.7547 44.2199 59.7454Z" fill="#B9B9B9"/>
<path d="M44.2199 69.1043C43.6431 68.5016 44.0047 67.7612 43.9358 67.0896C43.9358 66.7194 43.7722 66.2286 44.2199 65.9962C44.2966 65.984 44.3751 65.9895 44.4493 66.0124C44.5235 66.0352 44.5915 66.0747 44.648 66.1279C44.7045 66.1811 44.7481 66.2466 44.7754 66.3193C44.8027 66.392 44.813 66.47 44.8054 66.5472C44.8054 67.2188 44.8054 67.8817 44.8054 68.5447C44.8127 68.6223 44.8022 68.7004 44.775 68.7734C44.7477 68.8464 44.7043 68.9123 44.648 68.9661C44.5917 69.0199 44.5239 69.0603 44.4498 69.0842C44.3757 69.1082 44.2971 69.115 44.2199 69.1043Z" fill="#B9B9B9"/>
<path d="M44.2199 78.4632C44.1385 78.4233 44.0692 78.3624 44.0192 78.2867C43.9692 78.211 43.9405 78.1233 43.9358 78.0327C43.8525 77.1496 43.8989 76.2591 44.0736 75.3895C44.5127 75.3034 44.7882 75.4756 44.8054 75.9233C44.8054 76.5834 44.8054 77.2463 44.8054 77.9122C44.8113 77.989 44.7999 78.0662 44.772 78.1381C44.7442 78.21 44.7006 78.2747 44.6444 78.3276C44.5883 78.3804 44.521 78.42 44.4476 78.4435C44.3741 78.467 44.2963 78.4737 44.2199 78.4632Z" fill="#B9B9B9"/>
<path d="M44.3749 73.8397C44.1424 73.7191 43.9358 73.5642 43.9358 73.2801C43.9358 72.574 43.9358 71.8766 43.9358 71.1706C43.9477 71.0441 43.9952 70.9235 44.0729 70.8229C44.1507 70.7223 44.2554 70.6459 44.3749 70.6024C45.0206 71.274 45.0206 73.2714 44.3749 73.8397Z" fill="#B9B9B9"/>
<path d="M84.4966 41.0106C85.0034 41.2206 85.4636 41.5288 85.8508 41.9174C86.2379 42.306 86.5443 42.7674 86.7524 43.275C86.7325 43.2789 86.7121 43.2789 86.6922 43.275C85.5471 43.6107 85.3748 42.414 84.7033 42.0007C84.6138 41.9597 84.5353 41.8982 84.4739 41.8213C84.4126 41.7444 84.3701 41.6541 84.35 41.5578C84.3299 41.4615 84.3328 41.3618 84.3582 41.2667C84.3837 41.1717 84.4311 41.084 84.4966 41.0106Z" fill="#B6B6B6"/>
<path d="M91.2123 47.6057C92.1516 48.1132 92.8986 48.9147 93.3389 49.8873C93.1409 50.0165 92.8998 50.1714 92.7018 50.0078C92.0535 49.4936 91.4747 48.8974 90.9798 48.2342C90.7388 47.9673 91.0229 47.7779 91.2123 47.6057Z" fill="#B6B6B6"/>
<path d="M87.6821 44.3856C87.8307 44.344 87.9887 44.3498 88.1338 44.4023C88.2789 44.4548 88.4039 44.5513 88.4915 44.6783C88.9737 45.3499 89.9724 45.6512 89.9724 46.6758C89.8777 46.7188 89.783 46.7963 89.6883 46.7877C89.0598 46.7791 87.5788 45.0055 87.6821 44.3856Z" fill="#B6B6B6"/>
<path d="M80.5878 38.8495C80.8139 38.6336 81.1039 38.4968 81.4144 38.4595C81.7248 38.4223 82.0389 38.4866 82.3097 38.6429C82.6171 38.727 82.8865 38.9138 83.0729 39.1723C83.2593 39.4308 83.3516 39.7453 83.3344 40.0635C82.9297 40.3476 82.6541 40.0635 82.413 39.8138C82.2739 39.6318 82.0892 39.4897 81.8776 39.402C81.6659 39.3143 81.4349 39.2841 81.2078 39.3145C80.8892 39.3661 80.6222 39.2456 80.5878 38.8495Z" fill="#B5B5B5"/>
<path d="M44.0822 40.9675C44.0353 40.6729 44.056 40.3714 44.1431 40.0861C44.2301 39.8007 44.381 39.539 44.5844 39.3207C44.7877 39.1024 45.0382 38.9333 45.3167 38.8263C45.5952 38.7193 45.8944 38.6772 46.1916 38.7031C46.2239 38.7795 46.2394 38.862 46.237 38.945C46.2345 39.0279 46.2141 39.1093 46.1774 39.1837C46.1406 39.2581 46.0882 39.3236 46.0238 39.3759C45.9594 39.4282 45.8845 39.466 45.8042 39.4866C45.5633 39.5675 45.3472 39.7089 45.1768 39.8974C45.0064 40.0859 44.8875 40.3151 44.8313 40.5629C44.7452 41.0192 44.4438 41.0364 44.0822 40.9675Z" fill="#B6B6B6"/>
<path d="M75.8868 39.0045C75.9643 38.8064 76.0848 38.5912 76.2829 38.5826C77.1422 38.4823 78.0112 38.4997 78.8658 38.6342C78.9433 38.6342 79.0035 38.772 79.0638 38.8495C79.0638 39.0733 78.952 39.2886 78.7195 39.2886C77.8585 39.2886 76.9975 39.2886 76.1968 39.2886C76.0762 39.28 75.9643 39.0992 75.8868 39.0045Z" fill="#B5B5B5"/>
<path d="M66.4935 39.0045C66.571 38.8065 66.6916 38.5912 66.8897 38.5826C67.749 38.4824 68.618 38.4998 69.4726 38.6343C69.5501 38.6343 69.6017 38.772 69.6706 38.8495C69.7395 38.927 69.6103 39.125 69.5242 39.1853C68.5187 39.4299 67.4628 39.367 66.4935 39.0045Z" fill="#B5B4B5"/>
<path d="M93.3302 51.4801C93.4421 51.6006 93.6574 51.6437 93.6574 51.8589C93.6574 52.6596 93.6574 53.4603 93.6574 54.2697C93.6574 54.4677 93.511 54.571 93.3561 54.6657C93.2011 54.7604 93.1839 54.6657 93.1408 54.5968C92.6587 54.1491 92.805 51.8848 93.3302 51.4801Z" fill="#B4B3B4"/>
<path d="M57.126 39.0045C57.1766 38.8581 57.2741 38.7325 57.4032 38.6469C57.5324 38.5613 57.6861 38.5206 57.8407 38.531C58.4778 38.531 59.1149 38.531 59.752 38.531C60.0792 38.531 60.2944 38.6515 60.346 38.9959C60.3058 39.0881 60.2396 39.1665 60.1555 39.2215C60.0714 39.2766 59.9731 39.3059 59.8726 39.3059H57.6082C57.3671 39.3231 57.2723 39.1251 57.126 39.0045Z" fill="#B4B4B5"/>
<path d="M93.3302 60.8303C93.4421 60.9681 93.6488 61.0025 93.6488 61.2264C93.6488 62.0271 93.6488 62.8278 93.6488 63.6371C93.6393 63.7243 93.6062 63.8072 93.5531 63.877C93.5 63.9468 93.4289 64.0008 93.3475 64.0332C93.2719 64.0247 93.1987 64.0012 93.1322 63.9643C92.6587 63.4994 92.805 61.2522 93.3302 60.8303Z" fill="#B4B4B4"/>
<path d="M93.3303 70.1978C93.4336 70.3011 93.6316 70.4044 93.623 70.5163C93.7525 71.4634 93.7087 72.4261 93.4938 73.3575C93.1752 73.3575 92.9084 73.3059 92.8998 72.9443C92.8998 72.1866 92.8998 71.4289 92.8998 70.6713C92.9093 70.5559 92.9567 70.447 93.0345 70.3614C93.1124 70.2758 93.2164 70.2182 93.3303 70.1978Z" fill="#B4B4B4"/>
<path d="M47.7672 39.0045C47.8447 38.8065 47.9653 38.5912 48.1633 38.5826C49.0227 38.4824 49.8916 38.4998 50.7463 38.6343C50.8238 38.6343 50.8754 38.772 50.9443 38.8495C51.0132 38.927 50.8754 39.125 50.7893 39.1853C49.7868 39.4319 48.7331 39.3689 47.7672 39.0045Z" fill="#B4B4B4"/>
<path d="M71.2203 38.8495C71.3322 38.7548 71.4442 38.574 71.5561 38.574C72.4746 38.4545 73.4068 38.4953 74.3113 38.6945C74.3113 39.0217 74.3113 39.323 73.8722 39.323H71.7198C71.6551 39.3278 71.5901 39.3191 71.5291 39.2973C71.4681 39.2756 71.4123 39.2413 71.3653 39.1967C71.3182 39.1521 71.2811 39.0982 71.2562 39.0384C71.2312 38.9786 71.2189 38.9143 71.2203 38.8495Z" fill="#B4B4B4"/>
<path d="M61.8959 38.7031C62.8951 38.4419 63.9447 38.4419 64.9438 38.7031C64.9955 39.0905 64.9437 39.3488 64.4272 39.3316C63.7728 39.3316 63.1099 39.3316 62.447 39.3316C62.0165 39.323 61.8357 39.1249 61.8959 38.7031Z" fill="#B4B4B4"/>
<path d="M93.4939 56.2069C93.7653 57.2106 93.7653 58.2683 93.4939 59.272C93.0978 59.272 92.8654 59.1429 92.874 58.7124V56.7579C92.8826 56.3447 93.1064 56.1638 93.4939 56.2069Z" fill="#B4B4B4"/>
<path d="M52.4939 38.8495C52.6058 38.7548 52.7177 38.574 52.8297 38.574C53.7452 38.4547 54.6747 38.4955 55.5763 38.6945C55.5763 39.0217 55.5762 39.323 55.1371 39.323C54.4225 39.323 53.7079 39.323 52.9933 39.323C52.9287 39.3279 52.8637 39.3191 52.8027 39.2973C52.7416 39.2756 52.6858 39.2414 52.6388 39.1968C52.5918 39.1522 52.5547 39.0982 52.5297 39.0384C52.5048 38.9786 52.4925 38.9143 52.4939 38.8495Z" fill="#B4B4B4"/>
<path d="M93.3475 65.5312C93.6489 65.6776 93.6747 65.9531 93.6661 66.2373C93.6661 67.0208 93.6661 67.8042 93.6661 68.5877C93.1409 68.7169 92.8912 68.5102 92.9084 67.9592C92.9256 67.4082 92.9084 66.7883 92.9084 66.2373C92.874 65.8498 92.9601 65.5915 93.3475 65.5312Z" fill="#B4B4B4"/>
<path d="M93.3475 74.9418C93.4336 75.0279 93.5971 75.114 93.6057 75.2001C93.7567 76.1448 93.7216 77.11 93.5024 78.0413C93.158 78.0413 92.8912 77.9552 92.8825 77.5506C92.8825 76.8532 92.8825 76.1472 92.8825 75.4412C92.8791 75.3775 92.8885 75.3139 92.9102 75.254C92.9319 75.1941 92.9654 75.1392 93.0088 75.0926C93.0522 75.046 93.1045 75.0086 93.1627 74.9827C93.2209 74.9567 93.2838 74.9428 93.3475 74.9418Z" fill="#B4B4B4"/>
<path d="M101.329 22.1293C101.226 20.3385 102.095 18.9695 103.102 17.6694C103.718 16.9565 104.26 16.1835 104.721 15.362C105.049 14.8547 105.219 14.261 105.208 13.6567C105.198 13.0525 105.007 12.4651 104.661 11.9697C103.877 10.928 102.655 10.971 101.501 11.1088C100.888 11.1661 100.297 11.3699 99.7791 11.7028C99.4605 11.9181 99.3314 11.8923 99.1851 11.5306C98.5307 9.93782 98.5306 9.93782 100.184 9.37819C101.89 8.72282 103.784 8.7506 105.47 9.4557C106.38 9.90269 107.101 10.6602 107.502 11.5916C107.903 12.523 107.958 13.5671 107.657 14.5355C107.284 15.8667 106.579 17.0814 105.608 18.0655C104.953 18.6758 104.438 19.4203 104.098 20.248C103.758 21.0756 103.6 21.967 103.636 22.8612C103.636 23.3691 103.473 23.5672 102.973 23.5069H102.749C101.32 23.5069 101.32 23.5069 101.329 22.1293Z" fill="#E6E6E5"/>
<path d="M102.396 29.4906C102.158 29.5185 101.917 29.4911 101.691 29.4104C101.465 29.3298 101.261 29.1981 101.094 29.0256C100.928 28.8532 100.803 28.6446 100.73 28.4161C100.657 28.1876 100.638 27.9454 100.674 27.7084C100.661 27.4703 100.694 27.2319 100.774 27.0071C100.853 26.7823 100.977 26.5756 101.137 26.3992C101.298 26.2228 101.491 26.0801 101.708 25.9797C101.924 25.8792 102.158 25.823 102.396 25.8142C102.882 25.8496 103.338 26.0619 103.678 26.4111C104.017 26.7602 104.217 27.2218 104.239 27.7084C104.248 27.95 104.206 28.1909 104.116 28.4153C104.026 28.6397 103.889 28.8425 103.715 29.0106C103.542 29.1788 103.334 29.3084 103.107 29.3911C102.88 29.4738 102.638 29.5077 102.396 29.4906Z" fill="#E6E6E5"/>
</g>
<defs>
<clipPath id="clip0_7_4135">
<rect width="150" height="108.57" fill="white" transform="translate(0 0.733887)"/>
</clipPath>
</defs>
</svg>
