<svg width="44" height="44" viewBox="0 0 44 44" fill="none" xmlns="http://www.w3.org/2000/svg">
<rect width="44" height="44" rx="22" fill="#019B83" fill-opacity="0.08"/>
<path fill-rule="evenodd" clip-rule="evenodd" d="M27.5227 17.396V18.9293C29.2451 19.467 30.5 21.0261 30.5 22.8884V27.8253C30.5 30.1308 28.5886 32 26.2322 32H17.7688C15.4114 32 13.5 30.1308 13.5 27.8253V22.8884C13.5 21.0261 14.7559 19.467 16.4773 18.9293V17.396C16.4874 14.4148 18.9567 12 21.9848 12C25.0535 12 27.5227 14.4148 27.5227 17.396ZM22.0051 13.739C24.0678 13.739 25.7445 15.3787 25.7445 17.396V18.7137H18.2555V17.3761C18.2657 15.3688 19.9423 13.739 22.0051 13.739ZM22.8891 26.4549C22.8891 26.9419 22.4928 27.3294 21.9949 27.3294C21.5072 27.3294 21.1109 26.9419 21.1109 26.4549V24.2488C21.1109 23.7718 21.5072 23.3843 21.9949 23.3843C22.4928 23.3843 22.8891 23.7718 22.8891 24.2488V26.4549Z" fill="url(#paint0_linear_1_3457)"/>
<defs>
<linearGradient id="paint0_linear_1_3457" x1="30.5" y1="32" x2="9.82665" y2="26.9051" gradientUnits="userSpaceOnUse">
<stop stop-color="#019B83"/>
<stop offset="1" stop-color="#18C6AB"/>
</linearGradient>
</defs>
</svg>
