<svg width="342" height="207" viewBox="0 0 342 207" fill="none" xmlns="http://www.w3.org/2000/svg">
<g clip-path="url(#clip0_7_978)">
<path d="M334.36 99.7162C332.398 133.902 320.62 167.113 310.433 190.052" stroke="#CEDBED" stroke-width="2.13" stroke-miterlimit="10"/>
<path d="M331.342 94.5995C330.323 130.599 317.612 166.131 306.927 189.944" stroke="#CEDBED" stroke-width="2.13" stroke-miterlimit="10"/>
<path d="M328.168 88.0669C328.656 126.163 314.814 164.678 303.518 189.617" stroke="#CEDBED" stroke-width="2.13" stroke-miterlimit="10"/>
<path d="M36.2738 189.714C29.6474 175.78 15.6494 144.758 9.12481 118.434C8.48146 115.839 7.91854 113.184 7.43604 110.491" stroke="#CEDBED" stroke-width="2.13" stroke-miterlimit="10"/>
<path d="M39.7263 189.419C33.3947 176.193 18.9088 144.436 12.2717 117.646C11.1995 113.328 10.3578 108.85 9.75195 104.291" stroke="#CEDBED" stroke-width="2.13" stroke-miterlimit="10"/>
<path d="M43.3024 189.381C37.4265 177.212 22.2276 144.361 15.4136 116.868C13.9607 111.017 12.9421 104.86 12.3684 98.6221" stroke="#CEDBED" stroke-width="2.13" stroke-miterlimit="10"/>
<path d="M48.5454 192.707C48.5454 192.707 26.9292 149.853 18.5604 116.091C9.10329 77.9462 16.1157 14.449 73.2712 16.3637C132.501 18.3482 181.728 17.9835 213.064 10.9574C244.4 3.93139 295.728 -6.68812 316.802 45.1061C337.872 96.9004 313.2 161.492 298.521 192.707H48.5454Z" fill="#CEDBED"/>
<path d="M229.957 192.707C224.633 125.214 185.443 122.87 185.443 122.87C171.102 79.5981 140.179 72.5077 126.518 71.5531C122.589 71.2795 119.168 68.8821 117.442 65.3423C109.497 49.0483 92.8449 48.6728 83.9292 49.8045C80.2944 50.2658 76.6863 48.8766 74.2845 46.1038C60.4527 30.1262 42.5678 31.0756 30.2317 34.5349C13.2368 55.8276 12.4219 91.3064 18.5658 116.091C26.9346 149.853 48.5508 192.707 48.5508 192.707H229.957Z" fill="url(#paint0_linear_7_978)"/>
<path d="M323.268 68.4261C319.022 66.2647 313.323 64.6289 305.855 64.7522C302.869 64.8005 300.022 63.3685 298.323 60.912C291.262 50.6948 276.792 43.9047 263.073 50.9683C260.778 52.1483 258.103 52.3413 255.691 51.4135C246.228 47.7878 221.551 41.9685 207.606 72.3414C206.212 75.3825 203.296 77.4313 199.961 77.6726C191.523 78.2841 175.316 83.8727 167.66 116.16C160.02 148.389 163.548 178.419 166.121 192.701H298.516C311.055 166.034 330.881 115.013 323.257 68.4208L323.268 68.4261Z" fill="url(#paint1_linear_7_978)"/>
<path d="M204.593 196.08C245.45 196.08 278.572 195.151 278.572 194.004C278.572 192.858 245.45 191.929 204.593 191.929C163.736 191.929 130.614 192.858 130.614 194.004C130.614 195.151 163.736 196.08 204.593 196.08Z" fill="#CEDBED"/>
<path d="M4.59985 151.768C4.59985 151.768 12.3253 168.764 25.4816 179.759" stroke="#80371D" stroke-width="0.76" stroke-linecap="round" stroke-linejoin="round"/>
<path d="M6.28867 151.108C6.58353 152.116 6.00453 153.168 4.99663 153.463C3.98872 153.758 2.93793 153.178 2.64307 152.17C2.34821 151.162 2.92721 150.11 3.93511 149.815C4.94301 149.52 5.9938 150.1 6.28867 151.108Z" stroke="#80371D" stroke-width="0.76" stroke-linecap="round" stroke-linejoin="round"/>
<path d="M3.92441 156.268C4.21928 157.276 3.64027 158.327 2.63237 158.622C1.62447 158.917 0.573677 158.338 0.278813 157.33C-0.0160519 156.321 0.562955 155.27 1.57086 154.975C2.57876 154.68 3.62955 155.259 3.92441 156.268Z" stroke="#80371D" stroke-width="0.76" stroke-linecap="round" stroke-linejoin="round"/>
<path d="M8.65293 168.41C8.94779 169.419 8.36878 170.47 7.36088 170.765C6.35298 171.06 5.30219 170.481 5.00733 169.472C4.71246 168.464 5.29147 167.413 6.29937 167.118C7.30727 166.823 8.35806 167.402 8.65293 168.41Z" stroke="#80371D" stroke-width="0.76" stroke-linecap="round" stroke-linejoin="round"/>
<path d="M4.43369 162.232C4.72855 163.24 4.14955 164.291 3.14165 164.586C2.13374 164.881 1.08295 164.302 0.78809 163.294C0.493225 162.285 1.07223 161.234 2.08013 160.939C3.08803 160.644 4.13882 161.223 4.43369 162.232Z" stroke="#80371D" stroke-width="0.76" stroke-linecap="round" stroke-linejoin="round"/>
<path d="M11.6444 152.454C11.9392 153.463 11.3602 154.514 10.3523 154.809C9.34444 155.104 8.29365 154.525 7.99878 153.516C7.70392 152.508 8.28293 151.457 9.29083 151.162C10.2987 150.867 11.3495 151.446 11.6444 152.454Z" stroke="#80371D" stroke-width="0.76" stroke-linecap="round" stroke-linejoin="round"/>
<path d="M15.9818 156.15C16.2766 157.158 15.6976 158.209 14.6897 158.504C13.6818 158.799 12.6311 158.22 12.3362 157.212C12.0413 156.203 12.6203 155.152 13.6282 154.857C14.6361 154.562 15.6869 155.141 15.9818 156.15Z" stroke="#80371D" stroke-width="0.76" stroke-linecap="round" stroke-linejoin="round"/>
<path d="M2.10156 156.799C2.10156 156.799 3.5598 158.493 8.58322 159.158" stroke="#80371D" stroke-width="0.76" stroke-linecap="round" stroke-linejoin="round"/>
<path d="M9.82715 152.846C9.82715 152.846 10.8404 157.941 9.43042 160.564" stroke="#80371D" stroke-width="0.76" stroke-linecap="round" stroke-linejoin="round"/>
<path d="M2.61621 162.763C2.61621 162.763 6.52451 165.46 11.8374 164.27" stroke="#80371D" stroke-width="0.76" stroke-linecap="round" stroke-linejoin="round"/>
<path d="M14.1589 156.681C14.1589 156.681 15.9549 163.085 13.3386 166.415" stroke="#80371D" stroke-width="0.76" stroke-linecap="round" stroke-linejoin="round"/>
<path d="M6.83545 168.941C6.83545 168.941 10.8134 170.212 15.2042 168.904" stroke="#80371D" stroke-width="0.76" stroke-linecap="round" stroke-linejoin="round"/>
<path d="M38.236 113.393C38.236 113.393 35.0086 107.557 33.8023 103.449C32.596 99.3407 29.1702 87.7344 33.6629 85.2565C38.1556 82.7786 38.8203 93.1675 38.9383 98.6381C39.0562 104.109 40.3161 106.565 38.236 113.398V113.393Z" fill="url(#paint2_linear_7_978)"/>
<path d="M38.5416 115.05C38.5416 115.05 35.9146 112.041 33.2715 109.81C30.6231 107.579 25.9321 102.36 24.2594 104.972C22.5921 107.584 24.9456 112.342 29.9583 114.058C34.971 115.774 39.2439 118.858 39.2439 118.858L38.5416 115.05Z" fill="url(#paint3_linear_7_978)"/>
<path d="M39.7156 121.282C39.7156 121.282 33.8397 118.231 30.7785 116.874C27.7173 115.517 24.9509 114.364 23.9966 115.94C23.0423 117.517 22.7367 120.564 28.6394 122.022C34.542 123.476 40.4554 125.348 40.4554 125.348L39.7156 121.288V121.282Z" fill="url(#paint4_linear_7_978)"/>
<path d="M40.9325 127.81C40.9325 127.81 33.6573 124.511 29.942 124.125C26.2268 123.739 24.8757 126.764 28.8162 128.721C31.159 129.885 36.74 130.62 39.1418 130.765C40.6805 130.856 41.6562 131.532 41.6562 131.532L40.9325 127.81Z" fill="url(#paint5_linear_7_978)"/>
<path d="M39.0347 117.587C39.0347 117.587 40.5626 112.277 41.9833 108.206C43.404 104.141 47.5053 98.6972 50.4003 100.666C53.3007 102.634 48.2183 109.526 46.1221 111.8C44.0259 114.074 39.8442 121.98 39.8442 121.98L39.0293 117.587H39.0347Z" fill="url(#paint6_linear_7_978)"/>
<path d="M40.3696 124.286C40.3696 124.286 42.0584 120.703 44.6639 116.992C47.2695 113.28 51.1402 110.411 52.8397 112.744C54.5392 115.077 46.9263 121.599 43.7472 124.913C42.053 126.678 41.1363 128.346 41.1363 128.346L40.3696 124.291V124.286Z" fill="url(#paint7_linear_7_978)"/>
<path d="M41.4849 130.191C41.4849 130.191 42.08 128.705 44.0904 126.898C46.1008 125.09 50.3308 120.58 52.3841 122.484C54.4428 124.388 49.8322 127.22 47.9665 128.367C46.1008 129.51 42.8037 132.208 42.1925 133.779L41.4849 130.196V130.191Z" fill="url(#paint8_linear_7_978)"/>
<path d="M34.6011 92.8081C34.6011 92.8081 40.5841 128.046 44.4764 144.978" stroke="#0C3069" stroke-width="0.91" stroke-linecap="round" stroke-linejoin="round"/>
<path d="M47.1945 104.259C47.1945 104.259 41.6349 114.262 39.3511 119.287" stroke="#0C3069" stroke-width="0.91" stroke-linecap="round" stroke-linejoin="round"/>
<path d="M26.4307 107.595C26.4307 107.595 35.3945 114.294 38.8471 116.718" stroke="#0C3069" stroke-width="0.91" stroke-linecap="round" stroke-linejoin="round"/>
<path d="M49.7516 114.256C49.7516 114.256 42.7928 121.631 40.6108 126.168" stroke="#0C3069" stroke-width="0.91" stroke-linecap="round" stroke-linejoin="round"/>
<path d="M26.4307 117.812C26.4307 117.812 36.3703 121.341 40.1017 123.39" stroke="#0C3069" stroke-width="0.91" stroke-linecap="round" stroke-linejoin="round"/>
<path d="M50.8507 124.093C50.8507 124.093 45.5163 126.415 41.6562 131.532" stroke="#0C3069" stroke-width="0.91" stroke-linecap="round" stroke-linejoin="round"/>
<path d="M28.9075 126.168C28.9075 126.168 37.1798 128.008 41.2703 129.574" stroke="#0C3069" stroke-width="0.91" stroke-linecap="round" stroke-linejoin="round"/>
<path d="M8.80297 193.232H169.451C169.451 193.232 162.599 181.025 150.268 182.827C150.268 182.827 150.601 177.062 148.14 176.16C145.679 175.259 147.974 164.087 144.666 163.369C141.358 162.65 140.945 170.577 140.945 170.577C140.945 170.577 137.954 170.937 136.592 176.525C136.592 176.525 134.335 171.478 128.03 170.218C128.03 170.218 122.808 153.463 117.404 152.739C112 152.014 109.62 163.551 109.62 163.551C109.62 163.551 103.256 161.39 98.0826 162.832C98.0826 162.832 86.8885 139.743 76.4771 138.692C76.4771 138.692 72.6492 109.504 67.2934 108.512C61.9376 107.52 57.6111 129.467 57.6111 129.467C57.6111 129.467 53.4562 127.279 51.0919 136.89C51.0919 136.89 46.8083 132.138 42.38 138.874C42.38 138.874 39.3241 131.178 35.1585 131.95C28.6661 133.157 32.5744 154.053 32.5744 154.053C32.5744 154.053 29.0789 153.511 29.481 165.401C29.481 165.401 26.9666 159.523 24.5005 160.467C24.5005 160.467 24.0609 153.371 20.6833 154.047C17.3058 154.723 17.8473 174.991 17.8473 174.991C14.8772 176.75 13.7942 182.151 12.9847 186.48C12.1751 190.803 8.79761 193.237 8.79761 193.237L8.80297 193.232Z" fill="url(#paint9_linear_7_978)"/>
<path opacity="0.63" d="M36.3755 193.232C36.3755 193.232 35.3676 180.918 39.678 182.125C39.678 182.125 40.0211 165.579 46.744 166.093C46.744 166.093 49.5962 152.61 53.1131 152.556C58.158 152.476 61.9376 160.923 62.3504 171.95C62.3504 171.95 72.2418 173.844 74.4827 180.226C74.4827 180.226 76.1554 166.78 77.9032 167.472C79.6509 168.164 81.3879 181.604 81.3879 181.604C81.3879 181.604 99.9591 183.653 101.605 193.232H36.3755Z" fill="url(#paint10_linear_7_978)"/>
<path d="M337.395 149.681C337.395 149.681 329.669 166.678 316.513 177.673" stroke="#80371D" stroke-width="0.76" stroke-linecap="round" stroke-linejoin="round"/>
<path d="M335.706 149.016C335.411 150.025 335.99 151.076 336.998 151.371C338.006 151.666 339.057 151.087 339.352 150.078C339.646 149.07 339.067 148.019 338.059 147.724C337.052 147.429 336.001 148.008 335.706 149.016Z" stroke="#80371D" stroke-width="0.76" stroke-linecap="round" stroke-linejoin="round"/>
<path d="M338.076 154.181C337.781 155.19 338.36 156.241 339.368 156.536C340.376 156.831 341.426 156.252 341.721 155.243C342.016 154.235 341.437 153.184 340.429 152.889C339.421 152.594 338.37 153.173 338.076 154.181Z" stroke="#80371D" stroke-width="0.76" stroke-linecap="round" stroke-linejoin="round"/>
<path d="M333.342 166.324C333.047 167.332 333.626 168.384 334.634 168.679C335.642 168.973 336.692 168.394 336.987 167.386C337.282 166.378 336.703 165.326 335.695 165.031C334.687 164.736 333.637 165.316 333.342 166.324Z" stroke="#80371D" stroke-width="0.76" stroke-linecap="round" stroke-linejoin="round"/>
<path d="M337.561 160.145C337.266 161.154 337.845 162.205 338.853 162.5C339.861 162.795 340.912 162.216 341.207 161.207C341.501 160.199 340.922 159.148 339.914 158.853C338.907 158.558 337.856 159.137 337.561 160.145Z" stroke="#80371D" stroke-width="0.76" stroke-linecap="round" stroke-linejoin="round"/>
<path d="M330.355 150.368C330.061 151.376 330.64 152.427 331.648 152.722C332.655 153.017 333.706 152.438 334.001 151.43C334.296 150.422 333.717 149.37 332.709 149.075C331.701 148.78 330.65 149.36 330.355 150.368Z" stroke="#80371D" stroke-width="0.76" stroke-linecap="round" stroke-linejoin="round"/>
<path d="M326.018 154.058C325.723 155.066 326.302 156.118 327.31 156.413C328.318 156.708 329.369 156.128 329.664 155.12C329.959 154.112 329.38 153.06 328.372 152.765C327.364 152.47 326.313 153.05 326.018 154.058Z" stroke="#80371D" stroke-width="0.76" stroke-linecap="round" stroke-linejoin="round"/>
<path d="M339.898 154.712C339.898 154.712 338.44 156.407 333.417 157.072" stroke="#80371D" stroke-width="0.76" stroke-linecap="round" stroke-linejoin="round"/>
<path d="M332.168 150.76C332.168 150.76 331.154 155.855 332.564 158.477" stroke="#80371D" stroke-width="0.76" stroke-linecap="round" stroke-linejoin="round"/>
<path d="M339.384 160.676C339.384 160.676 335.475 163.374 330.162 162.184" stroke="#80371D" stroke-width="0.76" stroke-linecap="round" stroke-linejoin="round"/>
<path d="M327.841 154.589C327.841 154.589 326.045 160.993 328.661 164.324" stroke="#80371D" stroke-width="0.76" stroke-linecap="round" stroke-linejoin="round"/>
<path d="M335.164 166.855C335.164 166.855 331.186 168.126 326.796 166.818" stroke="#80371D" stroke-width="0.76" stroke-linecap="round" stroke-linejoin="round"/>
<path d="M306.804 103.09C306.804 103.09 309.613 97.0398 310.525 92.8563C311.436 88.6675 314.031 76.852 309.372 74.7013C304.713 72.5452 304.783 82.9555 305.056 88.4208C305.33 93.8861 304.241 96.4283 306.799 103.095L306.804 103.09Z" fill="url(#paint11_linear_7_978)"/>
<path d="M306.622 104.763C306.622 104.763 309.029 101.577 311.511 99.1637C313.993 96.7502 318.309 91.2152 320.159 93.6984C322.008 96.1817 319.998 101.095 315.119 103.165C310.24 105.235 306.198 108.614 306.198 108.614L306.627 104.763H306.622Z" fill="url(#paint12_linear_7_978)"/>
<path d="M305.887 111.06C305.887 111.06 311.533 107.6 314.492 106.029C317.451 104.457 320.126 103.111 321.188 104.618C322.249 106.125 322.775 109.145 316.985 111.011C311.195 112.883 305.432 115.168 305.432 115.168L305.882 111.065L305.887 111.06Z" fill="url(#paint13_linear_7_978)"/>
<path d="M305.137 117.662C305.137 117.662 312.16 113.854 315.838 113.21C319.521 112.561 321.075 115.484 317.285 117.716C315.033 119.04 309.517 120.172 307.126 120.483C305.598 120.682 304.676 121.427 304.676 121.427L305.137 117.662Z" fill="url(#paint14_linear_7_978)"/>
<path d="M306.305 107.327C306.305 107.327 304.407 102.14 302.697 98.1822C300.992 94.224 296.516 89.0859 293.766 91.2527C291.01 93.4195 296.569 99.9361 298.821 102.055C301.073 104.173 305.801 111.762 305.801 111.762L306.3 107.321L306.305 107.327Z" fill="url(#paint15_linear_7_978)"/>
<path d="M305.448 114.106C305.448 114.106 303.512 110.652 300.649 107.134C297.786 103.615 293.723 101.03 292.189 103.476C290.656 105.922 298.714 111.891 302.124 114.97C303.941 116.611 304.97 118.204 304.97 118.204L305.453 114.106H305.448Z" fill="url(#paint16_linear_7_978)"/>
<path d="M304.756 120.07C304.756 120.07 304.059 118.627 301.925 116.97C299.792 115.307 295.256 111.108 293.337 113.157C291.417 115.2 296.221 117.7 298.162 118.713C300.102 119.722 303.582 122.178 304.3 123.701L304.751 120.076L304.756 120.07Z" fill="url(#paint17_linear_7_978)"/>
<path d="M308.97 82.3011C308.97 82.3011 305.496 117.877 302.815 135.039" stroke="#0C3069" stroke-width="0.91" stroke-linecap="round" stroke-linejoin="round"/>
<path d="M297.224 94.6101C297.224 94.6101 303.475 104.194 306.112 109.043" stroke="#0C3069" stroke-width="0.91" stroke-linecap="round" stroke-linejoin="round"/>
<path d="M318.17 96.4712C318.17 96.4712 309.704 103.787 306.434 106.452" stroke="#0C3069" stroke-width="0.91" stroke-linecap="round" stroke-linejoin="round"/>
<path d="M295.379 104.763C295.379 104.763 302.842 111.628 305.34 115.999" stroke="#0C3069" stroke-width="0.91" stroke-linecap="round" stroke-linejoin="round"/>
<path d="M318.893 106.662C318.893 106.662 309.227 110.888 305.651 113.194" stroke="#0C3069" stroke-width="0.91" stroke-linecap="round" stroke-linejoin="round"/>
<path d="M294.977 114.653C294.977 114.653 300.462 116.589 304.676 121.422" stroke="#0C3069" stroke-width="0.91" stroke-linecap="round" stroke-linejoin="round"/>
<path d="M317.017 115.173C317.017 115.173 308.895 117.598 304.922 119.448" stroke="#0C3069" stroke-width="0.91" stroke-linecap="round" stroke-linejoin="round"/>
<path d="M230.128 193.232H336.028C336.028 193.232 332.784 180.934 328.731 183.911C328.731 183.911 330.082 175.082 326.839 173.822C326.839 173.822 325.22 162.108 319.274 159.947C319.274 159.947 321.617 145.895 318.915 143.369C316.213 140.848 316.754 125.171 313.87 125.171C310.986 125.171 310.09 132.739 310.09 132.739C310.09 132.739 308.648 117.426 302.526 113.822C302.526 113.822 299.824 102.065 290.281 100.987C290.281 100.987 288.662 85.2457 283.976 85.2457C279.29 85.2457 277.854 91.3868 276.953 106.479C276.953 106.479 265.609 113.827 265.968 138.327C265.968 138.327 259.845 138.869 258.044 148.957C258.044 148.957 257.326 138.687 255.165 138.687C253.005 138.687 251.385 166.072 251.385 166.072C251.385 166.072 244.003 166.614 244.003 176.161C244.003 176.161 241.843 164.088 239.859 164.088C237.875 164.088 236.079 180.666 236.079 180.666C236.079 180.666 229.415 186.7 230.134 193.232H230.128Z" fill="url(#paint18_linear_7_978)"/>
<path opacity="0.63" d="M315.13 193.232C315.13 193.232 313.328 182.645 310.985 182.468C310.985 182.468 309.366 166.431 307.383 166.254C305.399 166.072 303.78 174.364 303.78 174.364C303.78 174.364 302.338 154.546 298.199 154.546C294.06 154.546 291.176 165.895 291.176 165.895C291.176 165.895 281.81 129.858 274.605 132.202C267.399 134.546 265.598 170.942 265.598 170.942C265.598 170.942 260.917 166.796 259.116 176.525C259.116 176.525 247.048 177.694 248.49 193.238H315.124L315.13 193.232Z" fill="url(#paint19_linear_7_978)"/>
<path d="M267.994 80.5259H140.49V193.608H267.994V80.5259Z" fill="url(#paint20_linear_7_978)"/>
<path d="M267.994 80.5259H140.49V101.524H267.994V80.5259Z" fill="url(#paint21_linear_7_978)"/>
<path d="M159.731 86.3505C159.731 88.0078 158.391 89.3487 156.734 89.3487C155.077 89.3487 153.737 88.0078 153.737 86.3505C153.737 84.6933 155.077 83.3524 156.734 83.3524C158.391 83.3524 159.731 84.6933 159.731 86.3505Z" fill="#80371D"/>
<path d="M156.739 88.0776C155.796 88.0776 155.034 87.316 155.034 86.372V79.2119C155.034 78.268 155.796 77.5063 156.739 77.5063C157.683 77.5063 158.444 78.268 158.444 79.2119V86.372C158.444 87.316 157.683 88.0776 156.739 88.0776Z" fill="#FFA526"/>
<path d="M254.747 86.3505C254.747 88.0078 253.407 89.3487 251.75 89.3487C250.093 89.3487 248.753 88.0078 248.753 86.3505C248.753 84.6933 250.093 83.3524 251.75 83.3524C253.407 83.3524 254.747 84.6933 254.747 86.3505Z" fill="#80371D"/>
<path d="M251.75 88.0776C250.806 88.0776 250.045 87.316 250.045 86.372V79.2119C250.045 78.268 250.806 77.5063 251.75 77.5063C252.694 77.5063 253.455 78.268 253.455 79.2119V86.372C253.455 87.316 252.694 88.0776 251.75 88.0776Z" fill="#FFA526"/>
<path d="M165.939 111.644H146.617V130.974H165.939V111.644Z" fill="#FFE09C"/>
<path d="M189.92 111.644H170.598V130.974H189.92V111.644Z" fill="#FFE09C"/>
<path d="M213.905 111.644H194.584V130.974H213.905V111.644Z" fill="#FFB91C"/>
<path d="M237.891 111.644H218.57V130.974H237.891V111.644Z" fill="#FFE09C"/>
<path d="M261.872 111.644H242.55V130.974H261.872V111.644Z" fill="#FFA526"/>
<path d="M165.939 135.109H146.617V154.439H165.939V135.109Z" fill="#FFE09C"/>
<path d="M189.92 135.109H170.598V154.439H189.92V135.109Z" fill="#FFB91C"/>
<path d="M165.939 158.569H146.617V177.898H165.939V158.569Z" fill="#FFE09C"/>
<path d="M189.92 158.569H170.598V177.898H189.92V158.569Z" fill="#FFE09C"/>
<path d="M213.905 135.109H194.584V154.439H213.905V135.109Z" fill="#FFE09C"/>
<path d="M237.891 135.109H218.57V154.439H237.891V135.109Z" fill="#FFB91C"/>
<path d="M261.872 135.109H242.55V154.439H261.872V135.109Z" fill="#FFA526"/>
<path d="M213.905 158.569H194.584V177.898H213.905V158.569Z" fill="#FFE09C"/>
<path d="M237.891 158.569H218.57V177.898H237.891V158.569Z" fill="#FFB91C"/>
<path d="M261.872 158.569H242.55V177.898H261.872V158.569Z" fill="#FFA526"/>
<path d="M223.309 144.613L227.421 149.258L233.147 140.29" stroke="#F04F4F" stroke-width="2.93" stroke-linecap="round" stroke-linejoin="round"/>
<path d="M199.323 121.148L203.435 125.793L209.161 116.825" stroke="#F04F4F" stroke-width="2.93" stroke-linecap="round" stroke-linejoin="round"/>
<path d="M223.309 168.078L227.421 172.717L233.147 163.75" stroke="#F04F4F" stroke-width="2.93" stroke-linecap="round" stroke-linejoin="round"/>
<path d="M175.343 144.613L179.449 149.258L185.18 140.29" stroke="#F04F4F" stroke-width="2.93" stroke-linecap="round" stroke-linejoin="round"/>
<path opacity="0.4" d="M65.6851 66.903L61.5677 61.073C62.5917 59.0295 63.1707 56.7286 63.1707 54.2883C63.1707 45.916 56.3889 39.1313 48.0201 39.1313C39.6513 39.1313 32.8694 45.916 32.8694 54.2883C32.8694 62.6605 39.6513 69.4452 48.0201 69.4452C52.4752 69.4452 56.48 67.5198 59.2517 64.4573L65.6851 66.8976V66.903Z" fill="url(#paint22_linear_7_978)"/>
<path d="M66.3499 65.2832L62.2325 59.4532C63.2565 57.4098 63.8355 55.1089 63.8355 52.6685C63.8355 44.2963 57.0536 37.5116 48.6849 37.5116C40.3161 37.5116 33.5342 44.2963 33.5342 52.6685C33.5342 61.0408 40.3161 67.8255 48.6849 67.8255C53.14 67.8255 57.1448 65.9 59.9165 62.8375L66.3499 65.2779V65.2832Z" fill="white"/>
<path d="M48.8402 64.7469C55.5081 64.7469 60.9136 59.3392 60.9136 52.6686C60.9136 45.9979 55.5081 40.5902 48.8402 40.5902C42.1723 40.5902 36.7668 45.9979 36.7668 52.6686C36.7668 59.3392 42.1723 64.7469 48.8402 64.7469Z" fill="#1656BD"/>
<path d="M48.8403 62.1939C54.0988 62.1939 58.3617 57.9293 58.3617 52.6686C58.3617 47.4078 54.0988 43.1432 48.8403 43.1432C43.5817 43.1432 39.3188 47.4078 39.3188 52.6686C39.3188 57.9293 43.5817 62.1939 48.8403 62.1939Z" fill="#CEDBED"/>
<path d="M43.3987 46.0662L48.6848 52.6685L54.3569 48.7479" stroke="#0C3069" stroke-width="2.2" stroke-linecap="round" stroke-linejoin="round"/>
<path opacity="0.42" d="M125.859 193.956C153.188 193.956 175.343 171.793 175.343 144.452C175.343 117.112 153.188 94.9481 125.859 94.9481C98.5298 94.9481 76.3752 117.112 76.3752 144.452C76.3752 171.793 98.5298 193.956 125.859 193.956Z" fill="url(#paint23_linear_7_978)"/>
<path d="M130.475 90.6521H118.702V98.7937H130.475V90.6521Z" fill="#0C3069"/>
<path d="M159.006 178.445C178.012 159.431 178.012 128.603 159.006 109.588C140 90.5742 109.184 90.5742 90.1779 109.588C71.1716 128.603 71.1716 159.431 90.1779 178.445C109.184 197.459 140 197.459 159.006 178.445Z" fill="url(#paint24_linear_7_978)"/>
<path d="M124.588 182.57C145.871 182.57 163.124 165.309 163.124 144.018C163.124 122.726 145.871 105.466 124.588 105.466C103.305 105.466 86.052 122.726 86.052 144.018C86.052 165.309 103.305 182.57 124.588 182.57Z" fill="white"/>
<path d="M124.588 180.172C144.548 180.172 160.728 163.985 160.728 144.018C160.728 124.05 144.548 107.863 124.588 107.863C104.629 107.863 88.4485 124.05 88.4485 144.018C88.4485 163.985 104.629 180.172 124.588 180.172Z" fill="url(#paint25_linear_7_978)"/>
<path d="M124.588 109.268V114.862" stroke="#0C3069" stroke-width="2.93" stroke-linecap="round" stroke-linejoin="round"/>
<path d="M124.588 173.104V178.698" stroke="#0C3069" stroke-width="2.93" stroke-linecap="round" stroke-linejoin="round"/>
<path d="M107.223 113.924L110.017 118.767" stroke="#0C3069" stroke-width="2.93" stroke-linecap="round" stroke-linejoin="round"/>
<path d="M139.128 169.21L141.921 174.053" stroke="#0C3069" stroke-width="2.93" stroke-linecap="round" stroke-linejoin="round"/>
<path d="M94.5068 126.641L99.348 129.44" stroke="#0C3069" stroke-width="2.93" stroke-linecap="round" stroke-linejoin="round"/>
<path d="M149.77 158.558L154.611 161.358" stroke="#0C3069" stroke-width="2.93" stroke-linecap="round" stroke-linejoin="round"/>
<path d="M89.8533 144.018H95.445" stroke="#0C3069" stroke-width="2.93" stroke-linecap="round" stroke-linejoin="round"/>
<path d="M153.667 144.018H159.259" stroke="#0C3069" stroke-width="2.93" stroke-linecap="round" stroke-linejoin="round"/>
<path d="M94.5068 161.39L99.348 158.596" stroke="#0C3069" stroke-width="2.93" stroke-linecap="round" stroke-linejoin="round"/>
<path d="M149.77 129.472L154.611 126.673" stroke="#0C3069" stroke-width="2.93" stroke-linecap="round" stroke-linejoin="round"/>
<path d="M107.223 174.106L110.017 169.263" stroke="#0C3069" stroke-width="2.93" stroke-linecap="round" stroke-linejoin="round"/>
<path d="M139.128 118.821L141.921 113.978" stroke="#0C3069" stroke-width="2.93" stroke-linecap="round" stroke-linejoin="round"/>
<path d="M108.617 123.363L124.588 144.018L140.527 134.761" stroke="#0C3069" stroke-width="3.9" stroke-linecap="round" stroke-linejoin="round"/>
<path d="M133.724 80.6815H115.448V90.6574H133.724V80.6815Z" fill="#1656BD"/>
<path d="M121.945 90.6521V80.6815H120.9V90.6521H121.945Z" fill="#0C3069"/>
<path d="M118.777 90.6521V80.6815H117.731V90.6521H118.777Z" fill="#0C3069"/>
<path d="M130.4 80.6815V90.6521H131.445V80.6815H130.4Z" fill="#0C3069"/>
<path d="M128.277 90.6521V80.6815H127.231V90.6521H128.277Z" fill="#0C3069"/>
<path d="M125.114 90.6521V80.6815H124.063V90.6521H125.114Z" fill="#0C3069"/>
<path d="M269.254 203.321C272.105 203.321 274.417 202.735 274.417 202.012C274.417 201.289 272.105 200.703 269.254 200.703C266.403 200.703 264.091 201.289 264.091 202.012C264.091 202.735 266.403 203.321 269.254 203.321Z" fill="#CEDBED"/>
<path d="M295.052 203.321C297.903 203.321 300.215 202.735 300.215 202.012C300.215 201.289 297.903 200.703 295.052 200.703C292.201 200.703 289.889 201.289 289.889 202.012C289.889 202.735 292.201 203.321 295.052 203.321Z" fill="#CEDBED"/>
<path d="M271.634 180.306C271.634 180.306 271.023 196.155 270.927 197.4C270.83 198.644 268.841 199.55 268.841 199.55C268.841 199.55 265.099 200.43 264.869 201.669C264.772 202.194 268.734 201.83 270.385 201.83C272.037 201.83 273.811 202.811 273.607 200.483C273.404 198.156 273.489 197.072 273.918 195.093C274.326 193.195 276.063 182.977 276.122 181.143L271.629 180.317L271.634 180.306Z" fill="#FF6D6D"/>
<path d="M269.404 199.239C269.088 199.432 268.847 199.545 268.847 199.545C268.847 199.545 265.105 200.424 264.874 201.663C264.778 202.189 268.739 201.824 270.391 201.824C272.042 201.824 273.816 202.806 273.613 200.478C273.597 200.296 273.586 200.129 273.575 199.963C271.726 200.542 270.187 199.781 269.404 199.244V199.239Z" fill="#0C3069"/>
<path d="M271.522 183.24C271.522 183.24 273.007 185.021 275.543 185.659L276.127 181.132L271.517 180.081V183.235L271.522 183.24Z" fill="url(#paint26_linear_7_978)"/>
<path d="M290.919 179.502C290.919 179.502 294.725 194.9 294.977 196.123C295.229 197.341 293.572 198.767 293.572 198.767C293.572 198.767 290.222 200.65 290.345 201.905C290.398 202.436 294.103 200.988 295.69 200.532C297.282 200.071 299.255 200.526 298.413 198.344C297.572 196.161 297.352 195.099 297.218 193.077C297.084 191.14 295.926 180.837 295.47 179.062L290.924 179.513L290.919 179.502Z" fill="#FF6D6D"/>
<path d="M294.017 198.311C293.765 198.585 293.567 198.762 293.567 198.762C293.567 198.762 290.216 200.644 290.34 201.899C290.393 202.43 294.098 200.982 295.685 200.526C297.272 200.071 299.25 200.521 298.408 198.338C298.344 198.167 298.285 198.011 298.226 197.85C296.612 198.917 294.918 198.617 294.017 198.317V198.311Z" fill="#0C3069"/>
<path d="M291.75 182.881C291.75 182.881 293.428 184.345 296.291 184.624L295.91 181.256L291.272 180.714L291.75 182.881Z" fill="url(#paint27_linear_7_978)"/>
<path d="M297.486 129.815C297.486 129.815 301.963 137.925 300.354 150.357C298.746 162.79 298.21 167.579 298.21 167.579C298.21 167.579 300.912 175.855 301.271 180.988C301.271 180.988 295.508 182.972 291.004 181.438C291.004 181.438 288.393 169.547 287.761 163.331C287.128 157.115 287.761 152.25 287.761 152.25L283.048 164.683C283.048 164.683 282.93 177.925 283.048 181.347C283.048 181.347 276.792 183.24 271.2 181.165C271.2 181.165 271.64 171.527 273.355 160.896C275.066 150.266 279.301 135.855 279.301 135.855L279.119 130.577L297.486 129.821V129.815Z" fill="#1656BD"/>
<path d="M294.602 131.575C294.602 131.575 294.741 137.394 300.076 137.973" stroke="#0C3069" stroke-width="0.81" stroke-miterlimit="10"/>
<path d="M285.697 132.004C285.697 132.004 285.793 135.656 287.085 137.973C288.372 140.29 288.742 141.679 288.57 143.508" stroke="#0C3069" stroke-width="0.81" stroke-miterlimit="10"/>
<path d="M283.836 131.8C283.836 131.8 284.233 134.551 284.78 136.579C285.321 138.606 287.493 138.735 287.493 138.735" stroke="#0C3069" stroke-width="0.81" stroke-miterlimit="10"/>
<path opacity="0.29" d="M279.113 159.271C279.113 165.847 278.931 173.323 275.961 176.477C274.288 178.247 273.758 180.333 273.613 181.819C278.449 182.725 283.043 181.342 283.043 181.342C282.925 177.92 283.043 164.677 283.043 164.677L287.756 152.245C288.115 148.282 288.565 143.508 288.565 143.508C288.565 143.508 279.108 152.696 279.108 159.271H279.113Z" fill="url(#paint28_linear_7_978)"/>
<path opacity="0.6" d="M279.113 130.572L279.204 133.275C281.649 134.471 289.707 137.877 299.781 136.525C298.832 132.261 297.481 129.815 297.481 129.815L279.113 130.572Z" fill="url(#paint29_linear_7_978)"/>
<path d="M279.022 132.202H292.264L277.473 115.855L265.743 109.864L262.188 114.905L261.33 117.233L271.935 126.528L279.022 132.202Z" fill="#786337"/>
<path d="M259.776 109.772C259.776 109.772 262.815 107.949 261.936 103.422C261.057 98.8955 253.358 98.0159 250.42 102.95C250.42 102.95 246.571 103.454 246.673 106.297C246.775 109.134 253.39 107.986 253.39 107.986L259.77 109.778L259.776 109.772Z" fill="#0C3069"/>
<path d="M260.521 117.233C258.987 119.77 252.774 134.498 252.774 134.498L237.736 140.623C237.736 140.623 232.739 143.192 231.79 144.002C230.847 144.811 230.214 145.536 230.664 145.536C231.115 145.536 233.184 144.141 233.184 144.141C233.184 144.141 231.79 146.034 232.326 145.986C232.868 145.943 233.093 144.903 233.945 144.769C234.803 144.634 237.725 144.136 237.907 142.784C237.907 142.784 252.27 140.397 255.605 137.753C259.4 134.739 263.486 124.002 263.486 124.002L260.515 117.233H260.521Z" fill="#FF6D6D"/>
<path d="M260.521 117.233C259.883 118.284 258.446 121.432 256.977 124.752C257.964 126.233 259.261 128.909 259.357 132.819C261.684 128.753 263.491 124.002 263.491 124.002L260.521 117.233Z" fill="url(#paint30_linear_7_978)"/>
<path d="M256.827 107.879C256.827 107.879 255.61 107.203 255.068 106.211C255.068 106.211 253.675 106.705 251.423 105.895C251.423 105.895 250.93 107.021 251.423 107.879C251.916 108.737 252.415 109.413 251.964 110.4C251.514 111.392 254.618 113.87 255.385 113.731C256.151 113.597 256.827 112.288 256.827 112.288L262.183 114.9C262.183 114.9 263.351 117.962 264.568 117.061C265.785 116.16 266.413 113.817 265.737 109.853L260.156 109.268L258.607 109.043C258.607 109.043 258.982 106.613 257.904 106.249C256.827 105.884 256.822 107.868 256.822 107.868L256.827 107.879Z" fill="#FF6D6D"/>
<path d="M256.827 112.293C256.827 112.293 258.098 110.336 258.612 109.048L263.609 109.633C263.609 109.633 261.11 112.599 258.902 113.302L256.832 112.293H256.827Z" fill="url(#paint31_linear_7_978)"/>
<path d="M263.18 99.3782C262.831 101.175 260.794 102.291 258.623 101.872C256.452 101.454 254.972 99.6571 255.32 97.8658C255.669 96.069 257.706 94.9535 259.877 95.3718C262.049 95.7901 263.528 97.5869 263.18 99.3782Z" fill="#0C3069"/>
<path d="M265.743 109.864L272.525 105.015C272.525 105.015 282.668 112.004 288.881 120.853C288.881 120.853 295.84 124.704 299.416 127.477C302.997 130.245 295.299 134.573 292.527 134.503C289.761 134.433 284.962 126.597 284.962 126.597C284.962 126.597 268.348 121.937 265.737 109.864H265.743Z" fill="#0C3069"/>
<path d="M262.188 114.905C262.188 114.905 263.609 119.668 273.398 125.67C277.585 128.239 280.829 131.435 282.18 137.201C282.18 137.201 278.985 137.469 277.993 136.568C277.001 135.667 275.698 131.028 275.698 131.028C275.698 131.028 272.905 129 270.793 128.416C268.681 127.831 266.74 129.585 264.129 126.656C262.354 124.667 261.041 121.357 260.387 119.448C260.076 118.536 260.237 117.533 260.81 116.761L262.194 114.9L262.188 114.905Z" fill="#0C3069"/>
<path d="M292.801 121.593L282.614 129.054L267.994 119.502L278.186 112.047L292.801 121.593Z" fill="#FFB91C"/>
<path opacity="0.4" d="M276.797 125.251L277.918 123.985L277.532 123.894L284.196 115.973L290.533 120.113L279.832 127.23L276.797 125.251Z" fill="url(#paint32_linear_7_978)"/>
<path d="M272.524 105.01C274.412 103.476 279.43 104.951 285.059 107.021C290.688 109.091 296.092 110.443 296.993 114.321C297.894 118.193 283.048 124.543 283.048 124.543C283.048 124.543 281.917 126.12 281.113 126.678C280.309 127.236 279.199 128.099 278.979 127.917C278.765 127.729 280.523 126.281 280.523 126.281C280.523 126.281 277.886 127.627 277.526 127.085C277.403 126.898 279.687 126.131 280.062 125.509C280.062 125.509 277.526 127.193 276.797 126.56C276.513 126.313 279.355 125.139 279.355 125.139C279.355 125.139 276.326 126.222 276.047 125.879C275.768 125.541 279.387 124.763 279.537 124.211C279.692 123.653 279.011 123.562 278.518 123.776C278.025 123.991 277.623 124.114 277.532 123.9C277.441 123.685 279.478 122.291 281.301 122.602C281.301 122.602 288.099 117.7 290.758 114.911C290.758 114.911 278.953 112.347 275.8 111.183C272.648 110.019 271.265 106.045 272.53 105.015L272.524 105.01Z" fill="#FF6D6D"/>
<path d="M290.758 114.905C290.758 114.905 291.567 114.117 292.489 113.484" stroke="#F04F4F" stroke-width="0.81" stroke-miterlimit="10"/>
<path d="M145.55 68.2974C145.315 68.2974 145.122 68.1043 145.122 67.8683V40.6974C145.122 40.4614 145.315 40.2683 145.55 40.2683C145.786 40.2683 145.979 40.4614 145.979 40.6974V67.8683C145.979 68.1043 145.786 68.2974 145.55 68.2974Z" fill="#FF6026"/>
<path d="M167 68.2974C166.765 68.2974 166.572 68.1043 166.572 67.8683V40.6974C166.572 40.4614 166.765 40.2683 167 40.2683C167.236 40.2683 167.429 40.4614 167.429 40.6974V67.8683C167.429 68.1043 167.236 68.2974 167 68.2974Z" fill="#FF6026"/>
<path d="M157.71 54.24C162.009 53.1941 165.29 47.5357 165.29 40.7028H147.261C147.261 47.5357 150.547 53.1995 154.841 54.24C154.895 54.2507 154.895 54.3204 154.841 54.3311C150.542 55.377 147.261 61.0354 147.261 67.8683H165.29C165.29 61.0354 162.004 55.3716 157.71 54.3311C157.656 54.3204 157.656 54.2507 157.71 54.24Z" fill="white"/>
<path d="M162.347 62.6497C161.457 62.3815 160.524 62.167 159.565 62.0168C157.865 61.754 156.632 60.2522 156.632 58.536V54.0629C156.632 53.6499 156.927 53.3067 157.329 53.2208C158.964 52.8722 160.444 51.7191 161.607 50.0296C161.741 49.8365 161.596 49.5737 161.361 49.5737H151.185C150.944 49.5737 150.81 49.8419 150.944 50.0403C152.107 51.7245 153.581 52.8669 155.211 53.2208C155.613 53.3067 155.908 53.6499 155.908 54.0629V58.536C155.908 60.2576 154.675 61.754 152.976 62.0168C152.016 62.167 151.088 62.3761 150.193 62.6497C149.373 62.9018 148.772 63.6097 148.622 64.4571C148.531 64.9774 148.456 65.5137 148.408 66.0608C148.37 66.4523 148.676 66.7956 149.067 66.7956H163.457C163.853 66.7956 164.154 66.4523 164.116 66.0608C164.068 65.5137 163.993 64.9774 163.902 64.4571C163.752 63.6097 163.156 62.9018 162.331 62.6497H162.347Z" fill="url(#paint33_linear_7_978)"/>
<path d="M168.105 37.6885H144.451V40.6973H168.105V37.6885Z" fill="#FF9D45"/>
<path d="M168.105 67.8737H144.451V70.8825H168.105V67.8737Z" fill="#FF9D45"/>
<path d="M280.336 38.1444C290.865 38.1444 299.4 29.6055 299.4 19.0722C299.4 8.53892 290.865 0 280.336 0C269.807 0 261.271 8.53892 261.271 19.0722C261.271 29.6055 269.807 38.1444 280.336 38.1444Z" fill="url(#paint34_linear_7_978)"/>
<path d="M184.934 27.498H235.661C245.939 27.498 241.371 18.9273 235.661 17.4041C229.952 15.8809 231.281 6.74173 221.004 3.12144C217.589 1.92004 214.024 4.52128 211.713 6.80609C210.206 8.29174 207.992 8.77981 206.014 8.03967C203.676 7.16543 200.363 6.70955 197.211 9.02117C193.372 11.8369 190.477 18.0477 184.934 18.1604C175.798 18.3481 171.895 27.4927 184.934 27.4927V27.498Z" fill="#A1C1ED"/>
<path d="M183.749 62.4299C183.749 62.4299 180.913 58.3483 176.334 62.4299C176.334 62.4299 182.821 61.4537 183.749 66.3451C184.676 61.4537 191.163 62.4299 191.163 62.4299C186.585 58.3483 183.749 62.4299 183.749 62.4299Z" fill="#A1C1ED"/>
<path d="M84.551 35.5861C84.551 35.5861 82.6746 32.8883 79.6562 35.5861C79.6562 35.5861 83.9398 34.9425 84.551 38.1713C85.1622 34.9425 89.4458 35.5861 89.4458 35.5861C86.422 32.8883 84.551 35.5861 84.551 35.5861Z" fill="#A1C1ED"/>
<path d="M90.4215 207C94.7474 207 98.2542 206.414 98.2542 205.691C98.2542 204.968 94.7474 204.383 90.4215 204.383C86.0957 204.383 82.5889 204.968 82.5889 205.691C82.5889 206.414 86.0957 207 90.4215 207Z" fill="#CEDBED"/>
<path d="M53.9228 207C58.2486 207 61.7554 206.414 61.7554 205.691C61.7554 204.968 58.2486 204.383 53.9228 204.383C49.5969 204.383 46.0901 204.968 46.0901 205.691C46.0901 206.414 49.5969 207 53.9228 207Z" fill="#CEDBED"/>
<path d="M87.9878 195.281L88.347 200.639L90.6898 202.484C90.6898 202.484 94.4266 202.752 94.6088 203.476C94.7911 204.2 90.4218 204.645 88.6204 204.645C86.819 204.645 84.8837 205.23 84.3904 204.645C83.8972 204.061 85.3823 200.773 85.3823 200.773L84.2886 195.276H87.9931L87.9878 195.281Z" fill="#FF6D6D"/>
<path d="M85.3769 200.778C85.3769 200.778 83.8918 204.066 84.385 204.651C84.8783 205.235 86.819 204.651 88.615 204.651C90.411 204.651 94.7857 204.2 94.6034 203.482C94.4212 202.763 90.6844 202.489 90.6844 202.489L88.3416 200.644C86.7439 201.186 85.3715 200.778 85.3715 200.778H85.3769Z" fill="#0C3069"/>
<path d="M56.7321 195.093L54.9683 200.167L56.3997 202.784C56.3997 202.784 59.7343 204.495 59.6164 205.23C59.4985 205.965 55.306 204.667 53.6494 203.964C51.9928 203.262 49.9824 203.042 49.7518 202.307C49.5267 201.572 52.1805 199.132 52.1805 199.132L53.3224 193.645L56.7321 195.093Z" fill="#FF6D6D"/>
<path d="M52.1805 199.127C52.1805 199.127 49.5267 201.572 49.7518 202.302C49.977 203.036 51.9874 203.251 53.6494 203.959C55.306 204.662 59.5038 205.96 59.6164 205.225C59.729 204.49 56.3997 202.779 56.3997 202.779L54.9683 200.162C53.2849 200.033 52.1805 199.121 52.1805 199.121V199.127Z" fill="#0C3069"/>
<path d="M104.248 138.075H76.011V156.654H104.248V138.075Z" fill="#967C45"/>
<path d="M92.384 138.075H91.301V134.873C91.301 134.755 91.2045 134.664 91.092 134.664H86.1382C86.0203 134.664 85.9292 134.761 85.9292 134.873V138.075H84.8462V134.873C84.8462 134.16 85.4252 133.581 86.1382 133.581H91.092C91.805 133.581 92.384 134.16 92.384 134.873V138.075Z" fill="#0C3069"/>
<path d="M101.219 138.075H76.011V156.654H101.219V138.075Z" fill="#C7A55B"/>
<path d="M98.4743 143.288H78.7559C77.9035 143.288 77.1583 142.709 76.9545 141.878L76.011 138.075H101.219L100.276 141.878C100.072 142.704 99.3267 143.288 98.4743 143.288Z" fill="#786337"/>
<path d="M102.779 138.075V156.659" stroke="#5E4E2B" stroke-width="0.5" stroke-miterlimit="10"/>
<path opacity="0.37" d="M92.384 138.075L94.0674 156.659H86.5403V138.075H92.384Z" fill="url(#paint35_linear_7_978)"/>
<path d="M89.4942 127.965C89.4942 127.965 89.4727 129.317 89.8748 130.4C90.2823 131.483 90.234 133.666 90.234 133.666H88.3362C88.3362 133.666 87.4409 135.109 86.9905 135.088C86.5402 135.066 86.835 133.441 86.6099 133.13C86.3847 132.819 85.6395 132.004 86.3847 130.808C87.1299 129.612 87.1299 127.97 87.1299 127.97H89.4942V127.965Z" fill="#FF6D6D"/>
<path d="M87.9876 134.535H89.4083C90.3304 134.535 90.2179 135.029 89.9498 135.366C89.6817 135.704 88.0144 135.726 87.5641 135.366C87.1137 135.007 87.2049 134.535 87.993 134.535H87.9876Z" fill="#FF6D6D"/>
<path d="M90.5076 126.018L90.2824 128.619H86.3688L86.1704 125.857L90.5076 126.018Z" fill="#DBB883"/>
<path d="M86.3741 78.0372C90.9633 79.8393 92.4001 85.5138 92.6735 89.9279C92.9416 94.3419 91.7407 109.429 91.7407 109.429C91.7407 109.429 93.794 118.037 90.9418 126.866H86.283C86.283 126.866 83.4898 100.29 83.3129 92.7222C83.136 85.1545 86.3795 78.0372 86.3795 78.0372H86.3741Z" fill="#1656BD"/>
<path d="M83.4521 89.1878C83.3341 90.3356 83.2805 91.5209 83.3073 92.7169C83.4896 100.285 86.2774 126.86 86.2774 126.86H90.9363C93.7938 118.032 91.7351 109.424 91.7351 109.424L87.2907 84.2964L83.4521 89.1932V89.1878Z" fill="url(#paint36_linear_7_978)"/>
<path d="M72.0491 117.807C71.9204 128.775 75.9895 152.926 78.5897 158.815C77.7802 172.599 82.5355 196.182 82.5355 196.182H88.7116C88.7116 196.182 89.8535 182.302 89.2906 163.347C88.6151 140.682 86.1704 117.807 86.1704 117.807H72.0437H72.0491Z" fill="#0C3069"/>
<path opacity="0.37" d="M81.9082 150.373C81.3238 144.2 74.424 130.47 72.5261 126.791C73.6627 138.665 76.5684 154.246 78.5843 158.821C77.7747 172.605 82.5301 196.187 82.5301 196.187H88.7062C88.7062 196.187 89.6283 184.989 89.4031 168.984C82.6587 168.925 82.4925 156.649 81.8975 150.379L81.9082 150.373Z" fill="url(#paint37_linear_7_978)"/>
<path d="M78.5306 117.807C78.5306 117.807 72.0436 160.102 57.5952 196.182H51.3816C51.3816 196.182 54.6251 164.157 59.3483 156.659L62.5918 117.812H78.5306V117.807Z" fill="#0C3069"/>
<path d="M67.7279 122.779L62.3238 157.555C62.3238 157.555 55.2471 188.48 53.9229 196.182" stroke="#1656BD" stroke-width="0.5" stroke-miterlimit="10"/>
<path d="M76.1555 132.406C76.1555 132.406 76.8954 123.385 76.5522 119.561" stroke="#1656BD" stroke-width="0.5" stroke-miterlimit="10"/>
<path d="M78.6325 120.038C78.6325 120.038 79.174 124.768 78.6325 126.882C78.091 128.989 76.3647 129.365 76.3647 129.365" stroke="#1656BD" stroke-width="0.5" stroke-miterlimit="10"/>
<path opacity="0.37" d="M86.1702 117.807H62.5917L61.3748 132.406C68.0065 132.175 73.8877 126.613 78.1713 126.86C81.522 127.048 85.0765 126.04 86.9047 125.417C86.4758 120.687 86.1702 117.807 86.1702 117.807Z" fill="url(#paint38_linear_7_978)"/>
<path d="M68.4462 75.5111L69.958 74.6583L78.804 76.2298L81.1468 119.566H67.7278L68.4462 75.5111Z" fill="#DBB883"/>
<path d="M83.8005 65.074L81.4041 69.9708L80.7983 69.665C80.7983 69.665 79.9888 72.1 79.2114 72.1C78.434 72.1 77.6566 71.1882 77.6566 71.1882L77.2492 76.4229C77.2492 76.4229 71.7808 77.4902 69.9526 74.653C70.9766 71.4886 72.1078 67.9541 72.1078 67.9541C72.1078 67.9541 73.5017 65.3368 73.5017 63.6849C73.5017 62.0329 75.0565 58.6165 79.206 60.0002C83.3609 61.384 83.8005 65.0686 83.8005 65.0686V65.074Z" fill="#FF6D6D"/>
<path d="M74.4883 66.1305C74.2792 67.3587 76.354 69.6328 77.6567 71.1828L77.3243 75.5057C77.3243 75.5057 72.9979 72.9581 73.2927 66.8331L74.4883 66.1251V66.1305Z" fill="url(#paint39_linear_7_978)"/>
<path d="M77.9141 63.1753C78.3376 62.6819 79.0882 62.6229 79.5707 63.0573C80.7234 64.0978 82.7606 65.6639 84.7014 65.7819C87.6286 65.9643 88.9474 63.9047 87.7626 62.9876C86.6635 62.1402 84.1599 61.1211 84.1599 61.1211C84.1599 61.1211 75.7589 52.0356 73.9736 59.3405C73.9736 59.3405 72.3171 59.1689 71.8935 61.3357C71.47 63.5025 72.9979 66.3022 72.108 67.9595L74.483 66.1359C74.483 66.1359 73.593 65.4118 73.8879 64.1407C74.1827 62.8696 75.2014 62.3976 75.5445 62.9071C75.8822 63.4167 75.5016 65.2402 75.5016 65.2402C75.5016 65.2402 76.9116 64.3338 77.9088 63.1753H77.9141Z" fill="#0C3069"/>
<path d="M77.0402 76.0582C77.5817 79.7482 79.1686 92.7383 77.2493 107.048V117.764C77.2493 120.435 79.1847 122.736 81.8278 123.149C83.7631 123.454 86.0631 123.572 88.1968 123.074L86.2775 106.769C86.2775 106.769 88.2344 88.0453 88.1325 80.5098C88.1164 79.3995 87.4141 78.418 86.3794 78.0372C84.385 77.3025 80.9378 76.0796 77.9248 75.2805C77.437 75.1517 76.9759 75.5594 77.0456 76.0635L77.0402 76.0582Z" fill="#1656BD"/>
<path d="M77.9944 75.5111C77.9944 75.5111 81.9777 77.812 83.302 80.4454L80.0102 87.5412C80.0102 87.5412 82.3906 89.0269 83.302 90.5822L78.4715 101.459" stroke="#0F3D85" stroke-width="0.81" stroke-miterlimit="10"/>
<path d="M56.9788 77.2274C60.9782 75.8812 66.854 74.5886 69.3148 74.0737C69.9796 73.9343 70.6444 74.3043 70.8749 74.9426C72.2635 78.8203 76.74 92.3307 77.2494 106.522C77.3405 108.973 76.1235 116.123 75.4534 119.861C75.1478 121.556 74.0755 123.025 72.5262 123.771C69.4167 125.267 63.8571 126.458 58.5442 120.102L61.9218 111.457L56.9788 77.2274Z" fill="#1656BD"/>
<path d="M69.347 74.6583C69.347 74.6583 66.511 77.6779 65.7014 79.5658L72.7245 86.6616C72.7245 86.6616 70.9018 87.9166 69.213 89.9708L76.5095 101.459" stroke="#0F3D85" stroke-width="0.81" stroke-miterlimit="10"/>
<path d="M86.5401 109.027C86.5401 109.027 70.9766 128.255 59.1284 118.595L61.9162 111.457L86.272 106.774L86.5347 109.027H86.5401Z" fill="url(#paint40_linear_7_978)"/>
<path d="M62.0556 79.657C62.0556 79.657 70.7193 94.8354 73.2766 102.333C73.2766 102.333 73.8609 102.012 74.4399 102.998C74.4399 102.998 84.9532 99.9306 87.0709 100.274L70.4298 109.295L59.1338 93.8002L62.0556 79.657Z" fill="url(#paint41_linear_7_978)"/>
<path d="M90.1857 103.937L91.5207 103.395C91.5207 103.395 92.1962 104.763 94.0511 105.101C94.0511 105.101 94.2173 106.029 95.0644 106.045C95.9061 106.061 96.6352 102.698 95.9758 101.684C95.9758 101.684 92.2659 99.893 90.9363 99.9359C89.6067 99.9842 88.0413 100.617 88.0413 100.617L90.1857 103.926V103.937Z" fill="#FF6D6D"/>
<path d="M58.9946 76.6213C52.7649 77.6886 47.8273 85.4548 53.864 96.0528C57.2844 106.501 61.0694 117.946 67.7333 118.574C74.3973 119.207 90.5183 104.522 90.5183 104.522C90.5183 104.522 90.5719 100.917 88.2023 99.9252L73.2822 104.522C73.2822 104.522 73.5824 103.529 71.8293 103.98C71.8293 103.98 67.3581 91.553 65.8462 87.3159C64.4952 83.5347 62.1524 76.0849 59 76.6266L58.9946 76.6213Z" fill="#1656BD"/>
<path d="M91.1669 99.6303C90.8989 99.5391 90.5611 99.4801 90.1805 99.4801C89.7998 99.4801 89.4674 99.5391 89.194 99.6303H88.6257V100.124C88.6257 100.478 89.3227 100.762 90.1805 100.762C91.0383 100.762 91.7352 100.478 91.7352 100.124V99.6303H91.1669Z" fill="#786337"/>
<path d="M90.1856 100.269C91.0443 100.269 91.7403 99.9828 91.7403 99.6303C91.7403 99.2778 91.0443 98.9921 90.1856 98.9921C89.3269 98.9921 88.6309 99.2778 88.6309 99.6303C88.6309 99.9828 89.3269 100.269 90.1856 100.269Z" fill="#EBC36C"/>
<path d="M91.3224 99.6302C91.3224 99.8609 90.8131 100.054 90.1859 100.054C89.5586 100.054 89.0493 99.8662 89.0493 99.6302C89.0493 99.3943 89.5586 99.2065 90.1859 99.2065C90.8131 99.2065 91.3224 99.3943 91.3224 99.6302Z" fill="#FFFAF0"/>
<path d="M91.3223 100.36C91.3223 100.36 92.1855 101.229 91.644 103.347C91.6011 103.519 91.4671 103.653 91.2955 103.696L90.7916 103.841C90.7916 103.841 91.1454 101.561 90.0464 100.596L91.317 100.36H91.3223Z" fill="#0C3069"/>
</g>
<defs>
<linearGradient id="paint0_linear_7_978" x1="157.077" y1="35.2805" x2="107.332" y2="171.481" gradientUnits="userSpaceOnUse">
<stop offset="0.05" stop-color="#A1C1ED"/>
<stop offset="1" stop-color="#A1C1ED" stop-opacity="0"/>
</linearGradient>
<linearGradient id="paint1_linear_7_978" x1="216.088" y1="-3.11074" x2="245.608" y2="134.707" gradientUnits="userSpaceOnUse">
<stop offset="0.05" stop-color="#A1C1ED"/>
<stop offset="1" stop-color="#A1C1ED" stop-opacity="0"/>
</linearGradient>
<linearGradient id="paint2_linear_7_978" x1="31.4112" y1="99.1369" x2="39.4208" y2="99.1369" gradientUnits="userSpaceOnUse">
<stop offset="0.04" stop-color="#FFA526"/>
<stop offset="1" stop-color="#FF6026"/>
</linearGradient>
<linearGradient id="paint3_linear_7_978" x1="23.7233" y1="111.559" x2="39.2385" y2="111.559" gradientUnits="userSpaceOnUse">
<stop offset="0.04" stop-color="#FFA526"/>
<stop offset="1" stop-color="#FF6026"/>
</linearGradient>
<linearGradient id="paint4_linear_7_978" x1="23.4605" y1="120.258" x2="40.4554" y2="120.258" gradientUnits="userSpaceOnUse">
<stop offset="0.04" stop-color="#FFA526"/>
<stop offset="1" stop-color="#FF6026"/>
</linearGradient>
<linearGradient id="paint5_linear_7_978" x1="26.4305" y1="127.81" x2="41.6562" y2="127.81" gradientUnits="userSpaceOnUse">
<stop offset="0.04" stop-color="#FFA526"/>
<stop offset="1" stop-color="#FF6026"/>
</linearGradient>
<linearGradient id="paint6_linear_7_978" x1="39.0347" y1="111.113" x2="51.2742" y2="111.113" gradientUnits="userSpaceOnUse">
<stop offset="0.04" stop-color="#FFA526"/>
<stop offset="1" stop-color="#FF6026"/>
</linearGradient>
<linearGradient id="paint7_linear_7_978" x1="40.3696" y1="120.124" x2="53.0863" y2="120.124" gradientUnits="userSpaceOnUse">
<stop offset="0.04" stop-color="#FFA526"/>
<stop offset="1" stop-color="#FF6026"/>
</linearGradient>
<linearGradient id="paint8_linear_7_978" x1="41.4849" y1="127.895" x2="52.8988" y2="127.895" gradientUnits="userSpaceOnUse">
<stop offset="0.04" stop-color="#FFA526"/>
<stop offset="1" stop-color="#FF6026"/>
</linearGradient>
<linearGradient id="paint9_linear_7_978" x1="89.1241" y1="233.275" x2="89.1241" y2="97.7316" gradientUnits="userSpaceOnUse">
<stop stop-color="#6AB883"/>
<stop offset="1" stop-color="#DBB883"/>
</linearGradient>
<linearGradient id="paint10_linear_7_978" x1="36.2737" y1="172.894" x2="101.6" y2="172.894" gradientUnits="userSpaceOnUse">
<stop offset="0.16" stop-color="#187D38"/>
<stop offset="1" stop-color="#187D38" stop-opacity="0"/>
</linearGradient>
<linearGradient id="paint11_linear_7_978" x1="312.604" y1="88.3833" x2="304.615" y2="88.9502" gradientUnits="userSpaceOnUse">
<stop offset="0.04" stop-color="#FFA526"/>
<stop offset="1" stop-color="#FF6026"/>
</linearGradient>
<linearGradient id="paint12_linear_7_978" x1="321.152" y1="100.229" x2="305.675" y2="101.327" gradientUnits="userSpaceOnUse">
<stop offset="0.04" stop-color="#FFA526"/>
<stop offset="1" stop-color="#FF6026"/>
</linearGradient>
<linearGradient id="paint13_linear_7_978" x1="322.03" y1="108.888" x2="305.077" y2="110.091" gradientUnits="userSpaceOnUse">
<stop offset="0.04" stop-color="#FFA526"/>
<stop offset="1" stop-color="#FF6026"/>
</linearGradient>
<linearGradient id="paint14_linear_7_978" x1="319.601" y1="116.631" x2="304.419" y2="117.708" gradientUnits="userSpaceOnUse">
<stop offset="0.04" stop-color="#FFA526"/>
<stop offset="1" stop-color="#FF6026"/>
</linearGradient>
<linearGradient id="paint15_linear_7_978" x1="305.853" y1="100.875" x2="293.639" y2="101.741" gradientUnits="userSpaceOnUse">
<stop offset="0.04" stop-color="#FFA526"/>
<stop offset="1" stop-color="#FF6026"/>
</linearGradient>
<linearGradient id="paint16_linear_7_978" x1="305.153" y1="109.952" x2="292.469" y2="110.852" gradientUnits="userSpaceOnUse">
<stop offset="0.04" stop-color="#FFA526"/>
<stop offset="1" stop-color="#FF6026"/>
</linearGradient>
<linearGradient id="paint17_linear_7_978" x1="304.596" y1="117.783" x2="293.206" y2="118.591" gradientUnits="userSpaceOnUse">
<stop offset="0.04" stop-color="#FFA526"/>
<stop offset="1" stop-color="#FF6026"/>
</linearGradient>
<linearGradient id="paint18_linear_7_978" x1="283.049" y1="205.89" x2="283.049" y2="102.43" gradientUnits="userSpaceOnUse">
<stop stop-color="#6AB883"/>
<stop offset="1" stop-color="#DBB883"/>
</linearGradient>
<linearGradient id="paint19_linear_7_978" x1="281.756" y1="136.343" x2="281.756" y2="205.547" gradientUnits="userSpaceOnUse">
<stop offset="0.16" stop-color="#187D38"/>
<stop offset="1" stop-color="#187D38" stop-opacity="0"/>
</linearGradient>
<linearGradient id="paint20_linear_7_978" x1="204.245" y1="99.2173" x2="204.245" y2="110.77" gradientUnits="userSpaceOnUse">
<stop stop-color="#CEDBED"/>
<stop offset="1" stop-color="white"/>
</linearGradient>
<linearGradient id="paint21_linear_7_978" x1="204.245" y1="77.3776" x2="204.245" y2="99.9253" gradientUnits="userSpaceOnUse">
<stop offset="0.04" stop-color="#FFA526"/>
<stop offset="0.16" stop-color="#FF8F26"/>
<stop offset="0.32" stop-color="#FF7A26"/>
<stop offset="0.49" stop-color="#FF6B26"/>
<stop offset="0.69" stop-color="#FF6226"/>
<stop offset="1" stop-color="#FF6026"/>
</linearGradient>
<linearGradient id="paint22_linear_7_978" x1="49.2746" y1="29.9439" x2="49.2746" y2="77.013" gradientUnits="userSpaceOnUse">
<stop/>
<stop offset="0.93" stop-opacity="0"/>
</linearGradient>
<linearGradient id="paint23_linear_7_978" x1="119.125" y1="144.452" x2="217.417" y2="144.452" gradientUnits="userSpaceOnUse">
<stop offset="0.04"/>
<stop offset="0.93" stop-opacity="0"/>
</linearGradient>
<linearGradient id="paint24_linear_7_978" x1="124.588" y1="86.0616" x2="124.588" y2="215.732" gradientUnits="userSpaceOnUse">
<stop offset="0.04" stop-color="#FFA526"/>
<stop offset="1" stop-color="#FF6026"/>
</linearGradient>
<linearGradient id="paint25_linear_7_978" x1="124.588" y1="246.711" x2="124.588" y2="150.797" gradientUnits="userSpaceOnUse">
<stop stop-color="#1656BD"/>
<stop offset="1" stop-color="#CEDBED"/>
</linearGradient>
<linearGradient id="paint26_linear_7_978" x1="271.522" y1="182.87" x2="276.127" y2="182.87" gradientUnits="userSpaceOnUse">
<stop stop-color="#F04F4F"/>
<stop offset="0.15" stop-color="#F04F4F" stop-opacity="0.99"/>
<stop offset="0.28" stop-color="#F04F4F" stop-opacity="0.94"/>
<stop offset="0.4" stop-color="#F04F4F" stop-opacity="0.86"/>
<stop offset="0.53" stop-color="#F04F4F" stop-opacity="0.76"/>
<stop offset="0.65" stop-color="#F04F4F" stop-opacity="0.62"/>
<stop offset="0.76" stop-color="#F04F4F" stop-opacity="0.45"/>
<stop offset="0.88" stop-color="#F04F4F" stop-opacity="0.25"/>
<stop offset="0.99" stop-color="#F04F4F" stop-opacity="0.02"/>
<stop offset="1" stop-color="#F04F4F" stop-opacity="0"/>
</linearGradient>
<linearGradient id="paint27_linear_7_978" x1="291.272" y1="182.672" x2="296.291" y2="182.672" gradientUnits="userSpaceOnUse">
<stop stop-color="#F04F4F"/>
<stop offset="0.15" stop-color="#F04F4F" stop-opacity="0.99"/>
<stop offset="0.28" stop-color="#F04F4F" stop-opacity="0.94"/>
<stop offset="0.4" stop-color="#F04F4F" stop-opacity="0.86"/>
<stop offset="0.53" stop-color="#F04F4F" stop-opacity="0.76"/>
<stop offset="0.65" stop-color="#F04F4F" stop-opacity="0.62"/>
<stop offset="0.76" stop-color="#F04F4F" stop-opacity="0.45"/>
<stop offset="0.88" stop-color="#F04F4F" stop-opacity="0.25"/>
<stop offset="0.99" stop-color="#F04F4F" stop-opacity="0.02"/>
<stop offset="1" stop-color="#F04F4F" stop-opacity="0"/>
</linearGradient>
<linearGradient id="paint28_linear_7_978" x1="294.537" y1="148.341" x2="264.128" y2="194.143" gradientUnits="userSpaceOnUse">
<stop offset="0.04"/>
<stop offset="0.93" stop-opacity="0"/>
</linearGradient>
<linearGradient id="paint29_linear_7_978" x1="287.841" y1="127.118" x2="290.637" y2="140.268" gradientUnits="userSpaceOnUse">
<stop offset="0.04"/>
<stop offset="0.93" stop-opacity="0"/>
</linearGradient>
<linearGradient id="paint30_linear_7_978" x1="264.799" y1="118.643" x2="254.666" y2="131.946" gradientUnits="userSpaceOnUse">
<stop stop-color="#F04F4F"/>
<stop offset="0.15" stop-color="#F04F4F" stop-opacity="0.99"/>
<stop offset="0.28" stop-color="#F04F4F" stop-opacity="0.94"/>
<stop offset="0.4" stop-color="#F04F4F" stop-opacity="0.86"/>
<stop offset="0.53" stop-color="#F04F4F" stop-opacity="0.76"/>
<stop offset="0.65" stop-color="#F04F4F" stop-opacity="0.62"/>
<stop offset="0.76" stop-color="#F04F4F" stop-opacity="0.45"/>
<stop offset="0.88" stop-color="#F04F4F" stop-opacity="0.25"/>
<stop offset="0.99" stop-color="#F04F4F" stop-opacity="0.02"/>
<stop offset="1" stop-color="#F04F4F" stop-opacity="0"/>
</linearGradient>
<linearGradient id="paint31_linear_7_978" x1="256.827" y1="111.178" x2="263.603" y2="111.178" gradientUnits="userSpaceOnUse">
<stop stop-color="#F04F4F"/>
<stop offset="0.15" stop-color="#F04F4F" stop-opacity="0.99"/>
<stop offset="0.28" stop-color="#F04F4F" stop-opacity="0.94"/>
<stop offset="0.4" stop-color="#F04F4F" stop-opacity="0.86"/>
<stop offset="0.53" stop-color="#F04F4F" stop-opacity="0.76"/>
<stop offset="0.65" stop-color="#F04F4F" stop-opacity="0.62"/>
<stop offset="0.76" stop-color="#F04F4F" stop-opacity="0.45"/>
<stop offset="0.88" stop-color="#F04F4F" stop-opacity="0.25"/>
<stop offset="0.99" stop-color="#F04F4F" stop-opacity="0.02"/>
<stop offset="1" stop-color="#F04F4F" stop-opacity="0"/>
</linearGradient>
<linearGradient id="paint32_linear_7_978" x1="278.25" y1="126.045" x2="290.95" y2="114.905" gradientUnits="userSpaceOnUse">
<stop/>
<stop offset="0.93" stop-opacity="0"/>
</linearGradient>
<linearGradient id="paint33_linear_7_978" x1="156.278" y1="52.293" x2="156.278" y2="71.7513" gradientUnits="userSpaceOnUse">
<stop stop-color="#B9CCEB"/>
<stop offset="1" stop-color="#1656BD"/>
</linearGradient>
<linearGradient id="paint34_linear_7_978" x1="267.222" y1="31.9765" x2="310.644" y2="-10.7089" gradientUnits="userSpaceOnUse">
<stop offset="0.04" stop-color="#FFA526"/>
<stop offset="0.25" stop-color="#FF9C26"/>
<stop offset="0.59" stop-color="#FF8426"/>
<stop offset="1" stop-color="#FF6026"/>
</linearGradient>
<linearGradient id="paint35_linear_7_978" x1="85.5324" y1="141.073" x2="96.8136" y2="159.111" gradientUnits="userSpaceOnUse">
<stop offset="0.04"/>
<stop offset="0.93" stop-opacity="0"/>
</linearGradient>
<linearGradient id="paint36_linear_7_978" x1="86.6527" y1="93.1084" x2="91.0578" y2="138.456" gradientUnits="userSpaceOnUse">
<stop stop-color="#0C3069"/>
<stop offset="1" stop-color="#0C3069" stop-opacity="0"/>
</linearGradient>
<linearGradient id="paint37_linear_7_978" x1="72.5261" y1="161.486" x2="89.446" y2="161.486" gradientUnits="userSpaceOnUse">
<stop offset="0.04"/>
<stop offset="0.93" stop-opacity="0"/>
</linearGradient>
<linearGradient id="paint38_linear_7_978" x1="61.3748" y1="125.106" x2="86.91" y2="125.106" gradientUnits="userSpaceOnUse">
<stop offset="0.04"/>
<stop offset="0.93" stop-opacity="0"/>
</linearGradient>
<linearGradient id="paint39_linear_7_978" x1="73.2713" y1="70.8234" x2="77.6567" y2="70.8234" gradientUnits="userSpaceOnUse">
<stop stop-color="#F04F4F"/>
<stop offset="0.15" stop-color="#F04F4F" stop-opacity="0.99"/>
<stop offset="0.28" stop-color="#F04F4F" stop-opacity="0.94"/>
<stop offset="0.4" stop-color="#F04F4F" stop-opacity="0.86"/>
<stop offset="0.53" stop-color="#F04F4F" stop-opacity="0.76"/>
<stop offset="0.65" stop-color="#F04F4F" stop-opacity="0.62"/>
<stop offset="0.76" stop-color="#F04F4F" stop-opacity="0.45"/>
<stop offset="0.88" stop-color="#F04F4F" stop-opacity="0.25"/>
<stop offset="0.99" stop-color="#F04F4F" stop-opacity="0.02"/>
<stop offset="1" stop-color="#F04F4F" stop-opacity="0"/>
</linearGradient>
<linearGradient id="paint40_linear_7_978" x1="71.6092" y1="106.41" x2="77.0176" y2="137.404" gradientUnits="userSpaceOnUse">
<stop stop-color="#0C3069"/>
<stop offset="1" stop-color="#0C3069" stop-opacity="0"/>
</linearGradient>
<linearGradient id="paint41_linear_7_978" x1="76.3056" y1="85.9053" x2="62.1584" y2="118.784" gradientUnits="userSpaceOnUse">
<stop stop-color="#0C3069"/>
<stop offset="1" stop-color="#0C3069" stop-opacity="0"/>
</linearGradient>
<clipPath id="clip0_7_978">
<rect width="342" height="207" fill="white"/>
</clipPath>
</defs>
</svg>
