<svg width="44" height="44" viewBox="0 0 44 44" fill="none" xmlns="http://www.w3.org/2000/svg">
<rect width="44" height="44" rx="22" fill="#FF5A5F" fill-opacity="0.08"/>
<path fill-rule="evenodd" clip-rule="evenodd" d="M19.8953 21.23C19.4578 21.23 19.1119 21.57 19.1119 22C19.1119 22.42 19.4578 22.77 19.8953 22.77H26V27.55C26 30 23.9753 32 21.4724 32H16.5174C14.0247 32 12 30.01 12 27.56V16.45C12 13.99 14.0349 12 16.5276 12H21.4927C23.9753 12 26 13.99 26 16.44V21.23H19.8953ZM29.6302 18.5402L32.5502 21.4502C32.7002 21.6002 32.7802 21.7902 32.7802 22.0002C32.7802 22.2002 32.7002 22.4002 32.5502 22.5402L29.6302 25.4502C29.4802 25.6002 29.2802 25.6802 29.0902 25.6802C28.8902 25.6802 28.6902 25.6002 28.5402 25.4502C28.2402 25.1502 28.2402 24.6602 28.5402 24.3602L30.1402 22.7702H26.0002V21.2302H30.1402L28.5402 19.6402C28.2402 19.3402 28.2402 18.8502 28.5402 18.5502C28.8402 18.2402 29.3302 18.2402 29.6302 18.5402Z" fill="url(#paint0_linear_1_3707)"/>
<defs>
<linearGradient id="paint0_linear_1_3707" x1="32.7802" y1="32" x2="8.20521" y2="24.5968" gradientUnits="userSpaceOnUse">
<stop stop-color="#FF5A5F"/>
<stop offset="1" stop-color="#FF8A9B"/>
</linearGradient>
</defs>
</svg>
