<svg width="128" height="128" viewBox="0 0 128 128" fill="none" xmlns="http://www.w3.org/2000/svg">
    <path d="M4.923,114.154a60.308,6.154 0,1 0,120.615 0a60.308,6.154 0,1 0,-120.615 0z"
        fill="#EDF2F7" />
    <path
        d="M78.813,80.828H75.625L74.629,81.924H38.222L37.375,80.828H34.188C33.748,80.828 33.391,81.185 33.391,81.625V113.5H79.609V81.625C79.609,81.185 79.253,80.828 78.813,80.828Z"
        fill="#E2E8F0" />
    <path
        d="M71.641,91.188H41.359C39.159,91.188 37.375,89.404 37.375,87.203L37.375,80.828H75.625L75.625,87.203C75.625,89.404 73.841,91.188 71.641,91.188Z"
        fill="#E2E8F0" />
    <path
        d="M76.322,113.5H38.537L34.984,110.312V93.578C34.984,93.138 35.341,92.781 35.781,92.781H43.75L45.244,94.143H67.822L69.25,92.781H77.219C77.659,92.781 78.016,93.138 78.016,93.578V110.312L76.322,113.5Z"
        fill="#C9D3E0" />
    <path
        d="M40.563,108.719H38.172C37.292,108.719 36.578,108.005 36.578,107.125V95.969C36.578,95.088 37.292,94.375 38.172,94.375H40.563C41.443,94.375 42.156,95.088 42.156,95.969V107.125C42.156,108.005 41.443,108.719 40.563,108.719Z"
        fill="#E2E8F0" />
    <path
        d="M74.828,108.719H72.438C71.557,108.719 70.844,108.005 70.844,107.125V95.969C70.844,95.088 71.557,94.375 72.438,94.375H74.828C75.708,94.375 76.422,95.088 76.422,95.969V107.125C76.422,108.005 75.708,108.719 74.828,108.719Z"
        fill="#E2E8F0" />
    <path d="M72.836,106.328H74.43V111.109H72.836V106.328Z" fill="#ffffff" />
    <path d="M68.453,110.312H78.016V113.5H68.453V110.312Z" fill="#BFCADA" />
    <path d="M38.57,106.328H40.164V111.109H38.57V106.328Z" fill="#ffffff" />
    <path d="M34.984,110.312H44.547V113.5H34.984V110.312Z" fill="#BFCADA" />
    <path
        d="M71.641,71H41.359C41.08,71 40.812,71.048 40.563,71.136L39.716,73.391V85.294C39.716,86.614 40.786,87.685 42.106,87.685H71.641L73.895,86.938C73.983,86.688 74.031,86.42 74.031,86.141V73.391C74.031,72.07 72.961,71 71.641,71Z"
        fill="#C9D3E0" />
    <path
        d="M55.46,75.59C55.309,75.222 54.955,74.984 54.556,74.984C54.555,74.984 54.555,74.984 54.554,74.984C54.155,74.985 53.801,75.224 53.645,75.61L50.653,83.466C50.496,83.878 50.703,84.338 51.114,84.495C51.208,84.53 51.303,84.547 51.397,84.547C51.718,84.547 52.021,84.351 52.142,84.034L52.692,82.59H56.399L56.943,84.031C57.099,84.443 57.558,84.651 57.97,84.495C58.382,84.34 58.59,83.88 58.434,83.468L55.46,75.59ZM53.299,80.996L54.554,77.701L55.798,80.996H53.299Z"
        fill="#ffffff" />
    <path
        d="M63.111,82.947C63.109,82.947 63.108,82.947 63.106,82.947C62.402,82.95 61.642,82.953 61.117,82.955V75.781C61.117,75.341 60.761,74.984 60.32,74.984C59.88,74.984 59.523,75.341 59.523,75.781V83.743C59.523,84.132 59.804,84.463 60.186,84.529C60.242,84.539 62.209,84.545 63.115,84.54C63.555,84.538 63.91,84.179 63.908,83.739C63.905,83.3 63.549,82.947 63.111,82.947Z"
        fill="#ffffff" />
    <path
        d="M69.075,82.953H66.544V80.599H68.829C69.27,80.599 69.626,80.242 69.626,79.802C69.626,79.362 69.27,79.005 68.829,79.005H66.544V76.651H69.075C69.515,76.651 69.872,76.294 69.872,75.854C69.872,75.414 69.515,75.057 69.075,75.057H65.747C65.307,75.057 64.951,75.414 64.951,75.854V83.75C64.951,84.19 65.307,84.547 65.747,84.547H69.075C69.515,84.547 69.872,84.19 69.872,83.75C69.872,83.31 69.515,82.953 69.075,82.953Z"
        fill="#ffffff" />
    <path
        d="M47.87,79.08C46.86,78.708 45.92,78.301 45.668,78.19C45.445,78.022 45.337,77.757 45.378,77.47C45.431,77.099 45.721,76.799 46.151,76.67C47.383,76.299 48.504,77.193 48.528,77.213C48.867,77.494 49.366,77.448 49.648,77.113C49.931,76.776 49.888,76.273 49.551,75.99C49.479,75.93 47.766,74.518 45.692,75.144C44.667,75.452 43.942,76.257 43.801,77.244C43.668,78.165 44.068,79.051 44.842,79.556C44.877,79.579 44.913,79.599 44.952,79.616C44.998,79.636 46.089,80.122 47.32,80.576C48.157,80.885 48.584,81.361 48.492,81.883C48.397,82.409 47.778,82.953 46.903,82.953C46.056,82.953 45.239,82.609 44.717,82.033C44.419,81.708 43.916,81.683 43.59,81.979C43.264,82.274 43.24,82.778 43.535,83.104C44.355,84.008 45.614,84.547 46.903,84.547C48.46,84.547 49.818,83.522 50.061,82.163C50.245,81.131 49.766,79.78 47.87,79.08Z"
        fill="#ffffff" />
    <path
        d="M47.734,114.297C47.294,114.297 46.938,113.94 46.938,113.5V103.141C46.938,102.701 47.294,102.344 47.734,102.344C48.175,102.344 48.531,102.701 48.531,103.141V113.5C48.531,113.94 48.175,114.297 47.734,114.297Z"
        fill="#ffffff" />
    <path
        d="M65.266,114.297C64.825,114.297 64.469,113.94 64.469,113.5V103.141C64.469,102.701 64.825,102.344 65.266,102.344C65.706,102.344 66.063,102.701 66.063,103.141V113.5C66.063,113.94 65.706,114.297 65.266,114.297Z"
        fill="#ffffff" />
    <path
        d="M43.75,86.938C41.99,86.938 40.563,85.51 40.563,83.75V71.135C39.636,71.465 38.969,72.351 38.969,73.391V86.141C38.969,87.461 40.039,88.531 41.359,88.531H71.641C72.68,88.531 73.566,87.864 73.895,86.938H43.75Z"
        fill="#BFCADA" />
    <path
        d="M81.203,112.703H69.25V92.781H43.75V112.703H31.797C31.356,112.703 31,113.06 31,113.5C31,113.94 31.356,114.297 31.797,114.297H81.203C81.644,114.297 82,113.94 82,113.5C82,113.06 81.644,112.703 81.203,112.703ZM67.656,112.703H45.344V96.766C45.344,96.326 45.701,95.969 46.141,95.969H66.859C67.299,95.969 67.656,96.326 67.656,96.766V112.703Z"
        fill="#BFCADA" />
    <path
        d="M74.683,52.872C74.631,52.712 74.535,52.569 74.407,52.46C74.278,52.351 74.122,52.28 73.955,52.256L71.78,51.942L70.805,49.98C70.73,49.83 70.615,49.704 70.473,49.616C70.33,49.528 70.166,49.481 69.999,49.481C69.832,49.481 69.668,49.528 69.525,49.616C69.383,49.704 69.268,49.83 69.194,49.98L68.221,51.941L66.047,52.256C65.881,52.28 65.725,52.351 65.597,52.459C65.468,52.567 65.373,52.708 65.32,52.868C65.267,53.028 65.261,53.2 65.301,53.363C65.342,53.527 65.428,53.676 65.549,53.793L67.12,55.315L66.749,57.466C66.72,57.631 66.739,57.801 66.802,57.956C66.865,58.112 66.97,58.246 67.106,58.345C67.242,58.444 67.402,58.503 67.57,58.515C67.737,58.527 67.904,58.493 68.053,58.415L70,57.397L71.949,58.417C72.098,58.495 72.265,58.53 72.433,58.518C72.6,58.505 72.761,58.446 72.896,58.347C73.032,58.248 73.137,58.114 73.2,57.958C73.263,57.802 73.282,57.632 73.253,57.467L72.88,55.315L74.451,53.793C74.572,53.676 74.657,53.528 74.698,53.366C74.739,53.203 74.734,53.032 74.683,52.872Z"
        fill="#E2E8F0" />
    <path
        d="M118.464,88.684C118.403,88.497 118.291,88.33 118.141,88.203C117.991,88.076 117.809,87.994 117.614,87.965L115.077,87.599L113.939,85.31C113.852,85.135 113.718,84.988 113.552,84.885C113.386,84.783 113.194,84.728 112.999,84.728C112.804,84.728 112.612,84.783 112.446,84.885C112.28,84.988 112.146,85.135 112.059,85.31L110.925,87.598L108.388,87.965C108.194,87.994 108.012,88.076 107.863,88.202C107.713,88.328 107.601,88.493 107.54,88.679C107.478,88.866 107.471,89.066 107.518,89.257C107.565,89.448 107.666,89.622 107.807,89.758L109.64,91.534L109.207,94.043C109.174,94.236 109.195,94.434 109.269,94.616C109.343,94.797 109.466,94.954 109.624,95.069C109.782,95.184 109.969,95.253 110.165,95.267C110.36,95.282 110.555,95.241 110.729,95.151L113,93.963L115.274,95.153C115.447,95.244 115.643,95.285 115.838,95.27C116.033,95.256 116.221,95.187 116.379,95.072C116.537,94.956 116.66,94.799 116.734,94.618C116.807,94.436 116.829,94.238 116.795,94.045L116.36,91.534L118.193,89.758C118.333,89.622 118.433,89.45 118.481,89.26C118.529,89.07 118.523,88.87 118.464,88.684Z"
        fill="#A0AEC0" />
    <path
        d="M21.366,80.744C21.262,80.423 21.071,80.138 20.814,79.92C20.557,79.702 20.244,79.561 19.91,79.512L15.56,78.884L13.609,74.96C13.46,74.66 13.23,74.409 12.946,74.232C12.661,74.056 12.333,73.963 11.998,73.963C11.663,73.963 11.335,74.056 11.051,74.232C10.766,74.409 10.536,74.66 10.387,74.96L8.442,78.883L4.093,79.512C3.761,79.561 3.45,79.702 3.193,79.918C2.937,80.134 2.745,80.417 2.64,80.736C2.534,81.056 2.521,81.399 2.602,81.727C2.684,82.054 2.855,82.352 3.098,82.586L6.24,85.629L5.497,89.931C5.441,90.262 5.478,90.602 5.604,90.913C5.73,91.224 5.941,91.493 6.212,91.69C6.484,91.888 6.805,92.005 7.139,92.03C7.474,92.054 7.809,91.985 8.106,91.83L12,89.794L15.898,91.834C16.195,91.99 16.53,92.06 16.865,92.035C17.2,92.01 17.521,91.892 17.793,91.695C18.064,91.497 18.275,91.227 18.401,90.916C18.527,90.605 18.563,90.265 18.506,89.934L17.76,85.63L20.902,82.586C21.143,82.353 21.315,82.057 21.397,81.731C21.479,81.406 21.468,81.064 21.366,80.744Z"
        fill="#CBD5E0" />
    <path d="M79,114.5a7.5,1.5 0,1 0,15 0a7.5,1.5 0,1 0,-15 0z" stroke-width="0.3" fill="#1A202C"
        fill-opacity="0.3" />
    <path
        d="M66.875,85.215C66.875,74.865 75.524,66.5 85.985,66.5C96.476,66.5 105.125,74.865 105.125,85.215C105.125,90.43 103.228,95.272 100.106,99.376C96.662,103.903 92.417,107.847 87.639,110.943C86.546,111.658 85.559,111.712 84.358,110.943C79.553,107.847 75.308,103.903 71.894,99.376C68.77,95.272 66.875,90.43 66.875,85.215ZM79.687,85.798C79.687,89.265 82.516,91.992 85.985,91.992C89.457,91.992 92.313,89.265 92.313,85.798C92.313,82.358 89.457,79.498 85.985,79.498C82.516,79.498 79.687,82.358 79.687,85.798Z"
        fill="#A0AEC0" fill-rule="evenodd" />
</svg>
