<svg width="124" height="86" viewBox="0 0 124 86" fill="none" xmlns="http://www.w3.org/2000/svg">
    <path
        d="M2.923,74.154a60.308,6.154 0,1 0,120.615 0a60.308,6.154 0,1 0,-120.615 0z"
        fill="#EDF2F7"/>
    <path
        d="M87.5,48.5C87.5,46.239 88.317,44.054 89.801,42.348C91.285,40.641 93.335,39.529 95.574,39.215C95.94,39.157 96.272,38.97 96.511,38.687C96.75,38.404 96.879,38.045 96.875,37.675V28.188C96.875,27.777 96.794,27.371 96.637,26.992C96.48,26.612 96.25,26.268 95.96,25.978C95.67,25.688 95.325,25.457 94.946,25.3C94.567,25.143 94.16,25.063 93.75,25.063H31.25C30.421,25.063 29.626,25.392 29.04,25.978C28.454,26.564 28.125,27.359 28.125,28.188V37.675C28.121,38.045 28.25,38.404 28.489,38.687C28.728,38.969 29.061,39.157 29.426,39.214C31.665,39.528 33.716,40.641 35.199,42.347C36.683,44.054 37.5,46.239 37.5,48.5C37.5,50.761 36.683,52.946 35.199,54.652C33.716,56.358 31.665,57.471 29.426,57.785C29.061,57.843 28.728,58.03 28.489,58.313C28.25,58.595 28.121,58.955 28.125,59.325V68.812C28.125,69.223 28.206,69.629 28.363,70.008C28.52,70.387 28.75,70.732 29.04,71.022C29.33,71.312 29.675,71.543 30.054,71.7C30.433,71.857 30.84,71.938 31.25,71.938H93.75C94.16,71.938 94.567,71.857 94.946,71.7C95.325,71.543 95.67,71.313 95.96,71.022C96.25,70.732 96.48,70.387 96.637,70.008C96.794,69.629 96.875,69.223 96.875,68.813V59.325C96.879,58.955 96.75,58.596 96.511,58.313C96.272,58.031 95.939,57.843 95.574,57.786C93.335,57.471 91.285,56.359 89.801,54.652C88.317,52.946 87.5,50.761 87.5,48.5Z"
        fill="#E2E8F0"/>
    <path
        d="M50,25.063H31.25C30.421,25.063 29.626,25.392 29.041,25.978C28.454,26.564 28.125,27.359 28.125,28.188V37.675C28.121,38.045 28.25,38.404 28.489,38.687C28.728,38.969 29.061,39.157 29.426,39.214C31.665,39.528 33.716,40.641 35.199,42.347C36.683,44.054 37.5,46.239 37.5,48.5C37.5,50.761 36.683,52.946 35.199,54.652C33.716,56.358 31.665,57.471 29.426,57.785C29.061,57.843 28.728,58.03 28.489,58.313C28.25,58.595 28.121,58.955 28.125,59.325V68.812C28.125,69.223 28.206,69.629 28.363,70.008C28.52,70.387 28.75,70.732 29.04,71.022C29.331,71.312 29.675,71.543 30.054,71.7C30.433,71.857 30.84,71.938 31.25,71.938H50V25.063Z"
        fill="#A0AEC0"/>
    <path
        d="M50,35.089C49.586,35.089 49.188,35.253 48.895,35.546C48.602,35.839 48.438,36.237 48.438,36.651V40.297C48.436,40.503 48.474,40.708 48.552,40.9C48.63,41.091 48.745,41.265 48.89,41.411C49.035,41.558 49.208,41.675 49.399,41.754C49.589,41.834 49.794,41.875 50,41.875C50.207,41.875 50.411,41.834 50.601,41.754C50.792,41.675 50.965,41.558 51.11,41.411C51.256,41.265 51.37,41.091 51.448,40.9C51.526,40.708 51.565,40.503 51.563,40.297V36.651C51.563,36.237 51.398,35.839 51.105,35.546C50.812,35.253 50.415,35.089 50,35.089Z"
        fill="#718096"/>
    <path
        d="M50,45.114C49.586,45.114 49.188,45.279 48.895,45.572C48.602,45.865 48.438,46.263 48.438,46.677V50.323C48.436,50.529 48.474,50.734 48.552,50.925C48.63,51.117 48.745,51.291 48.89,51.437C49.035,51.584 49.208,51.701 49.399,51.78C49.589,51.86 49.794,51.9 50,51.9C50.207,51.9 50.411,51.86 50.601,51.78C50.792,51.701 50.965,51.584 51.11,51.437C51.256,51.291 51.37,51.117 51.448,50.925C51.526,50.734 51.565,50.529 51.563,50.323V46.677C51.563,46.263 51.398,45.865 51.105,45.572C50.812,45.279 50.415,45.114 50,45.114Z"
        fill="#718096"/>
    <path
        d="M50,55.141C49.586,55.141 49.188,55.305 48.895,55.598C48.602,55.891 48.438,56.289 48.438,56.703V60.349C48.436,60.556 48.474,60.761 48.552,60.952C48.63,61.143 48.745,61.317 48.89,61.464C49.035,61.611 49.208,61.727 49.399,61.806C49.589,61.886 49.794,61.927 50,61.927C50.207,61.927 50.411,61.886 50.601,61.806C50.792,61.727 50.965,61.611 51.11,61.464C51.256,61.317 51.37,61.143 51.448,60.952C51.526,60.761 51.565,60.556 51.563,60.349V56.703C51.563,56.289 51.398,55.891 51.105,55.598C50.812,55.305 50.415,55.141 50,55.141Z"
        fill="#718096"/>
    <path
        d="M78.24,56.75H74.302C74.127,56.75 73.974,56.816 73.843,56.947C73.712,57.078 73.646,57.231 73.646,57.406V61.344C73.646,61.519 73.712,61.672 73.843,61.803C73.974,61.934 74.127,62 74.302,62H78.24C78.415,62 78.568,61.934 78.699,61.803C78.83,61.672 78.896,61.519 78.896,61.344V57.406C78.896,57.231 78.831,57.078 78.699,56.947C78.568,56.815 78.415,56.75 78.24,56.75Z"
        fill="#718096"/>
    <path
        d="M83.408,44.962C82.96,44.136 82.38,43.439 81.669,42.87C80.958,42.301 80.159,41.847 79.273,41.508C78.387,41.17 77.507,41 76.632,41C73.307,41 70.77,42.455 69.019,45.364C68.932,45.506 68.902,45.659 68.929,45.824C68.957,45.987 69.041,46.124 69.184,46.234L71.874,48.285C72.016,48.372 72.153,48.416 72.285,48.416C72.481,48.416 72.651,48.328 72.793,48.153C73.581,47.169 74.166,46.54 74.549,46.266C75.019,45.949 75.609,45.791 76.32,45.791C76.988,45.791 77.575,45.966 78.084,46.315C78.593,46.666 78.847,47.07 78.847,47.53C78.847,48.043 78.71,48.459 78.437,48.777C78.163,49.094 77.704,49.4 77.058,49.695C76.205,50.078 75.423,50.671 74.713,51.475C74.001,52.279 73.646,53.135 73.646,54.043V54.781C73.646,54.989 73.703,55.194 73.818,55.396C73.933,55.599 74.073,55.7 74.237,55.7H78.174C78.349,55.7 78.502,55.615 78.634,55.445C78.765,55.276 78.83,55.098 78.83,54.913C78.83,54.639 78.981,54.273 79.281,53.813C79.582,53.354 79.957,52.998 80.406,52.747C80.832,52.506 81.165,52.312 81.406,52.164C81.647,52.017 81.961,51.778 82.35,51.451C82.738,51.122 83.039,50.797 83.252,50.474C83.465,50.152 83.657,49.733 83.826,49.219C83.996,48.705 84.081,48.153 84.081,47.562C84.081,46.654 83.856,45.788 83.408,44.962Z"
        fill="#718096"/>
    <path
        d="M44.683,4.872C44.631,4.712 44.535,4.569 44.407,4.46C44.278,4.351 44.122,4.28 43.955,4.256L41.78,3.942L40.805,1.98C40.73,1.83 40.615,1.704 40.473,1.616C40.33,1.528 40.166,1.481 39.999,1.481C39.832,1.481 39.668,1.528 39.525,1.616C39.383,1.704 39.268,1.83 39.194,1.98L38.221,3.941L36.047,4.256C35.881,4.281 35.725,4.351 35.597,4.459C35.468,4.567 35.373,4.709 35.32,4.868C35.267,5.028 35.261,5.2 35.301,5.363C35.342,5.527 35.428,5.676 35.549,5.793L37.12,7.315L36.749,9.466C36.72,9.631 36.739,9.801 36.802,9.956C36.865,10.112 36.971,10.246 37.106,10.345C37.242,10.444 37.402,10.503 37.57,10.515C37.737,10.527 37.904,10.493 38.053,10.415L40,9.397L41.949,10.417C42.097,10.495 42.265,10.53 42.432,10.517C42.6,10.505 42.761,10.446 42.896,10.347C43.032,10.248 43.137,10.114 43.2,9.958C43.263,9.802 43.282,9.632 43.253,9.467L42.88,7.315L44.451,5.793C44.571,5.676 44.657,5.528 44.698,5.366C44.739,5.203 44.734,5.032 44.683,4.872Z"
        fill="#E2E8F0"/>
    <path
        d="M108.464,18.684C108.403,18.497 108.292,18.33 108.142,18.204C107.991,18.076 107.809,17.994 107.614,17.965L105.077,17.599L103.939,15.31C103.852,15.135 103.718,14.988 103.552,14.885C103.386,14.783 103.194,14.728 102.999,14.728C102.804,14.728 102.612,14.783 102.446,14.885C102.28,14.988 102.146,15.135 102.059,15.31L100.925,17.598L98.388,17.965C98.194,17.994 98.012,18.076 97.863,18.202C97.713,18.328 97.602,18.493 97.54,18.679C97.479,18.866 97.471,19.066 97.518,19.257C97.565,19.448 97.666,19.622 97.808,19.758L99.64,21.534L99.207,24.043C99.174,24.236 99.195,24.434 99.269,24.616C99.343,24.797 99.466,24.954 99.624,25.069C99.782,25.184 99.969,25.253 100.165,25.267C100.36,25.282 100.555,25.241 100.729,25.151L103,23.963L105.274,25.153C105.447,25.244 105.643,25.285 105.838,25.27C106.033,25.256 106.221,25.187 106.379,25.072C106.537,24.956 106.66,24.799 106.734,24.618C106.807,24.436 106.829,24.238 106.795,24.045L106.36,21.534L108.193,19.758C108.334,19.622 108.434,19.45 108.481,19.26C108.529,19.07 108.523,18.871 108.464,18.684Z"
        fill="#A0AEC0"/>
    <path
        d="M21.366,34.744C21.262,34.423 21.071,34.138 20.814,33.92C20.557,33.702 20.244,33.561 19.91,33.512L15.56,32.884L13.609,28.96C13.46,28.66 13.23,28.409 12.945,28.232C12.661,28.056 12.333,27.963 11.998,27.963C11.663,27.963 11.335,28.056 11.051,28.232C10.766,28.409 10.536,28.66 10.387,28.96L8.442,32.883L4.093,33.512C3.761,33.561 3.45,33.702 3.193,33.918C2.937,34.134 2.745,34.417 2.64,34.736C2.534,35.056 2.521,35.4 2.602,35.727C2.683,36.054 2.855,36.352 3.098,36.586L6.24,39.629L5.497,43.931C5.44,44.262 5.477,44.602 5.604,44.913C5.73,45.223 5.941,45.493 6.212,45.69C6.483,45.888 6.805,46.005 7.139,46.03C7.474,46.055 7.809,45.985 8.106,45.83L12,43.794L15.898,45.834C16.195,45.99 16.53,46.06 16.865,46.035C17.2,46.01 17.521,45.892 17.792,45.695C18.064,45.497 18.275,45.227 18.401,44.916C18.527,44.605 18.563,44.264 18.506,43.934L17.76,39.63L20.902,36.586C21.143,36.353 21.314,36.057 21.396,35.731C21.479,35.406 21.468,35.064 21.366,34.744Z"
        fill="#CBD5E0"/>
    <path
        d="M103.781,72.91L94.11,63.234C97.054,58.823 98.254,53.474 97.476,48.228C96.697,42.981 93.996,38.212 89.898,34.848C85.8,31.484 80.597,29.765 75.302,30.026C70.008,30.287 64.999,32.509 61.252,36.26C57.504,40.012 55.285,45.023 55.026,50.321C54.766,55.619 56.486,60.824 59.85,64.923C63.214,69.022 67.981,71.723 73.225,72.5C78.469,73.277 83.815,72.075 88.222,69.127L97.893,78.801C98.68,79.57 99.737,80 100.837,80C101.937,80 102.993,79.57 103.781,78.801C104.561,78.02 105,76.96 105,75.856C105,74.751 104.561,73.691 103.781,72.91ZM76.373,36.275C79.358,36.275 82.276,37.161 84.759,38.82C87.241,40.48 89.176,42.839 90.318,45.598C91.461,48.358 91.76,51.395 91.177,54.325C90.595,57.254 89.157,59.945 87.046,62.058C84.935,64.17 82.246,65.608 79.317,66.191C76.389,66.774 73.354,66.475 70.596,65.331C67.838,64.188 65.48,62.253 63.822,59.769C62.163,57.285 61.278,54.365 61.278,51.378C61.282,47.374 62.874,43.535 65.704,40.703C68.534,37.872 72.37,36.279 76.373,36.275Z"
        fill="#A0AEC0"/>
</svg>
