<svg width="44" height="44" viewBox="0 0 44 44" fill="none" xmlns="http://www.w3.org/2000/svg">
<rect width="44" height="44" rx="22" fill="#FF5A5F" fill-opacity="0.08"/>
<path fill-rule="evenodd" clip-rule="evenodd" d="M28.7071 18.7963C28.7071 20.0523 29.039 20.7925 29.7695 21.6456C30.3231 22.2741 30.5 23.0808 30.5 23.956C30.5 24.8302 30.2128 25.6601 29.6373 26.3339C28.884 27.1417 27.8215 27.6573 26.7372 27.747C25.1659 27.8809 23.5937 27.9937 22.0005 27.9937C20.4063 27.9937 18.835 27.9263 17.2638 27.747C16.1785 27.6573 15.116 27.1417 14.3637 26.3339C13.7882 25.6601 13.5 24.8302 13.5 23.956C13.5 23.0808 13.6779 22.2741 14.2305 21.6456C14.9838 20.7925 15.2939 20.0523 15.2939 18.7963V18.3703C15.2939 16.6883 15.7133 15.5885 16.577 14.5119C17.8611 12.9417 19.9194 12 21.9558 12H22.0452C24.1254 12 26.2502 12.987 27.5125 14.6247C28.3314 15.6792 28.7071 16.7327 28.7071 18.3703V18.7963ZM19.0737 30.0608C19.0737 29.5573 19.5358 29.3266 19.9632 29.2279C20.4631 29.1222 23.5093 29.1222 24.0092 29.2279C24.4366 29.3266 24.8987 29.5573 24.8987 30.0608C24.8738 30.5402 24.5926 30.9653 24.204 31.2352C23.7001 31.628 23.1088 31.8767 22.4906 31.9664C22.1487 32.0107 21.8128 32.0117 21.4828 31.9664C20.8636 31.8767 20.2723 31.628 19.7694 31.2342C19.3798 30.9653 19.0985 30.5402 19.0737 30.0608Z" fill="url(#paint0_linear_1_3451)"/>
<defs>
<linearGradient id="paint0_linear_1_3451" x1="30.5" y1="32" x2="9.82665" y2="26.9051" gradientUnits="userSpaceOnUse">
<stop stop-color="#FF5A5F"/>
<stop offset="1" stop-color="#FF8A9B"/>
</linearGradient>
</defs>
</svg>
