<svg width="18" height="19" viewBox="0 0 18 19" fill="none" xmlns="http://www.w3.org/2000/svg">
    <path fill-rule="evenodd" clip-rule="evenodd"
        d="M8.80425 2.23389C12.8317 2.23389 16.1078 5.50989 16.1078 9.53739C16.1078 11.4375 15.3785 13.1706 14.1852 14.4713L16.5333 16.8144C16.7531 17.0342 16.7538 17.3897 16.534 17.6094C16.4246 17.7204 16.2798 17.7752 16.1358 17.7752C15.9925 17.7752 15.8485 17.7204 15.7383 17.6109L13.3619 15.2411C12.1118 16.2423 10.5268 16.8416 8.80425 16.8416C4.77675 16.8416 1.5 13.5649 1.5 9.53739C1.5 5.50989 4.77675 2.23389 8.80425 2.23389ZM8.80425 3.35889C5.397 3.35889 2.625 6.13014 2.625 9.53739C2.625 12.9446 5.397 15.7166 8.80425 15.7166C12.2108 15.7166 14.9828 12.9446 14.9828 9.53739C14.9828 6.13014 12.2108 3.35889 8.80425 3.35889Z"
        fill="#64748B" />
</svg>
