<svg width="16" height="16" viewBox="0 0 16 16" fill="none" xmlns="http://www.w3.org/2000/svg">
<path d="M7.99992 0.293335L14.6666 2.62667V8C14.6666 10.7513 12.9773 12.6747 11.4026 13.8687C10.4521 14.5827 9.4093 15.1646 8.30259 15.5987C8.2833 15.6061 8.26397 15.6135 8.24459 15.6207L8.22792 15.6267L8.22325 15.628L8.22125 15.6287C8.22059 15.6287 8.21992 15.6287 7.99992 15L7.77925 15.6293L7.77659 15.628L7.77192 15.6267L7.75525 15.62C7.66621 15.5871 7.57775 15.5527 7.48992 15.5167C6.45958 15.0918 5.48736 14.5378 4.59659 13.868C3.02325 12.6753 1.33325 10.752 1.33325 8.00067V2.62667L7.99992 0.293335ZM7.99992 15L7.77925 15.6293L7.99992 15.7067L8.22125 15.6287L7.99992 15ZM7.99992 14.2853L8.00592 14.2827C8.9285 13.9017 9.79919 13.4055 10.5973 12.806C12.0226 11.7267 13.3333 10.1487 13.3333 8V3.57334L7.99992 1.70667L2.66659 3.57334V8C2.66659 10.1487 3.97725 11.7253 5.40259 12.8067C6.20243 13.4071 7.07516 13.9044 7.99992 14.2853ZM12.0479 5.562L7.33392 10.276L4.50525 7.448L5.44859 6.50467L7.33325 8.39067L11.1046 4.61934L12.0479 5.562Z" fill="#00B17E"/>
</svg>
