<svg width="24" height="24" viewBox="0 0 24 24" fill="none" xmlns="http://www.w3.org/2000/svg">
    <path d="M11.9996 14.88C11.0896 14.88 10.3496 14.14 10.3496 13.23V10.76C10.3496 9.85001 11.0896 9.10999 11.9996 9.10999C12.9096 9.10999 13.6496 9.85001 13.6496 10.76V13.23C13.6496 14.14 12.9096 14.88 11.9996 14.88Z" stroke="url(#paint0_linear_3169_20435)" stroke-width="1.5" stroke-linecap="round"/>
    <path d="M16.98 13.47C16.78 16.05 14.62 18.07 12 18.07C9.24 18.07 7 15.83 7 13.07V10.93C7 8.16999 9.24 5.92999 12 5.92999C14.59 5.92999 16.72 7.89998 16.97 10.42" stroke="url(#paint1_linear_3169_20435)" stroke-width="1.5" stroke-linecap="round"/>
    <path d="M15 2H17C20 2 22 4 22 7V9" stroke="url(#paint2_linear_3169_20435)" stroke-width="1.5" stroke-miterlimit="10" stroke-linecap="round" stroke-linejoin="round"/>
    <path d="M2 9V7C2 4 4 2 7 2H9" stroke="url(#paint3_linear_3169_20435)" stroke-width="1.5" stroke-miterlimit="10" stroke-linecap="round" stroke-linejoin="round"/>
    <path d="M15 22H17C20 22 22 20 22 17V15" stroke="url(#paint4_linear_3169_20435)" stroke-width="1.5" stroke-miterlimit="10" stroke-linecap="round" stroke-linejoin="round"/>
    <path d="M2 15V17C2 20 4 22 7 22H9" stroke="url(#paint5_linear_3169_20435)" stroke-width="1.5" stroke-miterlimit="10" stroke-linecap="round" stroke-linejoin="round"/>
    <defs>
        <linearGradient id="paint0_linear_3169_20435" x1="13.6496" y1="14.88" x2="9.50672" y2="14.193" gradientUnits="userSpaceOnUse">
            <stop stop-color="#246BFD"/>
            <stop offset="1" stop-color="#5089FD"/>
        </linearGradient>
        <linearGradient id="paint1_linear_3169_20435" x1="16.98" y1="18.07" x2="4.79845" y2="15.1665" gradientUnits="userSpaceOnUse">
            <stop stop-color="#246BFD"/>
            <stop offset="1" stop-color="#5089FD"/>
        </linearGradient>
        <linearGradient id="paint2_linear_3169_20435" x1="22" y1="9" x2="13.6706" y2="6.58498" gradientUnits="userSpaceOnUse">
            <stop stop-color="#246BFD"/>
            <stop offset="1" stop-color="#5089FD"/>
        </linearGradient>
        <linearGradient id="paint3_linear_3169_20435" x1="9" y1="9" x2="0.670628" y2="6.58498" gradientUnits="userSpaceOnUse">
            <stop stop-color="#246BFD"/>
            <stop offset="1" stop-color="#5089FD"/>
        </linearGradient>
        <linearGradient id="paint4_linear_3169_20435" x1="22" y1="22" x2="13.6706" y2="19.585" gradientUnits="userSpaceOnUse">
            <stop stop-color="#246BFD"/>
            <stop offset="1" stop-color="#5089FD"/>
        </linearGradient>
        <linearGradient id="paint5_linear_3169_20435" x1="9" y1="22" x2="0.670628" y2="19.585" gradientUnits="userSpaceOnUse">
            <stop stop-color="#246BFD"/>
            <stop offset="1" stop-color="#5089FD"/>
        </linearGradient>
    </defs>
</svg>
