<svg width="44" height="44" viewBox="0 0 44 44" fill="none" xmlns="http://www.w3.org/2000/svg">
<rect width="44" height="44" rx="22" fill="#FFD028" fill-opacity="0.08"/>
<path fill-rule="evenodd" clip-rule="evenodd" d="M18.9257 26.39H24.3119C24.7178 26.39 25.0545 26.05 25.0545 25.64C25.0545 25.23 24.7178 24.9 24.3119 24.9H18.9257C18.5198 24.9 18.1832 25.23 18.1832 25.64C18.1832 26.05 18.5198 26.39 18.9257 26.39ZM22.2723 19.9H18.9257C18.5198 19.9 18.1832 20.24 18.1832 20.65C18.1832 21.06 18.5198 21.39 18.9257 21.39H22.2723C22.6782 21.39 23.0149 21.06 23.0149 20.65C23.0149 20.24 22.6782 19.9 22.2723 19.9ZM29.3381 19.0256C29.5708 19.0229 29.8242 19.02 30.0545 19.02C30.302 19.02 30.5 19.22 30.5 19.47V27.51C30.5 29.99 28.5099 32 26.0545 32H18.1733C15.599 32 13.5 29.89 13.5 27.29V16.51C13.5 14.03 15.5 12 17.9653 12H23.2525C23.5099 12 23.7079 12.21 23.7079 12.46V15.68C23.7079 17.51 25.203 19.01 27.0149 19.02C27.4381 19.02 27.8112 19.0232 28.1377 19.0259C28.3917 19.0281 28.6175 19.03 28.8168 19.03C28.9578 19.03 29.1405 19.0279 29.3381 19.0256ZM29.6111 17.566C28.7972 17.569 27.8378 17.566 27.1477 17.559C26.0527 17.559 25.1507 16.648 25.1507 15.542V12.906C25.1507 12.475 25.6685 12.261 25.9646 12.572C26.5004 13.1348 27.2368 13.9083 27.9699 14.6784C28.7009 15.4463 29.4286 16.2107 29.9507 16.759C30.2398 17.062 30.0279 17.565 29.6111 17.566Z" fill="url(#paint0_linear_1_3463)"/>
<defs>
<linearGradient id="paint0_linear_1_3463" x1="30.5" y1="32" x2="9.82665" y2="26.9051" gradientUnits="userSpaceOnUse">
<stop stop-color="#FACC15"/>
<stop offset="1" stop-color="#FFE580"/>
</linearGradient>
</defs>
</svg>
