<svg width="44" height="44" viewBox="0 0 44 44" fill="none" xmlns="http://www.w3.org/2000/svg">
<rect width="44" height="44" rx="22" fill="#6949FF" fill-opacity="0.08"/>
<path fill-rule="evenodd" clip-rule="evenodd" d="M17.67 11.9992H26.34C29.73 11.9992 32 14.3792 32 17.9192V26.0902C32 29.6202 29.73 31.9992 26.34 31.9992H17.67C14.28 31.9992 12 29.6202 12 26.0902V17.9192C12 14.3792 14.28 11.9992 17.67 11.9992ZM21.99 19.0602C21.52 19.0602 21.13 18.6692 21.13 18.1902C21.13 17.7002 21.52 17.3102 22.01 17.3102C22.49 17.3102 22.88 17.7002 22.88 18.1902C22.88 18.6692 22.49 19.0602 21.99 19.0602ZM22.87 25.7802C22.87 26.2602 22.48 26.6502 21.99 26.6502C21.51 26.6502 21.12 26.2602 21.12 25.7802V21.3602C21.12 20.8792 21.51 20.4802 21.99 20.4802C22.48 20.4802 22.87 20.8792 22.87 21.3602V25.7802Z" fill="url(#paint0_linear_1_3479)"/>
<defs>
<linearGradient id="paint0_linear_1_3479" x1="32" y1="31.9992" x2="8.2018" y2="25.0991" gradientUnits="userSpaceOnUse">
<stop stop-color="#6949FF"/>
<stop offset="1" stop-color="#876DFF"/>
</linearGradient>
</defs>
</svg>
